<svg width="39" height="30" viewBox="0 0 39 30" fill="none" xmlns="http://www.w3.org/2000/svg">
<path d="M10.6826 12.121C10.7356 11.526 10.778 10.931 10.8628 10.3456C10.9264 9.86574 11.2655 9.55863 11.7954 9.58743C14.4978 9.71219 16.7976 8.85806 18.8323 7.31295C19.3728 6.90029 19.8497 7.05384 20.3372 7.40892C21.7891 8.49338 23.4106 9.27073 25.297 9.49146C25.9011 9.55864 26.5052 9.55864 27.1198 9.56823C27.7239 9.57783 28.1054 9.82735 28.1584 10.3744C28.5929 14.5107 27.7027 18.3494 24.9367 21.7371C24.1207 22.7448 23.0503 23.503 21.8209 24.0884C20.2525 24.8369 18.7158 24.8178 17.1579 24.0692C14.4554 22.7736 12.9294 20.6239 11.9014 18.1287C11.1065 16.1901 10.7356 14.1748 10.6826 12.1114V12.121ZM22.5204 18.5989C22.6476 18.5989 22.7959 18.5797 22.9337 18.5702C24.1101 18.5318 24.3644 18.3014 24.3644 17.217C24.3644 16.4684 24.3644 15.7199 24.3644 14.9617C24.375 13.6853 24.5234 13.2151 22.6264 13.2439C22.584 13.2439 22.5416 13.2055 22.4674 13.1671C22.4674 13.0519 22.4462 12.9272 22.4356 12.7928C22.4038 11.6987 22.1283 11.4492 20.9095 11.4492C20.1253 11.4492 19.3516 11.4492 18.5674 11.4492C16.7552 11.4492 16.681 11.5068 16.5538 13.1095C16.5538 13.1479 16.5114 13.1767 16.4584 13.2439C16.3101 13.2439 16.1405 13.263 15.9815 13.263C14.8794 13.2822 14.6568 13.4742 14.6568 14.4723C14.6568 15.2688 14.6568 16.0654 14.6568 16.8523C14.6568 18.4358 14.678 18.455 16.4266 18.5797C16.469 18.5797 16.5008 18.6277 16.5644 18.6661C16.5644 18.7621 16.575 18.8677 16.5856 18.9732C16.6068 20.0769 16.8717 20.2976 18.1117 20.3072C18.8217 20.3072 19.5212 20.3072 20.2313 20.3072C21.5595 20.3072 22.3226 19.7346 22.5204 18.5893V18.5989Z" fill="#169787"/>
<path d="M7.33336 6.52601C6.95184 7.38973 6.57032 8.23426 6.27358 8.91564C6.90945 9.6834 7.47113 10.3456 8.02222 11.0078C7.96923 11.0462 7.92684 11.0941 7.87385 11.1325C8.15999 11.1517 8.44613 11.1613 8.81705 11.1901C8.63689 14.4915 9.37874 17.6201 11.1592 20.5279C8.19178 20.8734 5.48934 19.8274 4.29178 17.217C4.1858 16.9867 3.97385 16.6892 3.7301 16.622C1.2608 15.9214 -0.487837 13.2631 0.126837 10.5183C0.836891 7.33215 2.34178 4.46267 4.73689 2.02505C5.84966 0.883014 7.1426 -0.0478875 8.99722 0.019291C10.3537 0.0672756 11.3075 0.652688 11.8586 1.74674C12.3991 2.812 12.4415 3.92524 11.9964 5.02889C11.4877 6.31488 9.95102 7.01545 8.29776 6.73714C7.99042 6.68916 7.69369 6.60278 7.33336 6.52601Z" fill="#169787"/>
<path d="M27.8299 20.5566C29.6315 17.6104 30.3627 14.501 30.1826 11.19C30.5323 11.1708 30.8184 11.1612 31.1046 11.1421C31.0622 11.1037 31.0198 11.0653 30.9668 11.0269C31.5179 10.3647 32.069 9.69292 32.7261 8.90597C32.4399 8.25338 32.069 7.40885 31.6769 6.52593C31.4013 6.58351 31.1788 6.6315 30.9456 6.67948C28.7413 7.13054 27.1622 6.17084 26.7807 4.14589C26.4309 2.30328 27.4695 0.52785 29.197 0.115182C30.4157 -0.182323 31.5603 0.067197 32.5989 0.690997C34.0508 1.56432 35.1106 2.76393 36.0114 4.09791C37.3361 6.06528 38.3747 8.13822 38.8834 10.4127C39.4981 13.167 37.76 15.9693 35.2377 16.6123C35.047 16.6603 34.8456 16.8714 34.7714 17.0442C33.6587 19.7505 30.9456 20.8254 27.8299 20.5374V20.5566Z" fill="#169787"/>
<path d="M20.528 3.54137C20.5068 3.88685 20.5068 4.21315 20.4538 4.53945C20.369 5.01929 19.9875 5.34559 19.5 5.25922C19.1503 5.20163 18.6628 4.85614 18.6098 4.57783C18.4826 3.89645 18.472 3.16709 18.6098 2.4857C18.6628 2.20739 19.1503 1.8715 19.5 1.79472C19.9981 1.68916 20.369 2.03465 20.4644 2.5049C20.5386 2.85039 20.5174 3.20547 20.5386 3.54137H20.528Z" fill="#169787"/>
<path d="M18.472 28.2343C18.5144 27.8792 18.4508 27.4665 18.631 27.1594C18.79 26.8907 19.2033 26.574 19.5106 26.574C19.818 26.574 20.3373 26.9003 20.3797 27.1403C20.4962 27.86 20.475 28.6182 20.422 29.3475C20.3903 29.7986 19.9663 30.0769 19.4894 29.9713C19.1503 29.8946 18.7794 29.6259 18.6204 29.3475C18.4508 29.0404 18.5144 28.6278 18.472 28.2343Z" fill="#169787"/>
<path d="M15.812 25.6239C15.9497 25.7295 16.3312 25.883 16.4372 26.1421C16.5538 26.4013 16.5114 26.8139 16.3418 27.0442C16.0557 27.4377 15.653 27.8024 15.2185 28.0615C14.9641 28.2151 14.4872 28.2631 14.2223 28.1479C13.9573 28.0327 13.7136 27.668 13.6712 27.3897C13.5864 26.8523 14.9747 25.6335 15.8014 25.6335L15.812 25.6239Z" fill="#169787"/>
<path d="M25.3606 27.3994C25.3606 28.0136 24.587 28.5126 24.0359 28.1767C23.453 27.8216 22.9125 27.3322 22.531 26.8043C22.1707 26.3053 22.7429 25.6239 23.4212 25.6335C24.0359 25.6335 25.3606 26.8523 25.35 27.409L25.3606 27.3994Z" fill="#169787"/>
<path d="M16.5856 5.43197C16.4902 5.55673 16.3525 5.91182 16.1087 5.99819C15.8014 6.10376 15.3139 6.11336 15.0383 5.95021C14.5826 5.68149 14.1693 5.29762 13.8726 4.89455C13.7136 4.67382 13.6818 4.23236 13.8196 4.00203C13.9574 3.77171 14.3707 3.56057 14.678 3.53178C15.2291 3.4838 16.5538 4.75059 16.5856 5.43197Z" fill="#169787"/>
<path d="M23.4954 6.33407C23.0821 6.06536 22.7111 5.9406 22.6052 5.71027C22.478 5.45116 22.478 5.02889 22.637 4.80816C22.9337 4.39549 23.3682 4.04041 23.7921 3.72371C24.216 3.40701 24.7035 3.4262 25.0851 3.81008C25.4666 4.18436 25.4878 4.61622 25.0851 4.9905C24.5976 5.44156 24.0677 5.85423 23.4848 6.33407H23.4954Z" fill="#169787"/>
<path d="M18.5885 18.5702C18.3978 17.4121 17.7266 16.7947 16.575 16.7179V15.1345C17.1366 15.0097 17.8043 15.0385 18.1434 14.741C18.4826 14.4531 18.4826 13.8485 18.6627 13.311H20.4114C20.6516 14.4051 21.3051 14.9809 22.372 15.0385V16.7563C22.0858 16.7563 21.8209 16.7371 21.5559 16.7563C20.9307 16.8139 20.4326 17.073 20.5173 17.7064C20.6233 18.4934 20.2206 18.6565 19.4788 18.5606C19.1926 18.5222 18.9065 18.5606 18.5779 18.5606L18.5885 18.5702Z" fill="#169787"/>
</svg>
