
<svg width="40" height="40" viewBox="0 0 40 40" fill="none" xmlns="http://www.w3.org/2000/svg">
<path d="M25.604 22.4788C24.5979 23.4845 23.5069 24.5751 22.4159 25.6658C21.9058 25.1559 21.3815 24.6318 20.8147 24.0511C21.0414 23.8103 21.2823 23.5553 21.5515 23.272C21.1265 22.9037 20.7297 22.5355 20.2621 22.1105C18.8735 23.1587 17.2157 23.8669 15.317 24.1219V25.8216C15.6854 25.8499 16.0538 25.8641 16.4506 25.8924V28.187H11.7889V25.9066C12.1573 25.8783 12.5115 25.8641 12.9224 25.8358V24.1502C11.1513 23.8952 9.56429 23.3003 8.13319 22.2522C8.01984 22.1672 7.73645 22.1955 7.6231 22.2805C7.25469 22.5496 6.94297 22.8754 6.58874 23.2012C6.91463 23.5411 7.15551 23.7961 7.38222 24.0511C6.82961 24.561 6.27701 25.0709 5.75275 25.5525C4.76089 24.561 3.66985 23.4562 2.57882 22.3513C3.03224 21.8981 3.5565 21.3598 4.12327 20.7933C4.37832 21.0482 4.63337 21.2748 4.93092 21.5723C5.28516 21.1332 5.63939 20.7083 5.95112 20.3258C5.46936 19.2777 4.93092 18.1162 4.40666 16.9547C4.33581 16.7989 4.30747 16.6431 4.26497 16.4731C3.95324 15.1134 3.88239 15.0567 2.36628 15.34V16.4307H0V11.7848H2.3096C2.32377 12.153 2.33794 12.5071 2.36628 12.9462C2.84803 12.9462 3.31562 12.9604 3.78321 12.9321C3.89656 12.9321 4.05243 12.7479 4.08077 12.6205C4.36415 10.8641 5.04428 9.27768 6.13532 7.84709C5.71024 7.43632 5.29933 7.06805 4.87425 6.67145C4.64754 6.88391 4.39249 7.12471 4.16578 7.35134C3.62735 6.79893 3.08891 6.26068 2.57882 5.72244C3.61318 4.70261 4.69005 3.61196 5.79525 2.50714C6.30535 3.01706 6.82961 3.54114 7.39639 4.10771C7.14134 4.37683 6.90046 4.64595 6.64541 4.91508C7.04215 5.32584 7.43889 5.72244 7.84981 6.14737C9.28091 5.05672 10.8679 4.37683 12.6249 4.09355C12.7524 4.07938 12.9224 3.86692 12.9366 3.73944C12.9791 3.31451 12.9508 2.87542 12.9508 2.39383C12.5399 2.3655 12.1714 2.35134 11.7747 2.33717V6.10352e-05H16.4222V2.29468C16.0538 2.30884 15.6996 2.33717 15.2604 2.3655C15.2604 2.84709 15.2462 3.30034 15.2604 3.7536C15.2604 3.86692 15.4162 4.03689 15.5437 4.07938C16.3797 4.33434 17.2441 4.49015 18.0375 4.81593C18.8452 5.1417 19.582 5.62329 20.3755 6.06238C20.7014 5.69411 21.0556 5.28335 21.4665 4.83009C21.3107 4.66012 21.0698 4.41932 20.8431 4.17853C21.3957 3.64029 21.9483 3.11621 22.5009 2.59213C23.5069 3.59779 24.5979 4.68845 25.689 5.7791C25.1647 6.28901 24.6405 6.79893 24.0595 7.3655C23.8186 7.13887 23.5636 6.89808 23.2944 6.64312C23.2235 6.68561 23.1668 6.69978 23.1102 6.74227C22.3923 7.37494 22.2742 8.08788 22.7559 8.88108C23.4927 10.1134 23.932 11.4448 24.1304 12.8896H25.8307C25.8448 12.5071 25.859 12.153 25.8874 11.7706H28.1686V16.4165H25.8874C25.8732 16.0482 25.859 15.7083 25.8307 15.3117H24.1304C23.8753 17.1389 23.2094 18.8244 22.0191 20.3542C22.4584 20.7083 22.8976 21.0624 23.3652 21.4448C23.5069 21.3032 23.762 21.0765 24.0028 20.8499C24.5413 21.4165 25.0655 21.9547 25.5898 22.493L25.604 22.4788ZM14.0843 12.8896C14.0843 10.9491 12.4548 9.3485 10.5278 9.37683C8.60078 9.40516 7.04215 10.9632 7.02798 12.8896C7.01381 14.8018 8.64329 16.4448 10.5561 16.4448C12.469 16.4448 14.0985 14.8159 14.0843 12.8896ZM17.5133 16.6856H15.2462V18.9377H17.5133V16.6856ZM19.8371 11.7706H17.6125V14.0511H19.8371V11.7706Z" fill="#045AFB"/>
<path d="M39.9858 25.2551C39.9291 32.323 34.6439 38.4987 27.6018 39.731C26.2274 39.9718 24.8388 40.1842 23.4643 39.731C21.1406 38.9661 19.6528 36.6715 19.9929 34.3769C20.3754 31.799 22.3591 30.0284 24.938 29.9718C27.7435 29.9151 29.9114 27.7905 29.9822 25.0568C30.0531 22.0823 32.2493 19.9009 35.1399 19.9718C37.9029 20.0426 40.1133 22.3797 39.9858 25.2551ZM25.0088 36.0766C32.1218 36.2041 36.5568 29.5893 36.0467 25.0001H33.8505C33.7513 27.408 32.9436 29.4902 31.2433 31.1899C29.5288 32.9038 27.4318 33.7253 25.023 33.8103V36.0766H25.0088Z" fill="#045AFB"/>
<path d="M34.063 11.119C32.4477 11.1049 31.1016 9.75926 31.13 8.1587C31.1583 6.55813 32.5186 5.22668 34.1197 5.22668C35.735 5.22668 37.0527 6.55813 37.0527 8.17286C37.0527 9.83008 35.7492 11.119 34.063 11.1049V11.119Z" fill="#045AFB"/>
<path d="M12.8941 37.0114C11.2505 37.0114 9.96106 35.7224 9.96106 34.0794C9.96106 32.4646 11.293 31.119 12.8941 31.119C14.5094 31.119 15.8555 32.4646 15.8555 34.1219C15.8555 35.7507 14.5378 37.0255 12.8941 37.0114Z" fill="#045AFB"/>
<path d="M30.5491 2.36548V4.6176H28.2678V2.36548H30.5491Z" fill="#045AFB"/>
<path d="M4.63342 28.2578V30.5383H2.36633V28.2578H4.63342Z" fill="#045AFB"/>
<path d="M33.0004 16.4164V14.1218H35.2249V16.4164H33.0004Z" fill="#045AFB"/>
<path d="M4.70422 37.5638V35.3116H6.92881V37.5638H4.70422Z" fill="#045AFB"/>
<path d="M10.5562 14.0794C9.91859 14.0794 9.35181 13.5129 9.36598 12.8755C9.36598 12.2664 9.91859 11.7282 10.5279 11.714C11.1797 11.714 11.7181 12.2239 11.7323 12.8896C11.7323 13.5412 11.208 14.0794 10.5562 14.0794Z" fill="#045AFB"/>
</svg>
