<svg viewBox="0 0 24 24" xmlns="http://www.w3.org/2000/svg">
         <path
            d="M24 4.61359C24 3.15534 22.8113 1.96827 21.3511 1.96827H19.623C19.5978 0.87818 18.7022 0 17.6053 0C16.5083 0 15.6128 0.87818 15.5876 1.96827H8.41241C8.38723 0.87818 7.49168 0 6.39472 0C5.29777 0 4.40222 0.87818 4.37704 1.96827H2.64888C1.18867 1.96827 0 3.15534 0 4.61359V20.8931C0 22.3514 1.18867 23.5385 2.64888 23.5385H21.3511C22.8113 23.5385 24 22.3514 24 20.8931V4.61359ZM16.4939 5.4774C17.1071 4.86501 18.1052 4.86501 18.7184 5.4774C19.3298 6.08979 19.3298 7.08471 18.7184 7.6971C18.1052 8.30949 17.1071 8.30949 16.4939 7.6971C15.8807 7.08471 15.8807 6.088 16.4939 5.47561V5.4774ZM16.6468 2.01497C16.6468 1.48698 17.0766 1.05777 17.6053 1.05777C18.134 1.05777 18.5638 1.48698 18.5638 2.01497C18.5638 2.62197 18.5638 2.11374 18.5638 4.14307C17.9487 3.90422 17.2618 3.90422 16.6468 4.14307V2.01497ZM5.28158 5.4792C5.90199 4.85962 6.89645 4.8704 7.50607 5.4792C8.11569 6.088 8.11929 7.0883 7.50607 7.70069C6.89285 8.31308 5.8948 8.31308 5.28158 7.70069C4.66837 7.0883 4.66117 6.10057 5.28158 5.48099V5.4792ZM5.43623 2.01497C5.43623 1.48698 5.86603 1.05777 6.39472 1.05777C6.92342 1.05777 7.35321 1.48698 7.35321 2.01497V4.14307C6.72561 3.89704 6.06384 3.89704 5.43444 4.14307V2.01497H5.43623ZM1.06099 4.61359C1.06099 3.739 1.77312 3.02604 2.65068 3.02604H4.37704V4.91889C3.46531 6.01437 3.60737 7.5211 4.53349 8.44597C5.56032 9.47142 7.22913 9.47142 8.25596 8.44597C9.22164 7.48159 9.2666 5.95331 8.41421 4.92068V3.02424H15.5876V4.92068C14.7334 5.95331 14.7784 7.48159 15.744 8.44597C16.7691 9.46962 18.4415 9.47142 19.4665 8.44597C20.434 7.4798 20.4771 5.95151 19.623 4.91889V3.02424H21.3511C22.2269 3.02424 22.9408 3.73541 22.9408 4.61179V10.1521H1.06099V4.61179V4.61359ZM22.9408 20.8931C22.9408 21.7677 22.2287 22.4807 21.3511 22.4807H2.64888C1.77312 22.4807 1.05919 21.7695 1.05919 20.8931V11.2116H22.9408V20.8931Z"
            fill="white" />
         <path
            d="M3.70799 14.3864H20.2918C20.585 14.3864 20.8223 14.1494 20.8223 13.8566C20.8223 13.5639 20.585 13.3269 20.2918 13.3269H3.70799C3.41486 13.3269 3.17749 13.5639 3.17749 13.8566C3.17749 14.1494 3.41486 14.3864 3.70799 14.3864Z"
            fill="white" />
         <path
            d="M3.70799 17.3747H20.2918C20.585 17.3747 20.8223 17.1377 20.8223 16.8449C20.8223 16.5522 20.585 16.3152 20.2918 16.3152H3.70799C3.41486 16.3152 3.17749 16.5522 3.17749 16.8449C3.17749 17.1377 3.41486 17.3747 3.70799 17.3747Z"
            fill="white" />
         <path
            d="M3.70799 20.3647H20.2918C20.585 20.3647 20.8223 20.1277 20.8223 19.8349C20.8223 19.5422 20.585 19.3051 20.2918 19.3051H3.70799C3.41486 19.3051 3.17749 19.5422 3.17749 19.8349C3.17749 20.1277 3.41486 20.3647 3.70799 20.3647Z"
            fill="white" />
      </svg>