 <svg viewBox="0 0 26 24" fill="none" xmlns="http://www.w3.org/2000/svg">
         <path
            d="M22.7571 20.4812L22.3612 20.4891L22.2782 20.8762L21.8251 22.9881L18.9335 20.5989L18.7949 20.4844H18.6151H12.8759C11.33 20.4844 10.0745 19.2315 10.0745 17.683V12.5304C10.0745 10.9845 11.3273 9.72905 12.8759 9.72905H22.6986C24.2443 9.72905 25.5 10.9848 25.5 12.5304V17.683C25.5 19.2087 24.275 20.4508 22.7571 20.4812Z"
            fill="#009585" stroke="white" />
         <path
            d="M17.4516 1H5.13896C2.85113 1 1 2.85113 1 5.13896V11.5951C1 13.8503 2.80876 15.6819 5.05423 15.7275L5.83965 19.3842L10.2589 15.7308H17.4516C19.7361 15.7308 21.5905 13.8797 21.5905 11.5918V5.13896C21.5905 2.85438 19.7394 1 17.4516 1Z"
            fill="#009585" stroke="white" stroke-miterlimit="10" />
         <path d="M7.87328 7.31274H14.3913" stroke="white" stroke-width="2" stroke-miterlimit="10"
            stroke-linecap="round" />
         <path d="M7.87328 10.5718H14.3913" stroke="white" stroke-width="2" stroke-miterlimit="10"
            stroke-linecap="round" />
      </svg>