<svg width="25" height="34" viewBox="0 0 25 34" fill="none" xmlns="http://www.w3.org/2000/svg">
<path d="M23.0296 19.4814L13.7661 33.3184C13.6199 33.5368 13.4336 33.7069 13.2179 33.8228C13.0013 33.939 12.7585 34.0001 12.5 34.0001C12.2416 34.0001 11.9988 33.9391 11.7823 33.8228C11.5667 33.7069 11.3803 33.5368 11.2339 33.3184L1.94575 19.4441L1.94462 19.4449C1.32035 18.4504 0.828644 17.3586 0.495391 16.1958C0.17291 15.0709 0 13.8847 0 12.6614C0 9.16511 1.39925 5.99972 3.66124 3.70852C5.92324 1.41731 9.04828 0 12.5 0C15.9516 0 19.0768 1.41731 21.3388 3.70852C23.6008 5.99972 25 9.16511 25 12.6614C25 13.8846 24.8271 15.0709 24.5046 16.1958C24.1714 17.3586 23.6797 18.4503 23.0554 19.4449C23.0473 19.4577 23.0388 19.4699 23.0296 19.4814ZM13.1325 32.8834L22.3961 19.0464L22.4067 19.0283C22.9955 18.0904 23.4577 17.0659 23.7689 15.9799C24.0698 14.9302 24.2312 13.8166 24.2312 12.6614C24.2312 9.38007 22.9181 6.40935 20.7953 4.25912C18.6724 2.10889 15.7395 0.778761 12.5 0.778761C9.2604 0.778761 6.32755 2.10879 4.20473 4.25902C2.08191 6.40925 0.768739 9.38007 0.768739 12.6614C0.768739 13.8165 0.930122 14.9301 1.23097 15.9798C1.5422 17.0658 2.00443 18.0902 2.59317 19.0282L2.59213 19.0289L11.8674 32.8834C11.9412 32.9936 12.0337 33.0785 12.1396 33.1355C12.2445 33.1919 12.3663 33.2214 12.5 33.2214C12.6336 33.2214 12.7554 33.1919 12.8604 33.1355C12.9661 33.0787 13.0587 32.9937 13.1325 32.8834ZM12.5 4.52126C14.719 4.52126 16.7281 5.43247 18.1824 6.90558C19.6368 8.37869 20.5364 10.4138 20.5364 12.6614C20.5364 14.9091 19.6368 16.9442 18.1824 18.4173C16.7281 19.8904 14.719 20.8015 12.5 20.8015C10.2809 20.8015 8.27179 19.8903 6.81746 18.4173C5.36313 16.9442 4.46353 14.9091 4.46353 12.6614C4.46353 10.4138 5.36313 8.37869 6.81746 6.90558C8.27179 5.43247 10.2809 4.52126 12.5 4.52126ZM17.6391 7.45599C16.324 6.12395 14.507 5.29992 12.5 5.29992C10.4929 5.29992 8.676 6.12395 7.36085 7.45599C6.0457 8.78803 5.23227 10.6286 5.23227 12.6614C5.23227 14.6943 6.04579 16.5348 7.36085 17.8669C8.67591 19.1989 10.493 20.023 12.5 20.023C14.5069 20.023 16.3239 19.1989 17.6391 17.8669C18.9541 16.5349 19.7676 14.6943 19.7676 12.6614C19.7676 10.6286 18.9541 8.78812 17.6391 7.45599Z" fill="white"/>
<path fill-rule="evenodd" clip-rule="evenodd" d="M12.1373 6.05481H13.2296C13.7244 6.05481 14.1292 6.46472 14.1292 6.96593V10.071H17.1949C17.6896 10.071 18.0942 10.4809 18.0942 10.9821V12.0886C18.0942 12.5898 17.6896 12.9996 17.1949 12.9996H14.1292V16.1049C14.1292 16.6061 13.7244 17.016 13.2296 17.016H12.1373C11.6424 17.016 11.2378 16.6061 11.2378 16.1049V12.9996H8.17224C7.67751 12.9996 7.27274 12.5898 7.27274 12.0886V10.9821C7.27274 10.4809 7.67751 10.071 8.17224 10.071H11.2378V6.96593C11.2378 6.46472 11.6424 6.05481 12.1373 6.05481Z" fill="white"/>
</svg>
