<svg width="31" height="29" viewBox="0 0 31 29" fill="none" xmlns="http://www.w3.org/2000/svg">
<path d="M19.5129 12.6978V0H31V9.95329C31 15.3599 30.3612 19.2705 29.0719 21.6852C27.3994 24.9009 24.728 27.3509 21.0809 29L18.4676 24.7595C20.6744 23.8408 22.3121 22.4626 23.3574 20.6487C24.4028 18.8229 24.9835 16.1726 25.1113 12.6978H19.5245H19.5129ZM1.04534 12.6978V0H12.5324V9.95329C12.5324 15.3599 11.8936 19.2705 10.6043 21.6852C8.9202 24.9127 6.2604 27.3509 2.61334 29L0 24.7595C2.20682 23.8408 3.84451 22.4626 4.88985 20.6487C5.93518 18.8229 6.51593 16.1726 6.64369 12.6978H1.05695H1.04534Z" fill="#fee000"/>
</svg>
