<svg width="58" height="55" viewBox="0 0 58 55" fill="none" xmlns="http://www.w3.org/2000/svg">
<g clip-path="url(#clip0_491_2018)">
<path d="M36.9557 0L36.4425 7.45327L44.9115 8.2243L35.9189 16.0836C32.1233 12.9404 27.2523 11.0514 21.9425 11.0514C9.82407 11.0514 0 20.8897 0 33.0257C0 45.1617 9.82407 55 21.9425 55C34.0609 55 43.885 45.1617 43.885 33.0257C43.885 28.8776 42.7352 24.9967 40.7386 21.6864L49.7876 14.1355L49.2743 22.6168H56.4602L58 1.54206L36.9557 0ZM21.9425 44.5911C15.565 44.5911 10.3938 39.4124 10.3938 33.0257C10.3938 26.639 15.565 21.4603 21.9425 21.4603C28.3199 21.4603 33.4911 26.639 33.4911 33.0257C33.4911 39.4124 28.3199 44.5911 21.9425 44.5911Z" fill="#009996"/>
</g>
<defs>
<clipPath id="clip0_491_2018">
<rect width="58" height="55" fill="white"/>
</clipPath>
</defs>
</svg>
