<svg width="44" height="69" viewBox="0 0 44 69" fill="none" xmlns="http://www.w3.org/2000/svg">
<path d="M44 22.2203C44 9.94847 34.1502 0 22 0C9.84982 0 0 9.94847 0 22.2203C0 33.0706 7.70129 42.0991 17.883 44.0457V49.887H10.1637V57.1638H17.883V66H26.117V57.1638H33.8363V49.887H26.117V44.0457C36.2987 42.0991 44 33.0706 44 22.2203ZM10.1637 22.2203C10.1637 15.6166 15.4618 10.2655 22 10.2655C28.5382 10.2655 33.8363 15.6166 33.8363 22.2203C33.8363 28.8241 28.5382 34.1751 22 34.1751C15.4618 34.1751 10.1637 28.8241 10.1637 22.2203Z" fill="#009996"/>
</svg>
