<svg width="18" height="24" viewBox="0 0 18 24" fill="none" xmlns="http://www.w3.org/2000/svg">
<g clip-path="url(#clip0_491_3512)">
<path d="M8.8784 23.9999C6.31447 19.8812 3.68089 15.9765 1.40202 11.8801C-0.222499 8.95918 0.227767 5.90727 2.3139 3.26261C4.48425 0.509351 7.43851 -0.531906 10.8706 0.255425C14.2654 1.03477 16.405 3.23706 17.197 6.60038C17.678 8.64776 17.3897 10.6392 16.2641 12.4423C13.9479 16.1569 11.5897 19.8461 9.24768 23.5448C9.17965 23.6518 9.08733 23.7428 8.8784 23.9999ZM8.96748 11.9903C10.9969 11.9871 12.67 10.3438 12.6765 8.34592C12.6814 6.34326 11.0228 4.68555 8.99825 4.66639C6.93966 4.64723 5.23577 6.3241 5.24711 8.3571C5.25845 10.355 6.93642 11.9935 8.96748 11.9903Z" fill="white"/>
</g>
<defs>
<clipPath id="clip0_491_3512">
<rect width="17" height="24" fill="white" transform="translate(0.418945)"/>
</clipPath>
</defs>
</svg>
