<svg width="38" height="54" viewBox="0 0 38 54" fill="none" xmlns="http://www.w3.org/2000/svg">
<path d="M18.9091 54C13.178 44.7329 7.29118 35.9473 2.19724 26.7305C-1.43405 20.1584 -0.427569 13.2916 4.23554 7.34112C9.08691 1.14628 15.6906 -1.19654 23.3623 0.57495C30.9507 2.32848 35.7333 7.28363 37.5036 14.8511C38.5789 19.4577 37.9345 23.9385 35.4183 27.9954C30.2411 36.3534 24.9697 44.6539 19.7346 52.9759C19.5825 53.2167 19.3762 53.4215 18.9091 54ZM19.1083 26.9785C23.6446 26.9713 27.3846 23.2738 27.399 18.7786C27.4099 14.2726 23.7026 10.5427 19.177 10.4996C14.5755 10.4565 10.7668 14.2295 10.7921 18.8037C10.8175 23.2989 14.5682 26.9856 19.1083 26.9785Z" fill="#009996"/>
</svg>
