<svg width="25" height="36" viewBox="0 0 25 36" fill="none" xmlns="http://www.w3.org/2000/svg">
<path d="M24.0787 11.5932C24.0787 5.19051 18.8404 0 12.3787 0C5.91703 0 0.678711 5.19051 0.678711 11.5932C0.678711 17.2542 4.77439 21.9647 10.1892 22.9803V27.5932H6.08397V31.3898H10.1892V36H14.5682V31.3898H18.6734V27.5932H14.5682V22.9803C19.983 21.9647 24.0787 17.2542 24.0787 11.5932ZM6.08397 11.5932C6.08397 8.1478 8.90155 5.35593 12.3787 5.35593C15.8559 5.35593 18.6734 8.1478 18.6734 11.5932C18.6734 15.0386 15.8559 17.8305 12.3787 17.8305C8.90155 17.8305 6.08397 15.0386 6.08397 11.5932Z" fill="#FFD84E"/>
</svg>
