<svg width="25" height="30" viewBox="0 0 25 30" fill="none" xmlns="http://www.w3.org/2000/svg">
<path d="M0 13.5686V29.9999H3.5C5.15685 29.9999 6.5 28.6568 6.5 26.9999V16.5682C6.5 15.7273 6.85294 14.925 7.47283 14.3568L11.8243 10.3679C12.2066 10.0175 12.7934 10.0175 13.1757 10.3679L17.5272 14.3568C18.1471 14.925 18.5 15.7273 18.5 16.5682V26.9999C18.5 28.6568 19.8431 29.9999 21.5 29.9999H24.6788V13.5983C24.6788 12.5244 24.2448 11.496 23.4754 10.7467L13.8698 1.39207C12.934 0.480745 11.4397 0.490263 10.5156 1.41344L1.16724 10.7526C0.41991 11.4991 0 12.5122 0 13.5686Z" fill="white"/>
</svg>
