<svg width="29" height="28" viewBox="0 0 29 28" fill="none" xmlns="http://www.w3.org/2000/svg">
<path d="M18.3394 0.932861L18.0857 4.60082L22.2705 4.98027L17.827 8.84807C15.9515 7.3012 13.5446 6.37157 10.9209 6.37157C4.93293 6.37157 0.0786133 11.2133 0.0786133 17.1857C0.0786133 23.1582 4.93293 27.9999 10.9209 27.9999C16.9089 27.9999 21.7632 23.1582 21.7632 17.1857C21.7632 15.1443 21.1951 13.2345 20.2085 11.6054L24.6799 7.88934L24.4263 12.0632H27.977L28.7378 1.69175L18.3394 0.932861ZM10.9209 22.8774C7.76968 22.8774 5.21445 20.3288 5.21445 17.1857C5.21445 14.0427 7.76968 11.4941 10.9209 11.4941C14.0722 11.4941 16.6274 14.0427 16.6274 17.1857C16.6274 20.3288 14.0722 22.8774 10.9209 22.8774Z" fill="white"/>
</svg>
