<svg width="27" height="44" viewBox="0 0 27 44" fill="none" xmlns="http://www.w3.org/2000/svg">
<path d="M4.94232 6.10754C5.5462 7.67897 6.05474 9.3314 6.78576 10.8704C8.67687 14.7747 11.156 18.2902 13.8735 21.6112C18.053 26.6981 22.3596 31.6878 26.6186 36.7099C26.7298 36.8395 26.8411 36.9853 26.9841 37.1473C25.5221 39.4316 24.06 41.6834 22.5503 44.0162C21.4697 42.704 20.4208 41.489 19.4038 40.2416C15.8122 35.7865 12.1572 31.38 8.69276 26.8115C6.80165 24.3167 5.24426 21.5788 3.59152 18.922C2.55856 17.2533 2.33608 15.4065 2.62213 13.4463C2.95586 11.1134 3.55974 8.89399 4.56092 6.78796C4.68805 6.52875 4.83108 6.26955 4.91053 6.12374L4.94232 6.10754Z" fill="#009585"/>
<path d="M21.8352 5.60535C22.2961 6.65837 22.8682 7.67898 23.186 8.7644C23.6786 10.4654 24.06 12.1989 24.3779 13.9485C24.6798 15.6981 24.2825 17.3668 23.3926 18.8896C22.0259 21.19 20.6274 23.4743 19.1654 25.9043C17.4014 23.6849 15.7646 21.6436 14.1436 19.5862C17.1313 15.1635 20.2778 10.919 21.8511 5.60535H21.8352Z" fill="#009585"/>
<path d="M18.7045 9.34752C14.2231 7.38728 12.7292 7.41968 7.80282 9.60672C6.99234 7.75989 6.24543 5.91305 6.62683 3.82321C6.6904 3.46681 6.8811 3.078 7.11947 2.8026C10.4408 -0.939673 16.4956 -0.972073 19.8169 2.7864C20.1666 3.1752 20.3096 3.85561 20.3255 4.40642C20.3255 5.68625 19.4673 8.13249 18.7045 9.34752Z" fill="#009585"/>
<path d="M4.41789 44C2.90818 41.6672 1.46204 39.4153 0 37.1797C2.55856 34.1179 5.10124 31.0722 7.69158 27.9941C9.29665 30.0678 10.9017 32.1252 12.5386 34.2151C9.85285 37.4551 7.16716 40.6952 4.41789 44.0162V44Z" fill="#009585"/>
</svg>
