<svg width="33" height="31" viewBox="0 0 33 31" fill="none" xmlns="http://www.w3.org/2000/svg">
<path d="M13.9502 18.6046V31H2.75378V21.2838C2.75378 16.006 3.37707 12.1884 4.63497 9.83125C6.27817 6.68066 8.87329 4.30047 12.4317 2.69067L14.9815 6.83014C12.8283 7.72702 11.2304 9.07235 10.2105 10.8431C9.1906 12.6254 8.62398 15.2126 8.49932 18.6046H13.9502ZM31.9801 18.6046V31H20.7723V21.2838C20.7723 16.006 21.3956 12.1884 22.6535 9.83125C24.2967 6.68066 26.8918 4.30047 30.4502 2.69067L33 6.83014C30.8468 7.72702 29.249 9.07235 28.2291 10.8431C27.2091 12.6254 26.6425 15.2126 26.5179 18.6046H31.9688H31.9801Z" fill="#F7E100"/>
<path d="M11.2078 15.9139V28.3093H0V18.5931C0 13.3153 0.623283 9.49778 1.88118 7.14058C3.51305 4.00148 6.1195 1.60979 9.67788 0L12.2277 4.13947C10.0745 5.03635 8.47665 6.38168 7.45673 8.15245C6.43681 9.93472 5.87019 12.5219 5.74554 15.9139H11.1964H11.2078ZM29.2263 15.9139V28.3093H18.0185V18.5931C18.0185 13.3153 18.6418 9.49778 19.8997 7.14058C21.5429 3.98999 24.138 1.60979 27.6964 0L30.2462 4.13947C28.0931 5.03635 26.4952 6.38168 25.4753 8.15245C24.4554 9.93472 23.8887 12.5219 23.7641 15.9139H29.215H29.2263Z" fill="white"/>
</svg>
