<svg width="38" height="51" viewBox="0 0 38 51" fill="none" xmlns="http://www.w3.org/2000/svg">
<path d="M37.8812 21.6736C37.8812 25.6666 37.9661 29.6596 37.8643 33.6526C37.6607 40.58 34.4711 45.223 28.516 47.5631C25.8184 48.6217 23.1717 49.7732 20.4572 50.7389C19.6598 51.0175 18.6418 51.1104 17.8614 50.8318C14.6209 49.6432 11.3465 48.4917 8.24169 46.9317C2.91438 44.2573 0.0810596 39.5957 0.0301617 33.1512C-0.0377022 25.128 0.0301617 17.1049 0.0301617 9.10032C0.0301617 7.70742 0.437345 7.15025 1.65889 6.83453C4.22076 6.16593 5.84949 4.47587 6.46026 1.65292C6.69779 0.520018 7.2407 0 8.29259 0C15.4692 0 22.6458 0 29.8224 0C30.7046 0 31.3154 0.464302 31.5699 1.37433C32.3843 4.19729 34.0639 6.0545 36.6936 6.89024C37.7116 7.20597 38 8.116 38 9.19318C38 12.0161 38 14.8205 38 17.6435C38 18.9807 38 20.3364 38 21.6736C37.9661 21.6736 37.9321 21.6736 37.8982 21.6736H37.8812ZM30.3483 21.7108C30.3314 21.4322 30.3314 20.9122 30.2466 20.3921C29.3304 15.0991 24.1558 12.3133 19.6598 14.7277C19.1678 14.9877 18.7945 15.0434 18.2855 14.7277C16.7416 13.7805 15.0281 13.5762 13.3315 14.0034C7.80058 15.3777 5.67983 22.7137 9.20875 27.0224C10.9902 29.2139 12.9413 31.2568 14.8245 33.3555C15.7746 34.3955 16.7077 35.4541 17.7087 36.4384C18.7436 37.4413 19.6428 37.3485 20.6099 36.2527C21.1019 35.6955 21.543 35.0641 22.052 34.5069C24.0709 32.2783 26.1069 30.0682 28.1258 27.8396C29.6018 26.2052 30.3483 24.2366 30.3653 21.6922L30.3483 21.7108Z" fill="#00B4CF"/>
<path d="M19.5441 32.981C17.3233 30.3647 15.1507 27.881 13.0426 25.3025C11.6103 23.5393 11.6747 20.9609 13.1069 19.2735C14.507 17.624 16.5991 17.5671 18.1601 19.1597C19.0935 20.1077 19.7855 20.1077 20.7028 19.1976C22.3443 17.5671 24.5329 17.6619 25.9652 19.4631C27.3814 21.2263 27.3492 23.7479 25.8365 25.568C23.7766 28.0516 21.6845 30.4784 19.528 33L19.5441 32.981Z" fill="#00B4CF"/>
</svg>
