<svg width="39" height="39" viewBox="0 0 39 39" fill="none" xmlns="http://www.w3.org/2000/svg">
<path d="M24.9639 21.9168C23.983 22.8973 22.9192 23.9607 21.8555 25.0241C21.3581 24.5269 20.847 24.0159 20.2944 23.4497C20.5154 23.2149 20.7503 22.9664 21.0128 22.6902C20.5983 22.3311 20.2115 21.972 19.7556 21.5577C18.4017 22.5797 16.7853 23.2702 14.9341 23.5188V25.176C15.2933 25.2036 15.6525 25.2174 16.0393 25.245V27.4823H11.4942V25.2589C11.8533 25.2312 12.1987 25.2174 12.5994 25.1898V23.5464C10.8725 23.2978 9.32519 22.7178 7.92986 21.6958C7.81934 21.613 7.54304 21.6406 7.43252 21.7234C7.07333 21.9858 6.76939 22.3035 6.42402 22.6211C6.74176 22.9525 6.97662 23.2011 7.19766 23.4497C6.65887 23.9469 6.12009 24.4441 5.60893 24.9136C4.64187 23.9469 3.57811 22.8697 2.51435 21.7925C2.95643 21.3506 3.46759 20.8258 4.02019 20.2734C4.26886 20.522 4.51753 20.7429 4.80765 21.0329C5.15303 20.6048 5.49841 20.1905 5.80234 19.8176C5.33262 18.7957 4.80765 17.6632 4.29649 16.5308C4.22742 16.3789 4.19979 16.227 4.15834 16.0613C3.85441 14.7355 3.78533 14.6802 2.30712 14.9564V16.0198H0V11.4901H2.25186C2.26567 11.8491 2.27949 12.1944 2.30712 12.6225C2.77683 12.6225 3.23273 12.6363 3.68863 12.6087C3.79915 12.6087 3.95112 12.4292 3.97875 12.3049C4.25505 10.5924 4.91817 9.04568 5.98193 7.65085C5.56748 7.25035 5.16684 6.89129 4.75239 6.5046C4.53135 6.71176 4.28268 6.94653 4.06164 7.16749C3.53666 6.6289 3.01169 6.10411 2.51435 5.57932C3.52285 4.58499 4.5728 3.5216 5.65037 2.44441C6.14772 2.94157 6.65887 3.45255 7.21148 4.00496C6.96281 4.26735 6.72795 4.52975 6.47928 4.79214C6.8661 5.19263 7.25292 5.57932 7.65356 5.99363C9.04888 4.93024 10.5962 4.26735 12.3092 3.99115C12.4336 3.97734 12.5994 3.77018 12.6132 3.64589C12.6546 3.23159 12.627 2.80347 12.627 2.33392C12.2264 2.3063 11.8672 2.29249 11.4803 2.27868V0H16.0117V2.23725C15.6525 2.25106 15.3071 2.27868 14.8789 2.3063C14.8789 2.77585 14.865 3.21778 14.8789 3.6597C14.8789 3.77018 15.0308 3.93591 15.1552 3.97734C15.9702 4.22592 16.813 4.37783 17.5866 4.69547C18.3741 5.0131 19.0925 5.48265 19.8661 5.91077C20.1838 5.5517 20.5292 5.1512 20.9299 4.70928C20.7779 4.54356 20.543 4.30878 20.322 4.07401C20.8608 3.54922 21.3996 3.03824 21.9384 2.52727C22.9192 3.50779 23.983 4.57118 25.0468 5.63456C24.5356 6.13173 24.0244 6.6289 23.458 7.1813C23.2232 6.96034 22.9745 6.72557 22.712 6.47698C22.6429 6.51841 22.5877 6.53222 22.5324 6.57365C21.8324 7.19051 21.7173 7.88562 22.187 8.65899C22.9054 9.86048 23.3337 11.1586 23.5271 12.5673H25.1849C25.1987 12.1944 25.2125 11.8492 25.2402 11.4763H27.4644V16.006H25.2402C25.2264 15.647 25.2125 15.3155 25.1849 14.9288H23.5271C23.2784 16.7103 22.6291 18.3538 21.4687 19.8453C21.8969 20.1905 22.3252 20.5358 22.7811 20.9086C22.9192 20.7705 23.1679 20.5496 23.4028 20.3286C23.9277 20.881 24.4389 21.4058 24.9501 21.9306L24.9639 21.9168ZM13.7322 12.5673C13.7322 10.6753 12.1435 9.11473 10.2646 9.14235C8.38576 9.16997 6.8661 10.6891 6.85228 12.5673C6.83847 14.4317 8.4272 16.0336 10.2922 16.0336C12.1573 16.0336 13.746 14.4455 13.7322 12.5673ZM17.0755 16.2684H14.865V18.4642H17.0755V16.2684ZM19.3411 11.4763H17.1722V13.6997H19.3411V11.4763Z" fill="#1952A0"/>
<path d="M38.9862 24.6235C38.931 31.5148 33.7779 37.5361 26.9118 38.7376C25.5718 38.9723 24.2179 39.1795 22.8778 38.7376C20.6121 37.9918 19.1616 35.7546 19.4931 33.5173C19.8661 31.0039 21.8002 29.2776 24.3146 29.2223C27.05 29.1671 29.1637 27.0956 29.2328 24.4302C29.3018 21.5301 31.4432 19.4033 34.2615 19.4723C36.9554 19.5414 39.1105 21.8201 38.9862 24.6235ZM24.3837 35.1745C31.3188 35.2988 35.643 28.8495 35.1456 24.375H33.0043C32.9076 26.7227 32.1201 28.7528 30.4623 30.41C28.7907 32.081 26.746 32.882 24.3975 32.9649V35.1745H24.3837Z" fill="#1952A0"/>
<path d="M33.2115 10.841C31.6366 10.8272 30.3241 9.51521 30.3517 7.95466C30.3794 6.39411 31.7056 5.09595 33.2667 5.09595C34.8417 5.09595 36.1265 6.39411 36.1265 7.96847C36.1265 9.58426 34.8555 10.841 33.2115 10.8272V10.841Z" fill="#1952A0"/>
<path d="M12.5718 36.0861C10.9692 36.0861 9.71204 34.8294 9.71204 33.2274C9.71204 31.653 11.0107 30.3411 12.5718 30.3411C14.1467 30.3411 15.4591 31.653 15.4591 33.2688C15.4591 34.857 14.1743 36.0999 12.5718 36.0861Z" fill="#1952A0"/>
<path d="M29.7853 2.30627V4.5021H27.5611V2.30627H29.7853Z" fill="#1952A0"/>
<path d="M4.51754 27.5514V29.7748H2.30713V27.5514H4.51754Z" fill="#1952A0"/>
<path d="M32.1754 16.0061V13.7688H34.3443V16.0061H32.1754Z" fill="#1952A0"/>
<path d="M4.58661 36.6247V34.4288H6.75558V36.6247H4.58661Z" fill="#1952A0"/>
<path d="M10.2923 13.7273C9.67057 13.7273 9.11797 13.1749 9.13178 12.5535C9.13178 11.9596 9.67057 11.4348 10.2646 11.421C10.9001 11.421 11.4251 11.9182 11.4389 12.5673C11.4389 13.2025 10.9277 13.7273 10.2923 13.7273Z" fill="#1952A0"/>
</svg>
