<svg width="50" height="49" viewBox="0 0 44 49" fill="none" xmlns="http://www.w3.org/2000/svg">
<path d="M21.7082 20.393C22.1751 18.869 22.6679 17.3579 23.1217 15.834C23.9257 13.1476 25.9876 11.5978 28.8017 11.5849C30.7728 11.5849 32.7309 11.5849 34.702 11.5849C37.2697 11.5849 39.4353 13.0055 40.2264 15.4336C41.5102 19.3727 42.7032 23.3506 43.8963 27.3284C44.2205 28.4133 43.7147 29.2915 42.6773 29.6144C41.7177 29.9114 40.7969 29.4723 40.4598 28.4004C39.4094 25.0683 38.4238 21.7233 37.4123 18.3912C37.3605 18.2103 37.3605 17.9779 37.2437 17.8616C37.0363 17.6421 36.751 17.4871 36.4916 17.2934C36.349 17.5646 36.0637 17.8745 36.1026 18.1199C36.4138 19.7602 36.8028 21.3745 37.1789 23.0019C38.0218 26.6827 38.8647 30.3506 39.6947 34.0314C39.9411 35.1033 39.7725 35.2841 38.6313 35.2841C38.0996 35.2841 37.555 35.2841 36.9066 35.2841C36.8936 35.6716 36.8547 36.0074 36.8547 36.3303C36.8547 39.714 36.8547 43.0849 36.8547 46.4686C36.8547 48.0572 36.0377 48.9483 34.6372 48.9354C33.2756 48.9354 32.4586 47.9797 32.4586 46.4041C32.4586 43.0849 32.4586 39.7786 32.4586 36.4594C32.4586 36.1107 32.4586 35.7749 32.4586 35.3616H31.1099C31.084 35.7103 31.0451 36.072 31.0451 36.4465C31.0451 39.7915 31.0451 43.1365 31.0451 46.4945C31.0451 47.9668 30.2152 48.8967 28.9702 48.9484C27.5438 49 26.5971 48.0443 26.5971 46.4945C26.5971 43.1495 26.5971 39.8044 26.5971 36.4465C26.5971 36.1107 26.5971 35.762 26.5971 35.2971C25.9487 35.2971 25.3911 35.2971 24.8335 35.2971C23.7442 35.2971 23.5367 35.0517 23.7701 33.9797C24.0814 32.5074 24.4315 31.0351 24.7816 29.5627C25.6634 25.7915 26.5582 22.0332 27.4141 18.262C27.4789 17.9779 27.1677 17.6033 27.038 17.2675C26.7657 17.4742 26.3378 17.6292 26.26 17.9004C25.1966 21.2971 24.1851 24.6937 23.1736 28.1033C22.8753 29.1365 22.2788 29.7306 21.384 29.7565C20.5022 29.7823 19.789 29.1882 19.5426 28.1679C18.7645 24.8358 18.0124 21.4908 17.2473 18.1458C17.1824 17.8358 17.1435 17.5 17.0009 17.2417C16.8842 17.0221 16.6119 16.8801 16.4173 16.6993C16.2617 16.9317 16.0413 17.1513 15.9505 17.4225C15.8727 17.6808 15.9246 17.9908 15.9246 18.2749C15.9246 27.7159 15.9246 37.1568 15.9246 46.5978C15.9246 47.7602 15.3799 48.5996 14.4592 48.8838C13.5774 49.1679 12.4881 48.8838 12.0083 48.096C11.723 47.6181 11.5674 46.9852 11.5544 46.417C11.5155 41.393 11.5414 36.369 11.5414 31.3579C11.5414 31.0222 11.5414 30.6734 11.5414 30.3635C10.2057 30.0277 10.102 30.0923 10.102 31.2805C10.102 36.3303 10.102 41.3801 10.102 46.4428C10.102 48.0314 9.27204 48.9483 7.91042 48.9613C6.71737 48.9613 5.79665 48.1476 5.67994 46.9594C5.65401 46.6495 5.67994 46.3266 5.67994 46.0166C5.67994 36.6661 5.67994 27.3284 5.66697 17.9779C5.66697 17.5388 5.96524 16.8155 5.20013 16.7897C4.97968 16.7897 4.57767 17.5775 4.53877 18.0295C4.24051 21.3616 4.00709 24.6937 3.74773 28.0258C3.64399 29.3561 2.77514 30.2472 1.68584 30.1439C0.518727 30.0406 -0.0907627 29.0203 0.0389161 27.6255C0.298274 24.952 0.492792 22.2786 0.713246 19.6181C0.816989 18.3912 0.86886 17.1642 1.08931 15.9502C1.621 13.0572 4.00709 11.0554 6.95079 10.9908C9.25908 10.9391 11.5803 10.965 13.8886 10.965C17.5455 10.965 19.6463 12.631 20.5022 16.1827C20.8394 17.5904 21.1636 18.9982 21.4878 20.4059C21.5656 20.4059 21.6304 20.4059 21.7082 20.4059V20.393Z" fill="#169787"/>
<path d="M15.7559 4.94649C15.743 7.65867 13.4736 9.88007 10.7633 9.82841C8.01413 9.77675 5.82256 7.55535 5.84849 4.85609C5.86146 2.131 8.07897 0 10.8541 0C13.6163 0 15.7689 2.18266 15.7559 4.94649Z" fill="#169787"/>
<path d="M31.7972 10.4741C29.0221 10.4741 26.8435 8.30438 26.8435 5.56637C26.8435 2.88002 29.1129 0.619873 31.7972 0.619873C34.4816 0.619873 36.751 2.89294 36.751 5.57928C36.751 8.30438 34.5464 10.4741 31.7843 10.4741H31.7972Z" fill="#169787"/>
</svg>
