<svg width="21" height="21" viewBox="0 0 21 21" fill="none" xmlns="http://www.w3.org/2000/svg">
<path d="M10.5924 20.5235C8.00092 20.5235 5.40515 20.5235 2.81366 20.5235C1.71644 20.5235 0.862577 19.816 0.657649 18.7398C0.632033 18.6155 0.632034 18.4868 0.632034 18.3625C0.632034 13.5988 0.632034 8.83945 0.632034 4.07577C0.632034 2.85377 1.57129 1.91904 2.79232 1.91476C3.65045 1.91476 4.51285 1.91047 5.37099 1.91476C5.5503 1.91476 5.62715 1.86759 5.61434 1.67464C5.60154 1.50313 5.60581 1.33162 5.61434 1.16011C5.63142 0.761356 5.9431 0.478365 6.34868 0.482653C6.73719 0.482653 7.04458 0.778506 7.06166 1.1644C7.07019 1.34449 7.07446 1.52028 7.06166 1.70037C7.05312 1.87188 7.12143 1.91904 7.28367 1.91476C7.8088 1.90618 8.33391 1.91476 8.8633 1.91476C10.5283 1.91476 12.1977 1.91476 13.8627 1.91904C14.0847 1.91904 14.1744 1.8633 14.1487 1.63177C14.1317 1.47741 14.1402 1.31876 14.1487 1.1644C14.1658 0.765643 14.4775 0.482653 14.8831 0.486941C15.2716 0.486941 15.579 0.782795 15.5961 1.16869C15.6046 1.3402 15.6089 1.51171 15.5961 1.68322C15.579 1.87617 15.6601 1.92333 15.8394 1.91904C16.6847 1.91047 17.5301 1.91476 18.3754 1.91904C19.6562 1.91904 20.5784 2.84519 20.5784 4.12723C20.5784 8.86088 20.5784 13.5945 20.5784 18.3239C20.5784 19.6059 19.6519 20.5278 18.3711 20.5278C15.7796 20.5278 13.1839 20.5278 10.5924 20.5278V20.5235ZM10.6052 7.66032C7.86429 7.66032 5.12337 7.66032 2.38245 7.66032C2.18322 7.66032 2.08362 7.75608 2.08362 7.9476C2.08362 11.3563 2.08362 14.7651 2.08362 18.1696C2.08362 18.7913 2.34404 19.0571 2.95883 19.0571C8.05642 19.0571 13.154 19.0571 18.2516 19.0571C18.8664 19.0571 19.1268 18.7913 19.1268 18.1696C19.1268 14.7694 19.1268 11.3692 19.1268 7.96904C19.1268 7.76323 19.0201 7.66032 18.8066 7.66032C16.0742 7.66032 13.3376 7.66032 10.6052 7.66032ZM10.6052 6.1982C13.3461 6.1982 16.087 6.1982 18.8279 6.1982C19.0272 6.1982 19.1268 6.0953 19.1268 5.88948C19.1268 5.3235 19.1268 4.75752 19.1268 4.19154C19.1268 3.65986 18.845 3.37259 18.3156 3.37259C13.1753 3.37259 8.03506 3.37259 2.8905 3.37259C2.36111 3.37259 2.08362 3.65558 2.07935 4.19154C2.07935 4.7661 2.07935 5.33637 2.07935 5.91092C2.07935 6.10244 2.17894 6.1982 2.37818 6.1982C5.11909 6.1982 7.86001 6.1982 10.6009 6.1982H10.6052Z" fill="white"/>
</svg>
