<svg width="18" height="27" viewBox="0 0 18 27" fill="none" xmlns="http://www.w3.org/2000/svg">
<path d="M17.8184 9.04381C17.8184 4.25441 13.959 0.36972 9.19011 0.36972C4.42126 0.36972 0.578857 4.25441 0.578857 9.04381C0.578857 13.413 3.81502 17.0276 8.00751 17.6278V20.4835H5.98811C5.30502 20.4835 4.77135 21.0109 4.77135 21.6969C4.77135 22.3872 5.30502 22.9489 5.98811 22.9489H8.00751V25.4015C8.00751 26.0875 8.5241 26.6407 9.20719 26.6407C9.89028 26.6407 10.4069 26.0875 10.4069 25.4015V22.9489H12.4092C13.088 22.9489 13.643 22.3915 13.643 21.7055C13.643 21.0237 13.088 20.4792 12.4092 20.4792H10.4069V17.6236C14.6591 17.0233 17.8227 13.4087 17.8227 9.03952L17.8184 9.04381ZM9.19438 15.2396C5.79172 15.2396 3.02519 12.4611 3.02519 9.04381C3.02519 5.62648 5.79172 2.84803 9.19438 2.84803C12.597 2.84803 15.3636 5.62648 15.3636 9.04381C15.3636 12.4611 12.597 15.2396 9.19438 15.2396Z" fill="white"/>
</svg>
