<svg width="31" height="31" viewBox="0 0 31 31" fill="none" xmlns="http://www.w3.org/2000/svg">
<g clip-path="url(#clip0_2_6)">
<path d="M13.5743 9.20772C15.8944 9.20772 17.7751 7.32694 17.7751 5.00688C17.7751 2.68681 15.8944 0.80603 13.5743 0.80603C11.2542 0.80603 9.37344 2.68681 9.37344 5.00688C9.37344 7.32694 11.2542 9.20772 13.5743 9.20772Z" fill="#005750"/>
<path d="M8.17128 19.6266C8.47745 19.3114 8.45043 18.7981 8.10824 18.4784C8.01369 18.3884 7.90112 18.3254 7.78406 18.2848C7.78406 18.2848 7.77956 18.2848 7.77506 18.2848C7.77506 18.2848 7.77055 18.2848 7.76605 18.2803C7.75704 18.2803 7.75254 18.2713 7.74354 18.2668C7.73453 18.2623 7.72553 18.2578 7.72102 18.2533C7.71202 18.2488 7.70301 18.2443 7.69401 18.2398C7.685 18.2353 7.676 18.2308 7.667 18.2263C7.65799 18.2218 7.64898 18.2173 7.63998 18.2083C7.63097 18.2038 7.62197 18.1948 7.61296 18.1903C7.60396 18.1858 7.59495 18.1768 7.58145 18.1723C7.57244 18.1678 7.55893 18.1588 7.54993 18.1543C7.54092 18.1453 7.52742 18.1408 7.51841 18.1363C7.50941 18.1273 7.4959 18.1228 7.48689 18.1137C7.47789 18.1047 7.46438 18.1002 7.45087 18.0912C7.43737 18.0822 7.42836 18.0777 7.41485 18.0687C7.40135 18.0597 7.39234 18.0507 7.37883 18.0462C7.36533 18.0372 7.35632 18.0282 7.34281 18.0237C7.32931 18.0147 7.3158 18.0057 7.30679 17.9967C7.29329 17.9877 7.27978 17.9787 7.26627 17.9697C7.25276 17.9607 7.23926 17.9517 7.22575 17.9427C7.21224 17.9336 7.19873 17.9246 7.18523 17.9156C7.17172 17.9066 7.15821 17.8976 7.1447 17.8886C7.1312 17.8796 7.11769 17.8706 7.10418 17.8616C7.09067 17.8526 7.07717 17.8391 7.05915 17.8301C7.04565 17.8211 7.03214 17.8076 7.01413 17.7986C7.00062 17.7896 6.98261 17.7761 6.9691 17.7671C6.9556 17.758 6.93759 17.7445 6.92408 17.7355C6.91507 17.7265 6.90157 17.722 6.89256 17.713C6.87905 17.6995 6.86104 17.6905 6.84303 17.6815C6.82502 17.668 6.81152 17.659 6.79351 17.6455C6.7755 17.632 6.76199 17.623 6.74398 17.6095C6.72597 17.596 6.71246 17.587 6.69445 17.5734C6.67644 17.5599 6.66293 17.5464 6.64492 17.5374C6.62691 17.5239 6.6089 17.5104 6.5954 17.5014C6.57739 17.4879 6.55938 17.4744 6.54137 17.4654C6.52336 17.4519 6.50535 17.4384 6.48734 17.4249C6.46933 17.4114 6.45132 17.3978 6.43331 17.3843C6.4153 17.3708 6.39728 17.3573 6.37928 17.3438C6.36127 17.3303 6.34326 17.3168 6.32524 17.3033C6.30723 17.2898 6.28923 17.2763 6.27121 17.2628C6.2532 17.2493 6.23519 17.2358 6.21718 17.2222C6.19917 17.2087 6.18116 17.1952 6.16315 17.1817C6.14514 17.1682 6.12713 17.1502 6.10462 17.1367C6.08661 17.1232 6.0686 17.1052 6.04609 17.0917C6.02808 17.0782 6.01007 17.0602 5.98756 17.0466C5.96955 17.0286 5.95154 17.0151 5.92902 17.0016C5.91101 16.9836 5.8885 16.9701 5.87049 16.9566C5.85248 16.9386 5.82997 16.9251 5.81196 16.9116C5.79395 16.8936 5.77144 16.8801 5.75343 16.8665C5.73541 16.8485 5.7129 16.835 5.69489 16.8215C5.67688 16.8035 5.65437 16.79 5.63636 16.772C5.61835 16.754 5.59584 16.7405 5.57783 16.7225C5.55982 16.7045 5.5373 16.691 5.51929 16.6729C5.50128 16.6549 5.47877 16.6369 5.46076 16.6234C5.44275 16.6054 5.42024 16.5874 5.39773 16.5739C5.37972 16.5559 5.3572 16.5379 5.33469 16.5244C5.31668 16.5063 5.29417 16.4883 5.27166 16.4748C5.25365 16.4568 5.23113 16.4388 5.20862 16.4253C5.19061 16.4073 5.1681 16.3893 5.15009 16.3758C5.13208 16.3578 5.10957 16.3398 5.09156 16.3262C5.09156 16.3262 5.09156 16.3262 5.08705 16.3217C5.06904 16.3037 5.04653 16.2902 5.02852 16.2722C5.02852 16.2722 5.02852 16.2722 5.02402 16.2677C5.00601 16.2497 4.988 16.2362 4.96549 16.2182C4.96549 16.2182 4.96098 16.2137 4.95648 16.2092C4.93847 16.1912 4.92046 16.1777 4.90245 16.1642C4.90245 16.1642 4.89795 16.1597 4.89344 16.1552C4.87543 16.1371 4.85742 16.1236 4.83941 16.1101C4.83941 16.1101 4.83491 16.1011 4.83041 16.1011C4.8124 16.0831 4.79439 16.0696 4.77638 16.0561C4.77638 16.0561 4.76737 16.0471 4.76287 16.0426C4.74486 16.0291 4.73135 16.0111 4.71334 15.9976C4.70884 15.9931 4.70434 15.9886 4.69984 15.9841C4.68183 15.9705 4.66832 15.957 4.65031 15.9435C4.64581 15.939 4.6413 15.93 4.6323 15.9255C4.61879 15.912 4.60078 15.8985 4.58727 15.885C4.58277 15.8805 4.57377 15.8715 4.56926 15.867C4.55576 15.8535 4.54225 15.84 4.52424 15.831C4.51523 15.822 4.51073 15.8175 4.50173 15.8085C4.48822 15.795 4.47471 15.7859 4.4612 15.7724C4.4522 15.7634 4.4477 15.7544 4.43869 15.7454C4.42518 15.7319 4.41168 15.7229 4.39817 15.7139C4.38916 15.7049 4.38016 15.6959 4.37115 15.6869C4.35765 15.6779 4.34864 15.6644 4.33513 15.6554C4.32613 15.6464 4.31712 15.6329 4.30362 15.6239C4.29461 15.6148 4.2811 15.6058 4.2721 15.5968C4.26309 15.5833 4.24959 15.5743 4.24058 15.5653C4.23158 15.5563 4.22257 15.5473 4.20906 15.5383C4.19555 15.5248 4.18655 15.5158 4.17304 15.5023C4.16404 15.4933 4.15503 15.4888 4.14603 15.4798C4.13252 15.4663 4.11901 15.4528 4.1055 15.4393C4.0965 15.4302 4.08749 15.4257 4.08299 15.4212C4.06948 15.4077 4.05598 15.3942 4.04247 15.3807C4.03797 15.3762 4.02896 15.3672 4.01996 15.3627C4.00645 15.3492 3.99294 15.3312 3.97493 15.3177C3.97043 15.3132 3.96142 15.3087 3.95692 15.3042C3.94341 15.2862 3.9254 15.2727 3.9119 15.2546C3.90739 15.2501 3.90289 15.2456 3.89389 15.2411C3.88038 15.2231 3.86237 15.2051 3.84436 15.1916C3.83986 15.1871 3.83535 15.1826 3.83085 15.1781C3.81734 15.1601 3.79933 15.1421 3.78132 15.1286C3.78132 15.1286 3.77232 15.1196 3.76782 15.1151C3.74981 15.0971 3.7363 15.0791 3.71829 15.061C3.71829 15.061 3.70928 15.0565 3.70478 15.052C3.68677 15.034 3.67326 15.016 3.65075 14.998C3.65075 14.998 3.64175 14.9935 3.64175 14.989C3.62374 14.971 3.60573 14.9485 3.58772 14.9305C3.58772 14.9305 3.58321 14.926 3.57871 14.9215C3.5607 14.9035 3.54269 14.8809 3.52468 14.8629C3.52468 14.8629 3.52018 14.8629 3.52018 14.8584C3.50217 14.8359 3.48416 14.8179 3.46164 14.7999C3.46164 14.7999 3.46164 14.7999 3.45714 14.7999C3.43913 14.7774 3.42112 14.7594 3.39861 14.7369C3.3806 14.7143 3.36259 14.6918 3.34008 14.6738C3.32207 14.6513 3.30406 14.6288 3.28154 14.6108C3.26353 14.5883 3.24552 14.5658 3.22301 14.5478C3.205 14.5252 3.18699 14.5027 3.16448 14.4847C3.14647 14.4622 3.12846 14.4397 3.10595 14.4217C3.08794 14.3992 3.06993 14.3767 3.04741 14.3586C3.0294 14.3361 3.01139 14.3136 2.98888 14.2956C2.97087 14.2731 2.95286 14.2506 2.93035 14.2281C2.91234 14.2056 2.89433 14.183 2.87182 14.1605C2.85381 14.138 2.8358 14.1155 2.81328 14.093C2.79527 14.0705 2.77726 14.048 2.75475 14.0255C2.73674 14.0029 2.71873 13.9804 2.70072 13.9579C2.68271 13.9354 2.6647 13.9129 2.64669 13.8904C2.62868 13.8679 2.61067 13.8454 2.59266 13.8228C2.57465 13.8003 2.55664 13.7778 2.53863 13.7553C2.52062 13.7328 2.50711 13.7103 2.4846 13.6878C2.46659 13.6653 2.45308 13.6382 2.43057 13.6202C2.41706 13.5977 2.39905 13.5752 2.38104 13.5527C2.36753 13.5302 2.34952 13.5077 2.33151 13.4852C2.31801 13.4626 2.3 13.4401 2.28199 13.4176C2.26848 13.3951 2.25047 13.3726 2.23246 13.3501C2.21895 13.3276 2.20094 13.3006 2.18293 13.278C2.16942 13.2555 2.15141 13.2285 2.1334 13.206C2.11989 13.1835 2.10189 13.1565 2.08388 13.134C2.07037 13.1115 2.05236 13.0844 2.03435 13.0619C2.02084 13.0394 2.00733 13.0124 1.98932 12.9899C1.97581 12.9674 1.96231 12.9404 1.9443 12.9178C1.93079 12.8953 1.91728 12.8683 1.89927 12.8458C1.88576 12.8233 1.87226 12.7963 1.85425 12.7738C1.84074 12.7512 1.82723 12.7287 1.81372 12.7062C1.80022 12.6837 1.78671 12.6612 1.7732 12.6387C1.75969 12.6162 1.74619 12.5937 1.73268 12.5711C1.71917 12.5486 1.70566 12.5216 1.69216 12.4991C1.68315 12.4766 1.66964 12.4496 1.65163 12.4271C1.64263 12.4046 1.62912 12.3775 1.61111 12.355C1.60211 12.3325 1.5886 12.3055 1.57509 12.283C1.56609 12.2605 1.55258 12.2335 1.53907 12.2109C1.53007 12.1884 1.51656 12.1614 1.50305 12.1389C1.49405 12.1164 1.48504 12.0939 1.47153 12.0714C1.46253 12.0489 1.45352 12.0263 1.44002 12.0038C1.43101 11.9813 1.42201 11.9543 1.4085 11.9318C1.39949 11.9093 1.39049 11.8823 1.37698 11.8598C1.36797 11.8372 1.35897 11.8102 1.34546 11.7877C1.33646 11.7652 1.32745 11.7382 1.31845 11.7157C1.30944 11.6932 1.30044 11.6661 1.29143 11.6436C1.28243 11.6211 1.27342 11.5941 1.26442 11.5716C1.25991 11.5491 1.25091 11.5266 1.2419 11.5041C1.2374 11.4815 1.2284 11.459 1.21939 11.432C1.21489 11.4095 1.20588 11.3825 1.19688 11.36C1.19238 11.3375 1.18337 11.3104 1.17437 11.2879C1.16986 11.2654 1.16086 11.2384 1.15185 11.2159C1.14735 11.1934 1.13835 11.1664 1.13384 11.1439C1.13384 11.1213 1.12484 11.0988 1.11583 11.0763C1.11583 11.0538 1.10683 11.0313 1.09782 11.0088C1.09782 10.9863 1.08882 10.9592 1.07981 10.9367C1.07981 10.9142 1.07081 10.8872 1.06631 10.8647C1.06631 10.8422 1.0573 10.8197 1.0528 10.7972C1.0528 10.7746 1.0483 10.7521 1.04379 10.7341C1.04379 10.7161 1.03929 10.6981 1.03479 10.6756C1.03479 10.6531 1.03479 10.6351 1.02578 10.6126C1.02578 10.59 1.02578 10.572 1.02128 10.5495C1.02128 10.5315 1.02128 10.509 1.01678 10.491C1.01678 10.473 1.01678 10.455 1.01678 10.4415C1.01678 10.4234 1.01678 10.4054 1.01678 10.3874C1.01678 10.3694 1.01678 10.3514 1.01678 10.3334C1.01678 10.3154 1.01678 10.2974 1.01678 10.2794C1.01678 10.2659 1.01678 10.2479 1.01678 10.2343C1.01678 10.2163 1.01678 10.2028 1.01678 10.1848C1.01678 10.1668 1.01678 10.1488 1.02128 10.1353C1.02128 10.1218 1.02128 10.1083 1.02578 10.0903C1.02578 10.0768 1.03029 10.0632 1.03029 10.0497C1.03029 10.0362 1.03479 10.0182 1.03929 10.0047C1.03929 9.99121 1.04379 9.9777 1.0483 9.96419C1.0483 9.95068 1.0573 9.94168 1.0573 9.92817C1.0618 9.91466 1.06631 9.90116 1.07081 9.88765C1.07531 9.87414 1.07981 9.86063 1.08432 9.84713C1.08882 9.83812 1.09332 9.82461 1.09782 9.81561C1.10233 9.8021 1.10683 9.78859 1.11133 9.77959C1.11583 9.76608 1.12034 9.75708 1.12934 9.74357C1.13384 9.73456 1.13835 9.72106 1.14285 9.71205C1.14735 9.70305 1.15636 9.68954 1.16086 9.67603C1.16986 9.66703 1.17437 9.65352 1.17887 9.64451C1.18337 9.63551 1.19238 9.6265 1.19688 9.6175C1.20588 9.60849 1.21039 9.59499 1.21939 9.58598C1.2284 9.57698 1.2329 9.56347 1.2419 9.55446C1.25091 9.54546 1.25541 9.53645 1.26442 9.52745C1.27342 9.51844 1.28243 9.50944 1.28693 9.50043C1.29593 9.49143 1.30494 9.48242 1.30944 9.47342C1.30944 9.47342 1.31845 9.46892 1.31845 9.46441C1.32295 9.45991 1.32745 9.45541 1.33195 9.45091C1.34096 9.4464 1.34546 9.4374 1.35447 9.42839C1.35447 9.42839 1.35447 9.42839 1.35447 9.42389C1.36347 9.41489 1.37698 9.40588 1.38598 9.39688C1.39499 9.38787 1.40399 9.38337 1.413 9.37436C1.42201 9.36536 1.43101 9.36085 1.44002 9.35185C1.45352 9.34284 1.46253 9.33384 1.47604 9.32484C1.48954 9.31583 1.49855 9.31133 1.50755 9.30232C1.51656 9.29782 1.53007 9.28881 1.53907 9.27981C1.55258 9.2708 1.56609 9.2663 1.57509 9.2573C1.5886 9.24829 1.60211 9.24379 1.61561 9.23478C1.62912 9.23028 1.64263 9.22128 1.65163 9.21677C1.66514 9.21227 1.67415 9.20327 1.68765 9.19876C1.70116 9.19426 1.71917 9.18526 1.73268 9.17625C1.74619 9.17175 1.7642 9.16274 1.7777 9.15824C1.79121 9.15374 1.80472 9.14924 1.81823 9.14023C1.83173 9.14023 1.84524 9.13123 1.85875 9.12222C1.87676 9.11772 1.89027 9.11322 1.90828 9.10421C1.92629 9.10421 1.93979 9.09521 1.9578 9.0862C1.97581 9.0862 1.99382 9.0772 2.00733 9.07269C2.02534 9.07269 2.03885 9.06369 2.05236 9.05919C2.07037 9.05919 2.08387 9.05018 2.10189 9.04568C2.1199 9.04568 2.13791 9.03667 2.15592 9.03217C2.17393 9.03217 2.19194 9.02317 2.20995 9.01866C2.22796 9.01866 2.24597 9.01416 2.26398 9.00516C2.28199 9.00516 2.3 9.00065 2.31801 8.99615C2.33602 8.99615 2.35403 8.99165 2.37204 8.98715C2.39005 8.98715 2.41256 8.98264 2.43057 8.97814C2.44858 8.97814 2.47109 8.97814 2.4891 8.96914C2.51161 8.96914 2.52962 8.96914 2.54763 8.96013C2.57015 8.96013 2.58816 8.96013 2.61067 8.95563C2.63318 8.95563 2.65119 8.95563 2.6737 8.95113C2.69622 8.95113 2.71423 8.95113 2.73674 8.94662C2.75925 8.94662 2.78176 8.94662 2.79977 8.94212C2.82229 8.94212 2.8448 8.94212 2.86281 8.94212C2.88532 8.94212 2.90784 8.94212 2.93035 8.94212C2.95286 8.94212 2.97537 8.94212 2.99789 8.94212C3.0204 8.94212 3.04291 8.94212 3.06542 8.94212C3.08794 8.94212 3.11045 8.94212 3.13296 8.94212C3.15547 8.94212 3.17799 8.94212 3.205 8.94212C3.22751 8.94212 3.25453 8.94212 3.27704 8.94212C3.29955 8.94212 3.32207 8.94212 3.34908 8.94212C3.37159 8.94212 3.39861 8.94212 3.42112 8.94212C3.44363 8.94212 3.47065 8.94662 3.49316 8.94212C3.51568 8.94212 3.54269 8.94662 3.5652 8.94212C3.58772 8.94212 3.61473 8.94662 3.63724 8.94662C3.65976 8.95113 3.68677 8.95113 3.70928 8.95113C3.7363 8.95563 3.75881 8.96013 3.78583 8.95563C3.81284 8.96013 3.83535 8.96463 3.86237 8.96463C3.88938 8.96914 3.9119 8.97364 3.93891 8.97364C3.96593 8.97814 3.98844 8.98264 4.01545 8.98264C4.04247 8.98715 4.06498 8.99165 4.092 8.99165C4.11901 8.99615 4.14603 9.00065 4.16854 9.00065C4.19555 9.00516 4.22257 9.00966 4.24508 9.00966C4.2721 9.01866 4.29911 9.01866 4.32613 9.02317C4.35314 9.03217 4.38016 9.03667 4.40717 9.03667C4.43419 9.04568 4.4612 9.05018 4.48822 9.05018C4.51523 9.05919 4.54225 9.06369 4.56926 9.06369C4.59628 9.07269 4.62329 9.0772 4.65031 9.0772C4.67732 9.0862 4.70434 9.0907 4.73135 9.0907C4.75837 9.09971 4.78538 9.10421 4.8124 9.10421C4.83941 9.11322 4.86643 9.11772 4.89344 9.11772C4.92046 9.12672 4.94747 9.13123 4.97449 9.13573C5.00151 9.14473 5.02852 9.14924 5.05554 9.15374C5.08255 9.16274 5.10957 9.16725 5.13658 9.17175C5.1636 9.18075 5.19061 9.18526 5.21763 9.18976C5.24464 9.19876 5.27166 9.20777 5.30317 9.20777C5.33019 9.21677 5.3572 9.22578 5.38872 9.22578C5.41574 9.23479 5.44275 9.24379 5.47427 9.24379C5.50128 9.2573 5.5283 9.2618 5.55982 9.2663C5.58683 9.27981 5.61385 9.28431 5.64536 9.28881C5.67238 9.30232 5.6994 9.30682 5.73091 9.31133C5.75793 9.32483 5.78494 9.32934 5.81646 9.33384C5.84348 9.34735 5.87049 9.35185 5.90201 9.35635C5.92902 9.36986 5.95604 9.37436 5.98756 9.37887C6.01457 9.39237 6.04159 9.40138 6.0731 9.40138C6.10012 9.41489 6.12713 9.42389 6.15865 9.42389C6.18567 9.4374 6.21268 9.4464 6.2442 9.45091C6.27121 9.46441 6.29823 9.47342 6.32975 9.47792C6.35676 9.49143 6.38378 9.50043 6.4153 9.50494C6.44231 9.51844 6.46933 9.52745 6.50084 9.53195C6.52786 9.54546 6.55487 9.55446 6.58639 9.55897C6.61341 9.57247 6.64042 9.58148 6.67194 9.58598C6.69895 9.59949 6.72597 9.60849 6.75749 9.613C6.7845 9.6265 6.81152 9.63551 6.84303 9.64001C6.87005 9.65352 6.89706 9.66252 6.92858 9.66703C6.9556 9.68053 6.98261 9.68954 7.01413 9.69404C7.04114 9.70755 7.06816 9.72106 7.09968 9.72556C7.12669 9.73907 7.15371 9.75257 7.18523 9.75708C7.21224 9.77058 7.23926 9.78409 7.27077 9.78859C7.29779 9.8066 7.32931 9.81561 7.36082 9.82011C7.39234 9.83812 7.42836 9.85163 7.46438 9.85613C7.4959 9.87864 7.53642 9.89215 7.57244 9.89665C7.60396 9.91917 7.63998 9.93267 7.6805 9.93718C7.71202 9.95969 7.74804 9.9732 7.78856 9.9777C7.82008 10.0002 7.8561 10.0137 7.89212 10.0182C7.92364 10.0407 7.95966 10.0542 7.99568 10.0587C8.0272 10.0813 8.06322 10.0948 8.09924 10.0993C8.13075 10.1218 8.16677 10.1353 8.20279 10.1398C8.23431 10.1623 8.27033 10.1758 8.30635 10.1803C8.33787 10.2028 8.37389 10.2163 8.40541 10.2208C8.43692 10.2433 8.46844 10.2569 8.50446 10.2614C8.53598 10.2839 8.5675 10.2974 8.60352 10.3019C8.63504 10.3244 8.66655 10.3379 8.70257 10.3424C8.73409 10.3649 8.76561 10.3784 8.80163 10.3829C8.83315 10.4054 8.86466 10.4189 8.89618 10.4234C8.9232 10.446 8.95922 10.4595 8.99073 10.464C9.01775 10.4865 9.04927 10.5 9.08529 10.5045C9.1123 10.527 9.14382 10.5405 9.17984 10.545C9.20685 10.5675 9.23837 10.581 9.26989 10.5855C9.29691 10.6081 9.32842 10.6216 9.35994 10.6261C9.38696 10.6486 9.41847 10.6621 9.44999 10.6666C9.47701 10.6891 9.50852 10.7026 9.54004 10.7071C9.56706 10.7251 9.59857 10.7431 9.62559 10.7476C9.6526 10.7656 9.67962 10.7791 9.71114 10.7882C9.73815 10.8062 9.76517 10.8197 9.79669 10.8287C9.8237 10.8467 9.85072 10.8602 9.88223 10.8692C9.90925 10.8872 9.93626 10.9007 9.96328 10.9097C9.98579 10.9277 10.0173 10.9412 10.0443 10.9457C10.0668 10.9638 10.0939 10.9773 10.1254 10.9818C10.1479 10.9998 10.1749 11.0133 10.2019 11.0178C10.2244 11.0358 10.2514 11.0493 10.2785 11.0538C10.301 11.0718 10.328 11.0853 10.355 11.0898C10.3775 11.1078 10.4045 11.1213 10.4315 11.1258C10.4541 11.1439 10.4766 11.1574 10.5036 11.1619C10.5261 11.1799 10.5486 11.1889 10.5756 11.1979C10.5981 11.2159 10.6206 11.2249 10.6477 11.2339C10.6702 11.2519 10.6927 11.2609 10.7152 11.2654C10.7377 11.2834 10.7602 11.2924 10.7827 11.2969C10.8007 11.3149 10.8233 11.324 10.8503 11.3285C10.8683 11.342 10.8908 11.3555 10.9133 11.36C10.9313 11.3735 10.9538 11.387 10.9763 11.3915C10.9944 11.405 11.0169 11.4185 11.0394 11.423C11.0574 11.4365 11.0799 11.4455 11.0979 11.4545C11.1159 11.468 11.1339 11.477 11.1564 11.486C11.1745 11.4995 11.1925 11.5086 11.215 11.5131C11.233 11.5266 11.251 11.5356 11.269 11.5401C11.287 11.5536 11.305 11.5626 11.323 11.5671C11.341 11.5806 11.3546 11.5896 11.3726 11.5941C11.3861 11.6076 11.4041 11.6166 11.4221 11.6211C11.4356 11.6346 11.4536 11.6391 11.4716 11.6436C11.4851 11.6526 11.5031 11.6616 11.5166 11.6661C11.5302 11.6751 11.5437 11.6842 11.5617 11.6887C11.5752 11.6977 11.5887 11.7067 11.6067 11.7112C11.6202 11.7202 11.6337 11.7292 11.6472 11.7337C11.6607 11.7427 11.6742 11.7517 11.6877 11.7517C11.7012 11.7607 11.7103 11.7652 11.7238 11.7697C11.7328 11.7787 11.7463 11.7832 11.7598 11.7877C11.7688 11.7967 11.7823 11.8012 11.7958 11.8057C11.8048 11.8147 11.8183 11.8192 11.8273 11.8237C11.8363 11.8282 11.8453 11.8372 11.8588 11.8372C11.8678 11.8417 11.8768 11.8462 11.8859 11.8507C11.8949 11.8552 11.9039 11.8598 11.9129 11.8643C11.9219 11.8688 11.9309 11.8733 11.9354 11.8778C11.9444 11.8823 11.9489 11.8868 11.9579 11.8868C11.9669 11.8868 11.9714 11.8958 11.9804 11.8958C11.9849 11.8958 11.9939 11.9003 11.9984 11.9048C12.0029 11.9048 12.0119 11.9093 12.0164 11.9138C12.0209 11.9138 12.0254 11.9183 12.0299 11.9183C12.0299 11.9183 12.0389 11.9183 12.0434 11.9228C12.0434 11.9228 12.0524 11.9228 12.0569 11.9228C12.0615 11.9228 12.0705 11.9273 12.075 11.9273C12.084 11.9273 12.0885 11.9273 12.0975 11.9273C12.12 11.9273 12.1425 11.9183 12.156 11.9048C12.1785 11.8823 12.183 11.8417 12.1695 11.8147C12.1695 11.8057 12.1605 11.8012 12.156 11.7967C12.156 11.7922 12.147 11.7877 12.1425 11.7832C12.1425 11.7832 12.1425 11.7832 12.138 11.7832C12.138 11.7832 12.1335 11.7787 12.129 11.7742C12.129 11.7742 12.12 11.7697 12.1155 11.7652C12.111 11.7607 12.1065 11.7562 12.0975 11.7517C12.093 11.7472 12.0885 11.7427 12.0795 11.7382C12.075 11.7337 12.066 11.7292 12.0615 11.7247C12.0569 11.7202 12.0479 11.7157 12.0389 11.7112C12.0299 11.7067 12.0254 11.6977 12.0164 11.6977C12.0074 11.6887 11.9984 11.6842 11.9939 11.6797C11.9849 11.6706 11.9759 11.6661 11.9669 11.6616C11.9579 11.6526 11.9489 11.6481 11.9399 11.6436C11.9309 11.6346 11.9219 11.6301 11.9084 11.6256C11.8994 11.6166 11.8859 11.6076 11.8768 11.6031C11.8678 11.5941 11.8543 11.5851 11.8408 11.5806C11.8318 11.5716 11.8183 11.5626 11.8048 11.5581C11.7913 11.5491 11.7823 11.5401 11.7688 11.5356C11.7553 11.5266 11.7418 11.5176 11.7283 11.5086C11.7148 11.4996 11.7012 11.4905 11.6877 11.4815C11.6742 11.468 11.6607 11.459 11.6427 11.4545C11.6292 11.441 11.6157 11.432 11.5977 11.4275C11.5842 11.414 11.5662 11.405 11.5527 11.4005C11.5392 11.387 11.5211 11.378 11.5031 11.3735C11.4896 11.36 11.4716 11.351 11.4536 11.342C11.4401 11.3285 11.4221 11.3194 11.3996 11.3104C11.3816 11.2969 11.3636 11.2834 11.3456 11.2789C11.3275 11.2654 11.3095 11.2519 11.2915 11.2474C11.2735 11.2339 11.2555 11.2204 11.233 11.2159C11.215 11.1979 11.197 11.1889 11.1745 11.1844C11.1564 11.1664 11.1339 11.1574 11.1159 11.1484C11.0979 11.1303 11.0754 11.1213 11.0529 11.1123C11.0349 11.0943 11.0124 11.0853 10.9899 11.0763C10.9718 11.0583 10.9493 11.0493 10.9268 11.0403C10.9088 11.0223 10.8863 11.0088 10.8593 11.0043C10.8413 10.9863 10.8143 10.9728 10.7917 10.9683C10.7692 10.9502 10.7467 10.9367 10.7242 10.9322C10.7017 10.9142 10.6792 10.9007 10.6522 10.8917C10.6297 10.8737 10.6071 10.8602 10.5801 10.8512C10.5576 10.8332 10.5351 10.8197 10.5081 10.8107C10.4856 10.7927 10.4586 10.7791 10.4315 10.7701C10.409 10.7521 10.382 10.7386 10.355 10.7296C10.3325 10.7071 10.3055 10.6936 10.2785 10.6891C10.2559 10.6666 10.2289 10.6531 10.1974 10.6486C10.1749 10.6261 10.1479 10.6126 10.1164 10.6081C10.0939 10.5855 10.0623 10.572 10.0353 10.5675C10.0083 10.545 9.98129 10.5315 9.95427 10.527C9.92726 10.5045 9.90024 10.491 9.86872 10.482C9.84171 10.4595 9.81469 10.446 9.78318 10.437C9.75616 10.4144 9.72915 10.4009 9.69763 10.3919C9.67061 10.3694 9.6391 10.3559 9.60758 10.3469C9.58056 10.3244 9.54905 10.3109 9.51753 10.3019C9.49051 10.2794 9.459 10.2659 9.42748 10.2569C9.40046 10.2343 9.36895 10.2208 9.33743 10.2118C9.31041 10.1893 9.2789 10.1758 9.24288 10.1668C9.21586 10.1443 9.18434 10.1308 9.14832 10.1218C9.12131 10.0993 9.08529 10.0813 9.05377 10.0768C9.02675 10.0542 8.99073 10.0362 8.95922 10.0317C8.9277 10.0092 8.89618 9.99121 8.86466 9.9867C8.83315 9.96419 8.80163 9.94618 8.76561 9.94168C8.73409 9.91917 8.70257 9.90116 8.66655 9.89665C8.63504 9.87414 8.60352 9.85613 8.5675 9.85163C8.53598 9.82912 8.50446 9.81111 8.46844 9.8066C8.43692 9.78409 8.4009 9.76608 8.36488 9.76158C8.33337 9.73907 8.29735 9.72106 8.26133 9.71655C8.22981 9.69404 8.19379 9.67603 8.15777 9.67153C8.12625 9.64902 8.09023 9.63101 8.05421 9.6265C8.02269 9.60399 7.98667 9.58598 7.95065 9.58148C7.91914 9.55897 7.88312 9.54096 7.8471 9.53645C7.81558 9.51394 7.77956 9.49593 7.73904 9.49143C7.70752 9.46892 7.6715 9.45091 7.63097 9.4464C7.59946 9.42389 7.56344 9.41038 7.52742 9.40138C7.5004 9.38337 7.46888 9.36986 7.43737 9.36536C7.41035 9.34735 7.38334 9.33834 7.35182 9.32934C7.3248 9.31133 7.29329 9.30232 7.26627 9.29332C7.23926 9.27531 7.20774 9.2663 7.18072 9.2573C7.15371 9.23929 7.12219 9.23028 7.09518 9.22128C7.06816 9.20327 7.03664 9.19426 7.00963 9.18976C6.98261 9.17175 6.95109 9.16274 6.92408 9.15824C6.89706 9.14023 6.86555 9.13123 6.83853 9.12672C6.81152 9.11322 6.78 9.09971 6.75298 9.09521C6.72597 9.0817 6.69445 9.06819 6.66744 9.06369C6.64042 9.05018 6.6089 9.03667 6.58189 9.03217C6.55487 9.01866 6.52336 9.00516 6.49634 9.00065C6.46933 8.98715 6.43781 8.97364 6.41079 8.96914C6.38378 8.95563 6.35226 8.94212 6.32524 8.93762C6.29823 8.92411 6.26671 8.91511 6.2397 8.9106C6.21268 8.8971 6.18116 8.88809 6.15415 8.88359C6.12713 8.87008 6.09562 8.86108 6.0686 8.85657C6.04159 8.84307 6.01007 8.83406 5.98305 8.82956C5.95604 8.81605 5.92452 8.80705 5.89751 8.80254C5.87049 8.78904 5.83897 8.78003 5.81196 8.77553C5.78494 8.76202 5.75343 8.75302 5.72641 8.74851C5.6994 8.73501 5.66788 8.726 5.64086 8.7215C5.61385 8.70799 5.58233 8.69899 5.55531 8.69448C5.5283 8.68098 5.49678 8.67197 5.46977 8.67197C5.44275 8.65846 5.41123 8.65396 5.38422 8.64946C5.3572 8.63595 5.32569 8.63145 5.29867 8.62695C5.27166 8.61344 5.24464 8.60893 5.21312 8.60443C5.18611 8.59092 5.15909 8.58642 5.12758 8.58192C5.10056 8.56841 5.07355 8.56391 5.04203 8.55941C5.01501 8.5504 4.988 8.5414 4.95648 8.53689C4.92946 8.52789 4.90245 8.51888 4.87093 8.51888C4.84392 8.50988 4.8124 8.50087 4.78538 8.50087C4.75837 8.49187 4.72685 8.48286 4.69984 8.48286C4.67282 8.47386 4.6413 8.46485 4.61429 8.46485C4.58727 8.45585 4.56026 8.45135 4.52874 8.44684C4.50173 8.43784 4.47471 8.43334 4.4477 8.42883C4.42068 8.41983 4.38916 8.41533 4.36215 8.41082C4.33513 8.40182 4.30812 8.39732 4.2811 8.39732C4.25409 8.38831 4.22707 8.38381 4.20006 8.38381C4.17304 8.3748 4.14603 8.3703 4.11901 8.3703C4.092 8.3613 4.06498 8.35679 4.03797 8.35679C4.01095 8.34779 3.98394 8.34329 3.95692 8.34329C3.92991 8.33428 3.90289 8.32978 3.87588 8.32978C3.84886 8.32077 3.82185 8.32077 3.79483 8.31627C3.76782 8.31177 3.7408 8.30727 3.71379 8.30727C3.68677 8.30276 3.65976 8.29826 3.63274 8.29826C3.60573 8.29376 3.57871 8.28926 3.5562 8.28926C3.52918 8.28475 3.50217 8.28025 3.47966 8.28025C3.45264 8.27575 3.43013 8.27125 3.40311 8.27125C3.3761 8.26674 3.34908 8.26224 3.32657 8.26674C3.29955 8.26224 3.27254 8.26224 3.25003 8.26224C3.22301 8.26224 3.2005 8.25774 3.17348 8.25774C3.14647 8.25774 3.12396 8.25324 3.09694 8.25774C3.06993 8.25774 3.04741 8.25324 3.0204 8.25774C2.99338 8.25774 2.97087 8.25774 2.94386 8.25774C2.91684 8.25774 2.89433 8.25774 2.86731 8.25774C2.8403 8.25774 2.81779 8.25774 2.79527 8.25774C2.77276 8.25774 2.74574 8.25774 2.72323 8.25774C2.70072 8.25774 2.6737 8.25774 2.65119 8.25774C2.62868 8.25774 2.60166 8.25774 2.57915 8.25774C2.55664 8.25774 2.52962 8.25774 2.50711 8.25774C2.4846 8.25774 2.45758 8.25774 2.43507 8.25774C2.41256 8.25774 2.38554 8.25774 2.36303 8.26224C2.34052 8.26224 2.3135 8.26224 2.29099 8.26674C2.26848 8.26674 2.24597 8.26674 2.22345 8.27575C2.20094 8.27575 2.17843 8.27575 2.15592 8.28475C2.1334 8.28475 2.11089 8.28475 2.08838 8.29376C2.06586 8.29376 2.04335 8.29826 2.02084 8.30276C1.99833 8.30276 1.97131 8.30727 1.9488 8.31627C1.92629 8.31627 1.90377 8.32528 1.88126 8.32978C1.85875 8.32978 1.83624 8.33878 1.81823 8.34329C1.79571 8.34329 1.7777 8.35229 1.75519 8.35679C1.73268 8.35679 1.71467 8.3658 1.69216 8.3748C1.66964 8.3748 1.64713 8.38381 1.62462 8.39281C1.60211 8.39732 1.5841 8.40182 1.56158 8.41082C1.53907 8.41533 1.52106 8.42433 1.50305 8.42883C1.48504 8.43334 1.46253 8.44234 1.44452 8.45135C1.42201 8.45585 1.39949 8.46485 1.38148 8.47386C1.35897 8.47836 1.34096 8.48737 1.31845 8.50087C1.30044 8.50988 1.28243 8.51438 1.26442 8.52339C1.24641 8.53239 1.2284 8.5414 1.21039 8.5504C1.18787 8.55941 1.16986 8.56841 1.15185 8.58192C1.13384 8.59093 1.11133 8.59993 1.09332 8.61344C1.07531 8.62244 1.0573 8.63145 1.04379 8.64496C1.02578 8.65396 1.00777 8.66747 0.989763 8.68098C0.971753 8.68998 0.953743 8.70349 0.935733 8.717C0.917723 8.726 0.899713 8.73951 0.886206 8.75302C0.868196 8.76202 0.854688 8.77553 0.836678 8.78904C0.818668 8.80254 0.800658 8.81605 0.78715 8.82956C0.76914 8.84307 0.755633 8.85657 0.742125 8.87008C0.728618 8.87909 0.719612 8.89259 0.706105 8.9016C0.706105 8.9016 0.701602 8.9061 0.6971 8.9106C0.688095 8.91961 0.67909 8.92861 0.670085 8.93762C0.665582 8.94212 0.656577 8.95113 0.652075 8.96013C0.647572 8.96463 0.64307 8.96914 0.634065 8.97364C0.62506 8.98264 0.616055 8.99615 0.60705 9.00516C0.60705 9.00516 0.60705 9.00516 0.602547 9.00966C0.58904 9.02317 0.580034 9.03667 0.566527 9.05018C0.548517 9.06819 0.535009 9.0862 0.526004 9.10421C0.512497 9.12222 0.498989 9.14023 0.485482 9.15824C0.471974 9.17625 0.462969 9.18976 0.449462 9.20777C0.435954 9.22578 0.422446 9.24379 0.413441 9.2663C0.399934 9.28431 0.386426 9.30232 0.377421 9.32484C0.368416 9.34285 0.354909 9.36086 0.345904 9.37887C0.332396 9.39688 0.323391 9.41939 0.314386 9.4419C0.300879 9.45991 0.291873 9.48242 0.287371 9.50494C0.278366 9.52295 0.269361 9.54096 0.264858 9.56347C0.255853 9.58598 0.246848 9.60849 0.237843 9.63101C0.228838 9.65352 0.219833 9.67603 0.215331 9.69854C0.206326 9.71655 0.201823 9.73907 0.197321 9.76158C0.188316 9.78409 0.183813 9.8066 0.179311 9.83362C0.170306 9.85613 0.165803 9.88315 0.161301 9.90566C0.156798 9.92817 0.152295 9.95068 0.147793 9.9732C0.14329 9.99571 0.138788 10.0182 0.134285 10.0452C0.129783 10.0723 0.12528 10.0948 0.12528 10.1218C0.12528 10.1443 0.116275 10.1713 0.116275 10.1938C0.116275 10.2163 0.111773 10.2433 0.111773 10.2659C0.111773 10.2929 0.10727 10.3199 0.111773 10.3469C0.111773 10.3739 0.111773 10.4009 0.111773 10.428C0.111773 10.455 0.111773 10.4775 0.111773 10.5045C0.111773 10.5315 0.111773 10.554 0.111773 10.581C0.111773 10.6081 0.111773 10.6396 0.111773 10.6666C0.111773 10.6936 0.111773 10.7206 0.116275 10.7521C0.116275 10.7791 0.116275 10.8062 0.12528 10.8332C0.12528 10.8602 0.12528 10.8872 0.134285 10.9142C0.134285 10.9412 0.138788 10.9728 0.147793 10.9998C0.147793 11.0313 0.152295 11.0628 0.161301 11.0898C0.161301 11.1168 0.170306 11.1484 0.174808 11.1754C0.174808 11.2024 0.183813 11.2339 0.192818 11.2609C0.192818 11.2879 0.201823 11.3194 0.210828 11.3465C0.210828 11.3735 0.219833 11.405 0.228838 11.432C0.228838 11.459 0.242346 11.4905 0.251351 11.5176C0.255853 11.5491 0.264858 11.5806 0.273863 11.6076C0.278366 11.6346 0.287371 11.6661 0.296376 11.6932C0.300879 11.7202 0.309884 11.7517 0.318889 11.7787C0.323391 11.8057 0.332396 11.8372 0.345904 11.8643C0.350406 11.8913 0.359411 11.9228 0.372919 11.9498C0.381924 11.9768 0.390929 12.0083 0.399934 12.0353C0.408939 12.0669 0.417944 12.0939 0.431451 12.1209C0.440457 12.1524 0.449462 12.1794 0.462969 12.2109C0.471974 12.238 0.480979 12.265 0.494487 12.2965C0.503492 12.3235 0.512497 12.3505 0.526004 12.3775C0.535009 12.4046 0.544014 12.4316 0.562024 12.4586C0.571029 12.4856 0.584537 12.5126 0.598045 12.5396C0.60705 12.5666 0.620557 12.5937 0.634065 12.6207C0.64307 12.6477 0.656577 12.6747 0.670085 12.7017C0.67909 12.7332 0.692597 12.7603 0.710607 12.7873C0.719612 12.8188 0.73312 12.8458 0.75113 12.8728C0.760135 12.8998 0.773643 12.9268 0.791653 12.9539C0.80516 12.9809 0.818668 13.0079 0.832175 13.0349C0.845683 13.0619 0.859191 13.0889 0.872698 13.116C0.886206 13.143 0.899713 13.17 0.917723 13.197C0.931231 13.224 0.944738 13.251 0.962748 13.278C0.976256 13.3051 0.989763 13.3321 1.00777 13.3591C1.02128 13.3861 1.03479 13.4131 1.0528 13.4401C1.06631 13.4671 1.08432 13.4942 1.10233 13.5212C1.11583 13.5482 1.13384 13.5797 1.15185 13.6067C1.16536 13.6337 1.18337 13.6653 1.20138 13.6878C1.21489 13.7148 1.2329 13.7418 1.25091 13.7688C1.26442 13.7958 1.28243 13.8228 1.30044 13.8499C1.31394 13.8769 1.33195 13.9039 1.34996 13.9264C1.36347 13.9534 1.38148 13.9804 1.39949 14.0029C1.413 14.03 1.43101 14.057 1.44902 14.0795C1.46253 14.1065 1.48054 14.1335 1.50305 14.156C1.51656 14.183 1.53457 14.2101 1.55708 14.2326C1.57059 14.2596 1.5886 14.2866 1.61111 14.3091C1.62462 14.3361 1.64713 14.3632 1.66514 14.3857C1.68315 14.4127 1.70116 14.4397 1.72367 14.4667C1.74168 14.4937 1.75969 14.5207 1.78221 14.5478C1.80022 14.5748 1.81823 14.6018 1.84074 14.6243C1.85875 14.6513 1.87676 14.6783 1.89927 14.7008C1.91728 14.7279 1.93529 14.7504 1.9578 14.7774C1.97581 14.8044 1.99382 14.8269 2.01634 14.8539C2.03435 14.8809 2.05236 14.9035 2.07487 14.9305C2.09288 14.9575 2.11089 14.98 2.1334 15.007C2.15141 15.034 2.16942 15.0565 2.19194 15.0791C2.20995 15.1061 2.22796 15.1286 2.25047 15.1511C2.26848 15.1781 2.28649 15.2006 2.309 15.2231C2.32701 15.2501 2.34502 15.2727 2.36753 15.2952C2.38554 15.3222 2.40806 15.3447 2.42607 15.3672C2.44408 15.3942 2.46659 15.4167 2.4891 15.4393C2.50711 15.4663 2.52962 15.4888 2.55214 15.5113C2.57015 15.5383 2.59266 15.5608 2.61517 15.5833C2.63318 15.6103 2.65569 15.6329 2.67821 15.6554C2.69622 15.6824 2.71873 15.7049 2.74124 15.7274C2.75925 15.7544 2.78176 15.7769 2.80428 15.7995C2.82229 15.8265 2.8448 15.849 2.86731 15.8715C2.88532 15.894 2.90784 15.921 2.93035 15.9435C2.94836 15.966 2.97087 15.9931 2.99338 16.0156C3.01139 16.0381 3.03391 16.0651 3.05642 16.0876C3.07443 16.1101 3.09694 16.1326 3.11945 16.1552C3.13746 16.1777 3.15998 16.2002 3.17799 16.2182C3.196 16.2407 3.21401 16.2632 3.23652 16.2812C3.25453 16.3037 3.27254 16.3217 3.29505 16.3443C3.29505 16.3443 3.29505 16.3443 3.29955 16.3488C3.31756 16.3713 3.33557 16.3893 3.35809 16.4073C3.35809 16.4073 3.36259 16.4073 3.36709 16.4118C3.3851 16.4298 3.40311 16.4523 3.42112 16.4703C3.42112 16.4703 3.42562 16.4748 3.43013 16.4793C3.44814 16.4973 3.46615 16.5199 3.48416 16.5379C3.48416 16.5379 3.48866 16.5424 3.49316 16.5469C3.51117 16.5649 3.52918 16.5829 3.54719 16.6009C3.54719 16.6009 3.5562 16.6054 3.5562 16.6099C3.57421 16.6279 3.58772 16.6459 3.61023 16.6639C3.61023 16.6639 3.61923 16.6684 3.62374 16.6729C3.64175 16.691 3.65525 16.709 3.67326 16.727C3.67326 16.727 3.68227 16.736 3.68677 16.736C3.70028 16.754 3.71829 16.772 3.7363 16.7855C3.7408 16.7855 3.7453 16.7945 3.74981 16.799C3.76331 16.817 3.78132 16.835 3.79933 16.8485C3.80384 16.853 3.80834 16.8575 3.81734 16.862C3.83085 16.8801 3.84886 16.8936 3.86237 16.9116C3.86687 16.9161 3.87588 16.9206 3.88038 16.9251C3.89389 16.9386 3.90739 16.9566 3.9254 16.9701C3.92991 16.9746 3.93891 16.9836 3.94792 16.9881C3.96142 17.0016 3.97493 17.0151 3.98844 17.0331C3.99744 17.0421 4.00195 17.0466 4.01095 17.0512C4.02446 17.0647 4.03797 17.0782 4.05147 17.0917C4.06048 17.1007 4.06948 17.1052 4.07849 17.1142C4.092 17.1277 4.101 17.1412 4.11451 17.1502C4.12351 17.1592 4.13252 17.1637 4.14152 17.1727C4.15503 17.1862 4.16404 17.1952 4.17754 17.2087C4.18655 17.2177 4.19555 17.2268 4.20906 17.2358C4.21807 17.2448 4.23158 17.2583 4.24058 17.2673C4.24959 17.2763 4.26309 17.2853 4.2721 17.2943C4.2811 17.3033 4.29011 17.3168 4.30362 17.3258C4.31262 17.3348 4.32613 17.3438 4.33513 17.3528C4.34414 17.3618 4.35314 17.3708 4.36215 17.3798C4.37566 17.3888 4.38466 17.3978 4.39817 17.4114C4.40717 17.4204 4.41618 17.4294 4.42518 17.4384C4.43869 17.4474 4.4477 17.4609 4.4612 17.4699C4.47021 17.4789 4.47471 17.4879 4.48372 17.4969C4.49722 17.5104 4.51073 17.5194 4.52424 17.5284C4.53324 17.5374 4.53775 17.5419 4.54675 17.5509C4.56026 17.5644 4.57377 17.5734 4.58727 17.587C4.59628 17.596 4.60078 17.6005 4.60979 17.6095C4.62329 17.623 4.6368 17.632 4.65031 17.6455C4.65481 17.65 4.66382 17.659 4.66832 17.6635C4.68183 17.677 4.69533 17.6905 4.71334 17.6995C4.71785 17.704 4.72235 17.713 4.73135 17.7175C4.74486 17.731 4.76287 17.7445 4.77638 17.7535C4.78088 17.758 4.78538 17.7625 4.78989 17.7671C4.80339 17.7806 4.8214 17.7941 4.83491 17.8076C4.83941 17.8076 4.84392 17.8166 4.84842 17.8211C4.86193 17.8346 4.87994 17.8481 4.89344 17.8616C4.89344 17.8616 4.90245 17.8706 4.90695 17.8751C4.92046 17.8886 4.93847 17.9021 4.95648 17.9156C4.95648 17.9156 4.96098 17.9246 4.96549 17.9246C4.98349 17.9381 4.997 17.9517 5.01501 17.9652C5.01501 17.9652 5.01952 17.9697 5.02402 17.9742C5.04203 17.9877 5.05554 18.0057 5.07354 18.0192C5.07354 18.0192 5.07805 18.0237 5.08255 18.0282C5.10056 18.0417 5.11857 18.0597 5.13208 18.0732C5.13208 18.0732 5.13208 18.0732 5.13658 18.0777C5.15459 18.0957 5.1726 18.1092 5.19061 18.1228C5.20862 18.1408 5.22663 18.1543 5.24464 18.1678C5.26265 18.1858 5.28066 18.1993 5.29867 18.2128C5.31668 18.2308 5.33469 18.2443 5.3527 18.2578C5.37071 18.2758 5.38872 18.2893 5.41123 18.3074C5.42924 18.3254 5.44725 18.3389 5.46526 18.3569C5.48327 18.3749 5.50128 18.3884 5.51929 18.4019C5.5373 18.4199 5.55531 18.4334 5.57332 18.4469C5.59133 18.4649 5.60934 18.4784 5.62736 18.492C5.64536 18.5055 5.66337 18.5235 5.68139 18.537C5.6994 18.5505 5.71741 18.5685 5.73541 18.582C5.75343 18.5955 5.77144 18.6135 5.78945 18.627C5.80746 18.6405 5.82547 18.654 5.83897 18.6676C5.85698 18.6811 5.87049 18.6946 5.8885 18.7081C5.90651 18.7216 5.92002 18.7351 5.93803 18.7486C5.95604 18.7621 5.96955 18.7756 5.98756 18.7891C6.00557 18.8026 6.01907 18.8161 6.03708 18.8296C6.05059 18.8432 6.0686 18.8567 6.08661 18.8702C6.10012 18.8837 6.11813 18.8972 6.13164 18.9062C6.14514 18.9197 6.16315 18.9332 6.17666 18.9422C6.19017 18.9557 6.20818 18.9647 6.22169 18.9782C6.23519 18.9917 6.2487 19.0007 6.26671 19.0142C6.28022 19.0278 6.29373 19.0368 6.31174 19.0503C6.32524 19.0638 6.33875 19.0728 6.35226 19.0818C6.36577 19.0953 6.37927 19.1043 6.39278 19.1133C6.40629 19.1223 6.4198 19.1358 6.43331 19.1448C6.44681 19.1538 6.46032 19.1673 6.47383 19.1763C6.48734 19.1853 6.50084 19.1989 6.51435 19.2079C6.52786 19.2169 6.53686 19.2259 6.55037 19.2394C6.56388 19.2484 6.57288 19.2574 6.58639 19.2664C6.5999 19.2754 6.6089 19.2844 6.62241 19.2934C6.63142 19.3024 6.64492 19.3114 6.65843 19.3204C6.66744 19.3294 6.68094 19.3384 6.68995 19.3474C6.69895 19.3564 6.71246 19.3654 6.72147 19.3745C6.73047 19.3835 6.74398 19.3925 6.75298 19.397C6.76199 19.406 6.77099 19.415 6.7845 19.4195C6.79351 19.4285 6.80251 19.433 6.81152 19.442C6.82052 19.451 6.82953 19.4555 6.83853 19.4645C6.84754 19.4735 6.85654 19.478 6.86555 19.487C6.87455 19.4915 6.88356 19.5005 6.88806 19.505C6.89706 19.5095 6.90157 19.5185 6.91057 19.523C6.91958 19.5275 6.92408 19.5365 6.93308 19.541C6.94209 19.5455 6.94659 19.5546 6.9556 19.5591C6.9601 19.5636 6.9691 19.5681 6.97361 19.5771C6.97361 19.5771 6.98261 19.5816 6.98261 19.5861C7.00062 19.6086 7.02313 19.6311 7.04565 19.6536C7.38784 19.9733 7.91463 19.9778 8.22531 19.6626L8.17128 19.6266Z" fill="#005750"/>
<path d="M26.7307 12.5351C26.7307 12.5351 26.7397 12.5126 26.7442 12.5036L26.7667 12.4766C26.7937 12.4361 26.8523 12.4271 26.8928 12.4541L27.0233 12.5486C27.0279 12.5351 27.0324 12.5216 27.0369 12.5081C27.0414 12.4946 27.0504 12.4766 27.0549 12.4631C27.0954 12.3595 27.1449 12.2425 27.208 12.1569C27.1674 12.1254 27.1314 12.0939 27.0999 12.0579C27.0819 12.0398 27.0639 12.0218 27.0504 12.0038C27.0369 11.9858 27.0188 11.9678 27.0053 11.9498C27.0053 11.9498 27.0053 11.9498 27.0008 11.9453C26.9873 11.9273 26.9738 11.9138 26.9603 11.8958C26.9603 11.8958 26.9558 11.8868 26.9513 11.8868C26.9378 11.8687 26.9288 11.8552 26.9153 11.8372C26.9153 11.8327 26.9108 11.8282 26.9063 11.8237C26.8973 11.8102 26.8883 11.7922 26.8748 11.7787C26.8748 11.7742 26.8703 11.7652 26.8658 11.7607C26.8568 11.7472 26.8478 11.7292 26.8387 11.7157C26.7442 11.7607 26.6181 11.7922 26.5101 11.8102C26.4921 11.8102 26.474 11.8147 26.4605 11.8192C26.4425 11.8192 26.429 11.8237 26.4155 11.8282L26.483 11.9723C26.5056 12.0173 26.483 12.0714 26.438 12.0939L26.4065 12.1074C26.384 12.1164 26.3615 12.1164 26.339 12.1074C26.3165 12.0984 26.2984 12.0849 26.2894 12.0624L26.1273 11.7112C26.1048 11.6661 26.1273 11.6121 26.1724 11.5896L26.2039 11.5761C26.2399 11.5626 26.2759 11.5671 26.3029 11.5896C26.312 11.5986 26.321 11.6076 26.3255 11.6166L26.393 11.7607C26.402 11.7517 26.4155 11.7427 26.429 11.7292C26.4425 11.7202 26.456 11.7067 26.4695 11.6977C26.5551 11.6301 26.6586 11.5536 26.7532 11.5085C26.6857 11.3284 26.6496 11.1348 26.6541 10.9412C26.5506 10.9322 26.429 10.8962 26.3255 10.8602C26.3074 10.8557 26.2939 10.8467 26.2804 10.8422C26.2804 10.8422 26.2804 10.8422 26.2759 10.8422C26.2624 10.8377 26.2489 10.8332 26.2354 10.8242L26.2219 10.9818C26.2219 11.0313 26.1724 11.0673 26.1228 11.0628H26.0868C26.0373 11.0538 26.0013 11.0088 26.0058 10.9637L26.0418 10.5765C26.0418 10.5765 26.0463 10.554 26.0508 10.5405C26.0553 10.527 26.0643 10.5225 26.0733 10.5135C26.0913 10.5 26.1138 10.491 26.1409 10.491H26.1769C26.1769 10.491 26.2129 10.5045 26.2264 10.5135C26.2489 10.5315 26.2624 10.5585 26.2579 10.59L26.2444 10.7476C26.2444 10.7476 26.2714 10.7431 26.2894 10.7386C26.3075 10.7386 26.321 10.7341 26.339 10.7296C26.447 10.7116 26.5776 10.6981 26.6812 10.7071C26.6812 10.6891 26.6857 10.6711 26.6902 10.6531C26.6902 10.6486 26.6902 10.6441 26.6902 10.6351C26.6902 10.617 26.6992 10.599 26.7037 10.581C26.7037 10.5765 26.7037 10.572 26.7037 10.5675C26.7082 10.5495 26.7127 10.527 26.7217 10.509V10.5C26.7262 10.4775 26.7352 10.4595 26.7442 10.4369C26.7442 10.4369 26.7442 10.4369 26.7442 10.4324C26.7532 10.4099 26.7622 10.3874 26.7712 10.3694C26.7802 10.3469 26.7892 10.3244 26.8027 10.3019C26.8252 10.2568 26.8478 10.2163 26.8748 10.1713C26.7892 10.1128 26.6992 10.0182 26.6271 9.93717C26.6136 9.92366 26.6046 9.91015 26.5956 9.89665C26.5866 9.88314 26.5776 9.87413 26.5686 9.86063L26.474 9.9912C26.474 9.9912 26.447 10.0182 26.4335 10.0227C26.4065 10.0317 26.375 10.0317 26.348 10.0137L26.321 9.9912C26.2939 9.97319 26.2804 9.94617 26.2849 9.91466C26.2849 9.89665 26.2894 9.87864 26.3029 9.86513L26.5281 9.54545C26.5281 9.54545 26.5551 9.51843 26.5686 9.51393C26.5956 9.50493 26.6271 9.50493 26.6541 9.52294L26.6812 9.54545C26.6947 9.55445 26.7082 9.57246 26.7127 9.58597C26.7127 9.59498 26.7172 9.60848 26.7172 9.62199C26.7172 9.64 26.7127 9.65801 26.6992 9.67152L26.6046 9.80209C26.6046 9.80209 26.6316 9.8111 26.6496 9.8156C26.6631 9.8201 26.6812 9.82911 26.6992 9.83361C26.8027 9.87413 26.9198 9.92366 27.0053 9.9867C27.0369 9.94617 27.0684 9.91015 27.1044 9.87864C27.1224 9.86062 27.1404 9.84262 27.1584 9.82911C27.1764 9.8156 27.1944 9.79759 27.2125 9.78408C27.2125 9.78408 27.2125 9.78408 27.217 9.78408C27.235 9.77058 27.2485 9.75707 27.2665 9.74356C27.2665 9.74356 27.271 9.73906 27.2755 9.73455C27.2935 9.72105 27.307 9.71204 27.325 9.69853C27.3295 9.69853 27.334 9.69403 27.3385 9.68953C27.352 9.68052 27.37 9.66702 27.3836 9.65801C27.3881 9.65801 27.3926 9.65351 27.4016 9.64901C27.4151 9.64 27.4331 9.631 27.4466 9.62199C27.4016 9.52744 27.37 9.40137 27.352 9.29331C27.352 9.2753 27.3475 9.25729 27.343 9.24378C27.343 9.22577 27.3385 9.21226 27.334 9.19876L27.1899 9.26629C27.1449 9.28881 27.0909 9.26629 27.0684 9.22127L27.0549 9.18975C27.0324 9.14473 27.0549 9.0907 27.0999 9.06818L27.4511 8.90609C27.4961 8.88358 27.5501 8.90609 27.5727 8.95112L27.5862 8.98263C27.5952 9.00515 27.5952 9.02766 27.5862 9.05017C27.5862 9.05467 27.5817 9.05918 27.5772 9.06368C27.5682 9.07719 27.5546 9.09069 27.5366 9.0997L27.4736 9.13122L27.3926 9.16724C27.3926 9.16724 27.4106 9.18975 27.4241 9.20326C27.4331 9.21677 27.4466 9.23027 27.4556 9.24378C27.5231 9.32933 27.5997 9.43289 27.6447 9.52744C27.8248 9.4599 28.0184 9.42388 28.212 9.42838C28.221 9.32483 28.257 9.20326 28.2931 9.0997C28.2976 9.08169 28.3066 9.06818 28.3111 9.05467C28.3156 9.04117 28.3201 9.02766 28.3291 9.01415L28.1715 9.00064C28.122 9.00064 28.0859 8.95112 28.0904 8.90159V8.86557C28.0904 8.86557 28.104 8.82955 28.113 8.81604C28.131 8.79353 28.158 8.78002 28.1895 8.78452L28.5767 8.82054C28.6082 8.82054 28.6353 8.84306 28.6488 8.86557C28.6578 8.87908 28.6623 8.89709 28.6578 8.9151V8.95112C28.6578 8.95112 28.6488 8.97363 28.6443 8.98714C28.6262 9.01865 28.5947 9.03667 28.5587 9.03667L28.4011 9.02316C28.4011 9.02316 28.4056 9.05017 28.4101 9.06818C28.4101 9.08619 28.4146 9.0997 28.4191 9.11771C28.4371 9.22577 28.4506 9.35634 28.4416 9.4599C28.4597 9.4599 28.4777 9.4644 28.4912 9.46891C28.4957 9.46891 28.5047 9.46891 28.5092 9.46891C28.5272 9.46891 28.5452 9.47791 28.5632 9.48241C28.5677 9.48241 28.5767 9.48241 28.5812 9.48241C28.5992 9.48692 28.6172 9.49142 28.6398 9.50042C28.6398 9.50042 28.6488 9.50042 28.6533 9.50042C28.6758 9.50493 28.6938 9.51393 28.7163 9.52294C28.7163 9.52294 28.7208 9.52294 28.7253 9.52294C28.7478 9.53194 28.7703 9.54095 28.7883 9.54995C28.8108 9.55896 28.8334 9.56796 28.8559 9.58147C28.9009 9.60398 28.9414 9.62649 28.9864 9.65351C29.045 9.56796 29.1395 9.47791 29.2206 9.40587C29.2341 9.39236 29.2476 9.38336 29.2611 9.37435C29.2746 9.36535 29.2836 9.35634 29.2971 9.34734L29.1665 9.25279C29.126 9.22577 29.117 9.16724 29.144 9.12671L29.1665 9.0997C29.1936 9.05918 29.2521 9.05017 29.2926 9.07719L29.6123 9.30231C29.6528 9.32933 29.6618 9.38786 29.6348 9.42838L29.6123 9.4554C29.5853 9.49592 29.5268 9.50493 29.4862 9.47791L29.3557 9.38336C29.3557 9.38336 29.3466 9.41037 29.3421 9.42838C29.3376 9.44189 29.3286 9.4599 29.3241 9.47791C29.2836 9.58147 29.2341 9.69853 29.171 9.78408C29.2116 9.8156 29.2476 9.84712 29.2791 9.88314C29.2971 9.90115 29.3151 9.91916 29.3286 9.93717C29.3421 9.95518 29.3602 9.97319 29.3737 9.9912C29.3737 9.9912 29.3737 9.9912 29.3737 9.9957C29.3872 10.0137 29.4007 10.0272 29.4142 10.0452C29.4142 10.0452 29.4187 10.0497 29.4232 10.0542C29.4367 10.0722 29.4457 10.0858 29.4592 10.1038C29.4592 10.1083 29.4637 10.1128 29.4682 10.1173C29.4772 10.1308 29.4907 10.1488 29.4997 10.1623C29.4997 10.1668 29.5042 10.1713 29.5087 10.1758C29.5177 10.1893 29.5267 10.2073 29.5358 10.2208C29.6303 10.1758 29.7564 10.1488 29.8644 10.1263C29.8824 10.1263 29.896 10.1218 29.914 10.1173C29.932 10.1173 29.9455 10.1128 29.959 10.1083L29.8915 9.96418C29.8689 9.91916 29.8915 9.86513 29.9365 9.84261L29.968 9.82911C29.968 9.82911 30.004 9.8201 30.022 9.8201C30.049 9.82461 30.0761 9.84261 30.0896 9.86963L30.2517 10.2208C30.2517 10.2208 30.2562 10.2343 30.2562 10.2388C30.2652 10.2659 30.2562 10.2974 30.2336 10.3199C30.2336 10.3199 30.2246 10.3289 30.2201 10.3334C30.2156 10.3334 30.2111 10.3379 30.2066 10.3424L30.1751 10.3559C30.1301 10.3784 30.0761 10.3559 30.0535 10.3109L29.986 10.1668C29.986 10.1668 29.9635 10.1848 29.95 10.1983C29.8599 10.2749 29.7339 10.3694 29.6258 10.4189C29.6933 10.599 29.7294 10.7926 29.7249 10.9863C29.8284 10.9953 29.9545 11.0313 30.0535 11.0673C30.0716 11.0718 30.0851 11.0808 30.1031 11.0853C30.1166 11.0898 30.1301 11.0943 30.1436 11.1033L30.1571 10.9457C30.1571 10.9457 30.1661 10.9097 30.1751 10.8962C30.1751 10.8962 30.1841 10.8872 30.1886 10.8827C30.2066 10.8692 30.2291 10.8602 30.2562 10.8602H30.2922C30.3417 10.8692 30.3777 10.9142 30.3732 10.9592L30.3372 11.3465C30.3372 11.3825 30.3102 11.414 30.2742 11.423C30.2652 11.423 30.2517 11.4275 30.2381 11.423H30.2021C30.1661 11.4185 30.1346 11.3915 30.1256 11.3555C30.1256 11.3465 30.1211 11.3329 30.1256 11.3194L30.1391 11.1619C30.1391 11.1619 30.1121 11.1664 30.0941 11.1709C30.0761 11.1709 30.0625 11.1754 30.0445 11.1799C29.9365 11.1979 29.8059 11.2114 29.7069 11.2024C29.7069 11.2204 29.7023 11.2384 29.6978 11.2519C29.6978 11.2564 29.6978 11.2654 29.6978 11.2744C29.6978 11.2924 29.6888 11.3104 29.6843 11.3284C29.6843 11.3329 29.6843 11.342 29.6843 11.3465C29.6798 11.3645 29.6753 11.3825 29.6663 11.405C29.6663 11.405 29.6663 11.414 29.6663 11.4185C29.6618 11.441 29.6528 11.459 29.6438 11.4815C29.6438 11.4815 29.6438 11.486 29.6438 11.4905C29.6348 11.513 29.6258 11.5356 29.6168 11.5536C29.6078 11.5761 29.5988 11.5986 29.5853 11.6211C29.5628 11.6661 29.5403 11.7067 29.5132 11.7517C29.5988 11.8102 29.6888 11.9048 29.7609 11.9903C29.7744 12.0038 29.7834 12.0173 29.7924 12.0308C29.8014 12.0443 29.8104 12.0534 29.8194 12.0669L29.914 11.9363C29.914 11.9363 29.941 11.9093 29.9545 11.9048C29.9635 11.9048 29.977 11.9003 29.9905 11.9003C30.0085 11.9003 30.0265 11.9048 30.04 11.9183L30.067 11.9408C30.067 11.9408 30.0941 11.9678 30.0986 11.9813C30.0986 11.9903 30.1031 12.0038 30.1031 12.0173C30.1031 12.0353 30.0986 12.0534 30.0851 12.0669L29.8599 12.3865C29.8599 12.3865 29.8329 12.4136 29.8194 12.4181C29.7924 12.4271 29.7609 12.4271 29.7339 12.409L29.7069 12.3865C29.6798 12.3685 29.6663 12.3415 29.6708 12.31C29.6708 12.292 29.6753 12.274 29.6888 12.2605L29.7834 12.1299C29.7699 12.1254 29.7564 12.1209 29.7429 12.1164C29.7294 12.1119 29.7114 12.1029 29.6933 12.0984C29.5898 12.0579 29.4727 12.0083 29.3872 11.9453C29.3557 11.9858 29.3241 12.0218 29.2881 12.0534C29.2701 12.0714 29.2521 12.0894 29.2341 12.1029C29.2161 12.1164 29.1981 12.1344 29.1801 12.1479C29.1801 12.1479 29.1801 12.1479 29.1756 12.1479C29.1575 12.1614 29.144 12.1749 29.126 12.1884C29.126 12.1884 29.1215 12.1929 29.117 12.1974C29.099 12.2109 29.0855 12.2199 29.0675 12.2335C29.063 12.2335 29.0585 12.238 29.054 12.2425C29.0405 12.2515 29.0225 12.2605 29.009 12.274C29.0045 12.274 28.9955 12.2785 28.9909 12.283C28.9774 12.292 28.9594 12.301 28.9459 12.31C28.9909 12.4045 29.0225 12.5306 29.0405 12.6387C29.0405 12.6567 29.045 12.6747 29.0495 12.6882C29.0495 12.7062 29.054 12.7197 29.0585 12.7332L29.1305 12.7017L29.2026 12.6657C29.2026 12.6657 29.2251 12.6567 29.2386 12.6567C29.2746 12.6567 29.3061 12.6747 29.3241 12.7107L29.3376 12.7422C29.3512 12.7693 29.3466 12.8008 29.3331 12.8278C29.3241 12.8413 29.3106 12.8548 29.2926 12.8638L28.9414 13.0259C28.8964 13.0484 28.8424 13.0259 28.8199 12.9809L28.8063 12.9494C28.7838 12.9043 28.8063 12.8503 28.8514 12.8278L28.9955 12.7602C28.9864 12.7512 28.9774 12.7377 28.9639 12.7242C28.9549 12.7107 28.9414 12.6972 28.9324 12.6837C28.8649 12.5982 28.7883 12.4946 28.7433 12.4C28.5632 12.4676 28.3696 12.5036 28.1715 12.4991C28.1625 12.6027 28.1265 12.7287 28.0904 12.8278C28.0859 12.8458 28.0769 12.8593 28.0724 12.8773C28.0679 12.8908 28.0634 12.9043 28.0544 12.9178L28.212 12.9313C28.212 12.9313 28.248 12.9403 28.2615 12.9494C28.2615 12.9494 28.2705 12.9584 28.2751 12.9629C28.2886 12.9809 28.2976 13.0034 28.2976 13.0304V13.0664C28.2886 13.1159 28.2435 13.152 28.1985 13.1475L27.8113 13.1114C27.7618 13.1114 27.7257 13.0619 27.7302 13.0124V12.9764C27.7392 12.9268 27.7843 12.8908 27.8293 12.8953L27.9869 12.9088C27.9869 12.9088 27.9824 12.8818 27.9779 12.8638C27.9779 12.8458 27.9734 12.8323 27.9689 12.8143C27.9509 12.7062 27.9374 12.5756 27.9464 12.4721C27.9284 12.4721 27.9103 12.4676 27.8923 12.4631C27.8878 12.4631 27.8788 12.4631 27.8743 12.4631C27.8563 12.4631 27.8383 12.4541 27.8203 12.4496C27.8158 12.4496 27.8113 12.4496 27.8023 12.4496C27.7843 12.4451 27.7618 12.4406 27.7438 12.4316C27.7438 12.4316 27.7347 12.4316 27.7302 12.4316C27.7077 12.4271 27.6897 12.4181 27.6672 12.409C27.6672 12.409 27.6672 12.409 27.6627 12.409C27.6402 12.4 27.6177 12.391 27.5997 12.382C27.5772 12.373 27.5546 12.364 27.5321 12.3505C27.4871 12.328 27.4466 12.3055 27.4016 12.2785C27.343 12.364 27.2485 12.4541 27.1629 12.5261C27.1494 12.5396 27.1359 12.5486 27.1224 12.5576C27.1089 12.5666 27.0999 12.5756 27.0864 12.5846L27.217 12.6792C27.2575 12.7062 27.2665 12.7647 27.2395 12.8053L27.217 12.8323C27.217 12.8323 27.1989 12.8503 27.1899 12.8548C27.1584 12.8728 27.1224 12.8728 27.0909 12.8548L26.7712 12.6297C26.7397 12.6072 26.7262 12.5711 26.7352 12.5351H26.7307Z" fill="#005750"/>
<path d="M8.24783 22.0579C8.24783 22.0579 8.23433 22.0714 8.22983 22.0714L8.20731 22.0804C8.17579 22.0939 8.13527 22.0804 8.12176 22.0534L8.07224 21.9499C8.06323 21.9589 8.05873 21.9634 8.04972 21.9724C8.04072 21.9814 8.03171 21.9859 8.02271 21.9949C7.96418 22.0444 7.88763 22.1029 7.8246 22.1345C7.83811 22.166 7.85161 22.202 7.86062 22.2335C7.86512 22.2515 7.86962 22.265 7.87413 22.2831C7.87413 22.3011 7.88313 22.3146 7.88313 22.3326C7.88313 22.3326 7.88313 22.3326 7.88313 22.3371C7.88313 22.3506 7.88763 22.3686 7.89214 22.3821C7.89214 22.3821 7.89214 22.3866 7.89214 22.3911C7.89214 22.4046 7.89214 22.4181 7.89664 22.4316C7.89664 22.4316 7.89664 22.4406 7.89664 22.4451C7.89664 22.4586 7.89664 22.4722 7.89664 22.4857C7.89664 22.4902 7.89664 22.4947 7.89664 22.4992C7.89664 22.5127 7.89664 22.5262 7.89664 22.5352C7.96868 22.5352 8.05873 22.5622 8.13527 22.5892C8.14878 22.5892 8.15778 22.5982 8.17129 22.6027C8.1803 22.6027 8.1938 22.6117 8.20281 22.6117L8.21181 22.4992C8.21181 22.4632 8.24333 22.4361 8.27935 22.4406H8.30637C8.30637 22.4406 8.33789 22.4496 8.35139 22.4632C8.3649 22.4767 8.3694 22.4902 8.3694 22.5082L8.35139 22.7873C8.35139 22.8234 8.31988 22.8504 8.28385 22.8459H8.25684C8.22983 22.8459 8.20731 22.8234 8.19831 22.8008C8.19831 22.7918 8.19831 22.7828 8.19831 22.7738L8.20731 22.6613C8.19831 22.6613 8.1848 22.6613 8.17579 22.6703C8.16229 22.6703 8.15328 22.6748 8.13977 22.6793C8.06323 22.6928 7.96868 22.7063 7.89664 22.7018C7.87863 22.8414 7.8336 22.9719 7.76607 23.0935C7.8291 23.134 7.89214 23.1971 7.94617 23.2556C7.95517 23.2646 7.96418 23.2736 7.96868 23.2826C7.97768 23.2916 7.98219 23.3006 7.99119 23.3051L8.05423 23.2106C8.07224 23.1791 8.11276 23.1745 8.14428 23.1926L8.16679 23.2061C8.19831 23.2241 8.20281 23.2646 8.1848 23.2961L8.03171 23.5257C8.03171 23.5257 8.02271 23.5393 8.0137 23.5438C8.0047 23.5483 8.0002 23.5528 7.99119 23.5528C7.97318 23.5528 7.95967 23.5528 7.94166 23.5438L7.91915 23.5302C7.91915 23.5302 7.90114 23.5122 7.89664 23.5032C7.88763 23.4852 7.89214 23.4627 7.90114 23.4447L7.96418 23.3501C7.96418 23.3501 7.94617 23.3456 7.93266 23.3411C7.92365 23.3411 7.91015 23.3321 7.89664 23.3276C7.8246 23.3006 7.73455 23.2646 7.67602 23.2241C7.66701 23.2331 7.65801 23.2466 7.649 23.2556C7.649 23.2556 7.6445 23.2601 7.64 23.2646C7.63099 23.2736 7.62199 23.2826 7.61298 23.2961C7.61298 23.2961 7.60848 23.3006 7.60398 23.3051C7.59497 23.3141 7.58597 23.3276 7.57246 23.3366C7.57246 23.3366 7.57246 23.3366 7.56796 23.3411C7.55895 23.3501 7.54544 23.3637 7.53193 23.3727C7.51843 23.3817 7.50492 23.3952 7.49591 23.4042C7.48241 23.4132 7.4689 23.4267 7.45539 23.4357C7.42838 23.4582 7.39686 23.4762 7.36534 23.4942C7.39686 23.5618 7.42387 23.6518 7.43738 23.7284C7.43738 23.7419 7.44188 23.7509 7.44639 23.7644C7.44639 23.7734 7.44639 23.7869 7.45089 23.7959L7.55445 23.7464C7.55445 23.7464 7.58146 23.7374 7.59047 23.7419C7.61298 23.7419 7.63099 23.7554 7.64 23.7779L7.649 23.8004C7.649 23.8004 7.65801 23.8409 7.649 23.8589C7.6445 23.8679 7.63549 23.8769 7.62199 23.8859L7.37435 24.0075C7.37435 24.0075 7.34733 24.0165 7.33833 24.012C7.31581 24.012 7.2978 23.9985 7.2888 23.976L7.27979 23.9535C7.27529 23.94 7.27079 23.9265 7.27529 23.9175C7.27529 23.9085 7.27529 23.8995 7.2843 23.895C7.2888 23.8859 7.2978 23.8769 7.31131 23.8679L7.41487 23.8184C7.41487 23.8184 7.40136 23.8049 7.39236 23.7959C7.38335 23.7869 7.37435 23.7779 7.36984 23.7689C7.32032 23.7103 7.26178 23.6338 7.23027 23.5708C7.19875 23.5843 7.16273 23.5978 7.13121 23.6068C7.1132 23.6113 7.09969 23.6158 7.08168 23.6203C7.06367 23.6203 7.05017 23.6293 7.03216 23.6293C7.03216 23.6293 7.03216 23.6293 7.02765 23.6293C7.01415 23.6293 6.99614 23.6338 6.98263 23.6383C6.98263 23.6383 6.97813 23.6383 6.97362 23.6383C6.96012 23.6383 6.94661 23.6383 6.9331 23.6428C6.9331 23.6428 6.9241 23.6428 6.91959 23.6428C6.90609 23.6428 6.89258 23.6428 6.87907 23.6428C6.87457 23.6428 6.87007 23.6428 6.86556 23.6428C6.85206 23.6428 6.83855 23.6428 6.82504 23.6428C6.82504 23.7149 6.79803 23.8049 6.77101 23.8814C6.77101 23.895 6.762 23.904 6.7575 23.9175C6.7575 23.9265 6.7485 23.94 6.7485 23.949L6.86106 23.958C6.89708 23.958 6.9241 23.9895 6.91959 24.0255V24.0525C6.91959 24.0886 6.88357 24.1156 6.84755 24.1111L6.5684 24.0931C6.53238 24.0931 6.50536 24.0615 6.50986 24.0255V23.9985C6.50986 23.9985 6.51887 23.967 6.53238 23.9535C6.53238 23.9535 6.53688 23.949 6.54138 23.9445C6.55039 23.94 6.56389 23.9355 6.5774 23.9355H6.62693L6.68996 23.9445C6.68996 23.9355 6.68546 23.922 6.68096 23.913C6.68096 23.8995 6.67646 23.8904 6.67195 23.8769C6.65845 23.8004 6.64494 23.7058 6.64944 23.6338C6.51437 23.6158 6.37929 23.5708 6.25772 23.5032C6.2172 23.5663 6.14966 23.6293 6.09563 23.6833C6.08663 23.6923 6.07762 23.7013 6.06862 23.7058C6.05961 23.7149 6.05061 23.7194 6.0461 23.7284L6.14066 23.7914C6.17218 23.8094 6.17668 23.8499 6.15867 23.8814L6.14516 23.904C6.14516 23.904 6.12715 23.922 6.11815 23.9265C6.10014 23.9355 6.07762 23.931 6.05961 23.922L5.82998 23.7689C5.82998 23.7689 5.80297 23.7374 5.80297 23.7149C5.80297 23.7013 5.80297 23.6878 5.81197 23.6788L5.82548 23.6563C5.82548 23.6563 5.83449 23.6428 5.84349 23.6383C5.866 23.6248 5.89302 23.6248 5.91553 23.6383L6.01008 23.7013C6.01008 23.7013 6.01459 23.6833 6.01909 23.6698C6.01909 23.6608 6.02809 23.6473 6.0326 23.6338C6.05961 23.5618 6.09563 23.4717 6.13616 23.4132C6.12715 23.4042 6.11814 23.3997 6.10914 23.3907C6.10914 23.3907 6.10014 23.3862 6.10014 23.3817C6.09113 23.3727 6.08212 23.3637 6.07312 23.3546C6.07312 23.3546 6.06862 23.3501 6.06412 23.3456C6.05511 23.3366 6.0416 23.3276 6.0326 23.3141C6.0326 23.3141 6.0326 23.3141 6.02809 23.3096C6.01909 23.3006 6.00558 23.2871 5.99658 23.2736C5.98757 23.2601 5.97406 23.2466 5.96506 23.2376C5.95605 23.2241 5.94255 23.2106 5.93354 23.1971C5.91103 23.17 5.89302 23.1385 5.87501 23.107C5.80747 23.1385 5.71742 23.1655 5.64088 23.1791C5.62737 23.1791 5.61837 23.1836 5.60486 23.1881C5.59585 23.1881 5.58235 23.1881 5.57334 23.1926L5.62287 23.2961C5.63638 23.3276 5.62287 23.3682 5.59585 23.3817L5.57334 23.3907C5.54182 23.4042 5.5013 23.3907 5.48779 23.3637L5.36623 23.116C5.35272 23.0845 5.36622 23.044 5.39324 23.0305L5.41575 23.0215C5.44727 23.008 5.48779 23.0215 5.5013 23.0485L5.55083 23.152C5.55083 23.152 5.56434 23.1385 5.57334 23.1295C5.58235 23.1205 5.59135 23.1115 5.60036 23.107C5.65889 23.0575 5.73543 22.999 5.79847 22.9674C5.78496 22.9359 5.77145 22.8999 5.76245 22.8684C5.75794 22.8504 5.75344 22.8369 5.74894 22.8188C5.74894 22.8008 5.73993 22.7873 5.73993 22.7693C5.73993 22.7693 5.73993 22.7693 5.73993 22.7648C5.73993 22.7513 5.73543 22.7333 5.73093 22.7198C5.73093 22.7198 5.73093 22.7153 5.73093 22.7108C5.73093 22.6973 5.73093 22.6838 5.72643 22.6703C5.72643 22.6703 5.72643 22.6613 5.72643 22.6568C5.72643 22.6433 5.72643 22.6297 5.72643 22.6162C5.72643 22.6162 5.72643 22.6072 5.72643 22.6027C5.72643 22.5892 5.72643 22.5757 5.72643 22.5622C5.65439 22.5622 5.56434 22.5352 5.48779 22.5082C5.47429 22.5082 5.46528 22.4992 5.45177 22.4947C5.44277 22.4947 5.42926 22.4857 5.42026 22.4857L5.41125 22.5982C5.41125 22.6342 5.37973 22.6613 5.34371 22.6568H5.3167C5.3167 22.6568 5.28968 22.6478 5.28068 22.6433C5.26267 22.6297 5.25366 22.6117 5.25366 22.5892L5.27167 22.3101C5.27167 22.3101 5.27167 22.3011 5.27167 22.2966C5.27617 22.274 5.29418 22.2605 5.31219 22.2515C5.31219 22.2515 5.3212 22.2515 5.3257 22.2515C5.3257 22.2515 5.33471 22.2515 5.33921 22.2515H5.36623C5.40225 22.2515 5.42926 22.2876 5.42476 22.3236L5.41575 22.4361C5.41575 22.4361 5.43827 22.4316 5.44727 22.4271C5.52832 22.4091 5.64088 22.3911 5.72643 22.4001C5.74444 22.265 5.78946 22.13 5.857 22.0084C5.79396 21.9679 5.73093 21.9003 5.6769 21.8463C5.66789 21.8373 5.65889 21.8283 5.65439 21.8193C5.64538 21.8103 5.64088 21.8013 5.63187 21.7968L5.56884 21.8913C5.56884 21.8913 5.55083 21.9093 5.54182 21.9138C5.54182 21.9138 5.53282 21.9138 5.52832 21.9138C5.51031 21.9138 5.4968 21.9138 5.47879 21.9048L5.45628 21.8913C5.42476 21.8733 5.42026 21.8328 5.43827 21.8013L5.59135 21.5717C5.59135 21.5717 5.63187 21.5401 5.65889 21.5446C5.66789 21.5446 5.6769 21.5491 5.6814 21.5536L5.70391 21.5672C5.70391 21.5672 5.73543 21.6077 5.73093 21.6347C5.73093 21.6437 5.72643 21.6527 5.72192 21.6572L5.65889 21.7518C5.65889 21.7518 5.6769 21.7563 5.69041 21.7608C5.69941 21.7608 5.71292 21.7698 5.72643 21.7743C5.79847 21.8013 5.88401 21.8373 5.94705 21.8778C5.95605 21.8688 5.96056 21.8598 5.96956 21.8508C5.96956 21.8508 5.97406 21.8418 5.97857 21.8373C5.98757 21.8283 5.99658 21.8193 6.00558 21.8103C6.00558 21.8103 6.01008 21.8058 6.01459 21.8013C6.02359 21.7923 6.0326 21.7833 6.0461 21.7698C6.0461 21.7698 6.0461 21.7698 6.05061 21.7653C6.05961 21.7563 6.07312 21.7427 6.08663 21.7337C6.10013 21.7247 6.11364 21.7112 6.12265 21.7022C6.13616 21.6932 6.14966 21.6797 6.16317 21.6707C6.19019 21.6482 6.2217 21.6302 6.25322 21.6122C6.2217 21.5446 6.19469 21.4546 6.18118 21.378C6.18118 21.3645 6.17668 21.3555 6.17218 21.342C6.17218 21.3285 6.17218 21.3195 6.16767 21.3105L6.06412 21.36C6.06412 21.36 6.0371 21.369 6.02809 21.3645C6.01909 21.3645 6.01008 21.3645 6.00558 21.3555C5.99658 21.351 5.98757 21.342 5.97857 21.3285L5.96956 21.306C5.96956 21.306 5.96056 21.279 5.96506 21.27C5.96506 21.261 5.96506 21.252 5.97406 21.2475C5.97857 21.2385 5.98757 21.2295 6.00108 21.2205L6.24872 21.0989C6.24872 21.0989 6.27573 21.0899 6.28474 21.0944C6.30725 21.0944 6.32526 21.1079 6.33427 21.1304L6.34327 21.1529C6.34327 21.1529 6.35228 21.1934 6.34327 21.2115C6.33877 21.2205 6.32976 21.2295 6.31626 21.2385L6.2127 21.288C6.2217 21.297 6.22621 21.3015 6.23521 21.3105C6.24422 21.3195 6.24872 21.3285 6.25772 21.3375C6.30725 21.3961 6.36578 21.4726 6.3973 21.5356C6.42882 21.5221 6.46484 21.5086 6.49636 21.4996C6.51437 21.4951 6.52787 21.4906 6.54588 21.4861C6.56389 21.4861 6.5774 21.4771 6.59541 21.4771C6.59541 21.4771 6.59541 21.4771 6.59991 21.4771C6.61342 21.4771 6.63143 21.4726 6.64494 21.4681C6.64494 21.4681 6.64944 21.4681 6.65394 21.4681C6.66745 21.4681 6.68096 21.4681 6.69447 21.4636C6.69447 21.4636 6.70347 21.4636 6.70797 21.4636C6.72148 21.4636 6.73499 21.4636 6.7485 21.4636C6.753 21.4636 6.7575 21.4636 6.762 21.4636C6.77551 21.4636 6.78902 21.4636 6.79803 21.4636C6.79803 21.3916 6.82504 21.3015 6.85206 21.225C6.85206 21.2115 6.86106 21.2024 6.86556 21.1889C6.86556 21.1799 6.87457 21.1664 6.87457 21.1574H6.81604L6.7575 21.1484C6.7485 21.1484 6.73949 21.1484 6.73499 21.1439C6.71248 21.1304 6.69897 21.1079 6.69897 21.0809V21.0539C6.69897 21.0539 6.71248 21.0133 6.73049 21.0043C6.73949 20.9998 6.753 20.9953 6.76651 20.9953L7.04566 21.0133C7.08168 21.0133 7.1087 21.0449 7.1042 21.0809V21.1079C7.1042 21.1439 7.06818 21.1709 7.03216 21.1664L6.91959 21.1574C6.91959 21.1664 6.91959 21.1799 6.9286 21.1889C6.9286 21.2024 6.9331 21.2115 6.9376 21.225C6.95111 21.3015 6.96462 21.3961 6.96012 21.4681C7.09969 21.4861 7.23027 21.5311 7.35183 21.5987C7.39236 21.5356 7.4599 21.4726 7.51393 21.4186C7.52293 21.4096 7.53193 21.4006 7.54094 21.3961C7.54995 21.387 7.55895 21.3825 7.56345 21.3735L7.4689 21.3105C7.4689 21.3105 7.45089 21.2925 7.44639 21.2835C7.44639 21.2835 7.44639 21.2745 7.44639 21.27C7.44639 21.252 7.44639 21.2385 7.45539 21.2205L7.4689 21.1979C7.48691 21.1664 7.52743 21.1619 7.55895 21.1799L7.78858 21.333C7.8201 21.351 7.8246 21.3916 7.80659 21.4231L7.79308 21.4456C7.77507 21.4771 7.73455 21.4816 7.70303 21.4636L7.60848 21.4006C7.60848 21.4006 7.60398 21.4186 7.59947 21.4321C7.59947 21.4411 7.59047 21.4546 7.58597 21.4681C7.55895 21.5401 7.52293 21.6302 7.48241 21.6887C7.49141 21.6977 7.50042 21.7067 7.51393 21.7112C7.51393 21.7112 7.52293 21.7157 7.52293 21.7202C7.53193 21.7292 7.54094 21.7382 7.55445 21.7473C7.55445 21.7473 7.55895 21.7518 7.56345 21.7563C7.57246 21.7653 7.58597 21.7743 7.59497 21.7878C7.59497 21.7878 7.59497 21.7878 7.59947 21.7923C7.60848 21.8013 7.62199 21.8148 7.63099 21.8283C7.64 21.8418 7.6535 21.8553 7.66251 21.8643C7.67151 21.8778 7.68502 21.8913 7.69403 21.9048C7.71654 21.9319 7.73455 21.9634 7.75256 21.9949C7.8201 21.9634 7.91015 21.9364 7.98669 21.9228C8.0002 21.9228 8.0092 21.9183 8.02271 21.9138C8.03171 21.9138 8.04522 21.9138 8.05423 21.9093L8.0047 21.8058C7.99119 21.7743 8.0047 21.7337 8.03171 21.7202L8.05423 21.7112C8.05423 21.7112 8.07224 21.7067 8.07674 21.7067C8.10375 21.7067 8.12627 21.7202 8.13977 21.7427L8.26134 21.9904C8.27485 22.0129 8.27035 22.0399 8.25234 22.0624L8.24783 22.0579Z" fill="#005750"/>
<path d="M12.8854 23.8184C12.8854 23.8184 12.8854 23.7869 12.8764 23.7734L12.8584 23.7329C12.8359 23.6743 12.7638 23.6473 12.7098 23.6743L12.5207 23.7554C12.5207 23.7374 12.5162 23.7194 12.5117 23.6968C12.5117 23.6968 12.5117 23.6968 12.5117 23.6923C12.5117 23.6698 12.5072 23.6518 12.5027 23.6293C12.4802 23.4897 12.4487 23.3276 12.3946 23.2106C12.4532 23.1836 12.5072 23.152 12.5567 23.116C12.5837 23.098 12.6062 23.0845 12.6333 23.0665C12.6558 23.0485 12.6828 23.0305 12.7053 23.0125C12.7053 23.0125 12.7098 23.0125 12.7143 23.008C12.7368 22.99 12.7548 22.9719 12.7773 22.9539C12.7773 22.9539 12.7863 22.9449 12.7909 22.9449C12.8089 22.9269 12.8269 22.9134 12.8449 22.8954C12.8494 22.8909 12.8539 22.8864 12.8629 22.8774C12.8809 22.8594 12.8944 22.8459 12.9124 22.8279C12.9169 22.8234 12.9259 22.8144 12.9304 22.8099C12.9439 22.7918 12.9619 22.7783 12.9755 22.7603C13.079 22.8414 13.2276 22.9134 13.3582 22.9674C13.3807 22.9764 13.3987 22.9855 13.4167 22.99C13.4167 22.99 13.4167 22.99 13.4212 22.99C13.4392 22.999 13.4572 23.0035 13.4752 23.0125L13.3537 23.1746C13.3176 23.2241 13.3266 23.2961 13.3762 23.3366L13.4122 23.3637C13.4392 23.3817 13.4662 23.3907 13.4977 23.3862C13.5293 23.3817 13.5563 23.3682 13.5743 23.3411L13.8715 22.9449C13.9075 22.8954 13.8985 22.8234 13.8489 22.7828L13.8129 22.7558C13.7769 22.7288 13.7229 22.7243 13.6869 22.7468C13.6733 22.7558 13.6643 22.7648 13.6508 22.7783L13.5293 22.9404C13.5203 22.9269 13.5068 22.9089 13.4932 22.8954C13.4797 22.8774 13.4662 22.8639 13.4527 22.8459C13.3672 22.7378 13.2546 22.6117 13.1511 22.5352C13.2861 22.3281 13.3762 22.094 13.4257 21.8508C13.5563 21.8688 13.7229 21.8508 13.8579 21.8373C13.8805 21.8373 13.903 21.8328 13.921 21.8283C13.921 21.8283 13.921 21.8283 13.9255 21.8283C13.9435 21.8283 13.966 21.8238 13.9795 21.8193L13.957 22.0219C13.948 22.0849 13.993 22.1435 14.0561 22.148H14.1011C14.1641 22.1615 14.2227 22.1165 14.2272 22.0534L14.2857 21.5627C14.2857 21.5627 14.2857 21.5311 14.2857 21.5176C14.2857 21.5041 14.2767 21.4906 14.2677 21.4771C14.2497 21.4546 14.2227 21.4366 14.1911 21.4321H14.1461C14.1236 21.4231 14.1011 21.4321 14.0786 21.4366C14.0471 21.4546 14.02 21.4861 14.0155 21.5266L13.993 21.7292C13.993 21.7292 13.957 21.7157 13.939 21.7067C13.921 21.6977 13.8985 21.6887 13.8805 21.6842C13.7499 21.6347 13.5923 21.5807 13.4617 21.5672C13.4617 21.5446 13.4617 21.5221 13.4617 21.4951C13.4617 21.4861 13.4617 21.4816 13.4617 21.4726C13.4617 21.4501 13.4617 21.4231 13.4617 21.4006C13.4617 21.3961 13.4617 21.3871 13.4617 21.3826C13.4617 21.3555 13.4617 21.333 13.4572 21.306C13.4572 21.3015 13.4572 21.297 13.4572 21.2925C13.4572 21.2655 13.4527 21.2385 13.4482 21.2115C13.4482 21.2115 13.4482 21.207 13.4482 21.2025C13.4482 21.1754 13.4392 21.1439 13.4347 21.1169C13.4302 21.0854 13.4212 21.0584 13.4167 21.0269C13.4032 20.9683 13.3852 20.9053 13.3627 20.8468C13.4842 20.7972 13.6193 20.7027 13.7319 20.6171C13.7499 20.6036 13.7679 20.5901 13.7814 20.5766C13.7994 20.5631 13.8129 20.5541 13.8264 20.5406L13.9075 20.7297C13.9075 20.7297 13.93 20.7702 13.9525 20.7792C13.984 20.7972 14.0245 20.8062 14.0606 20.7882L14.1011 20.7702C14.1371 20.7567 14.1596 20.7207 14.1686 20.6847C14.1686 20.6622 14.1686 20.6396 14.1596 20.6171L13.966 20.1624C13.966 20.1624 13.9435 20.1219 13.921 20.1128C13.8895 20.0948 13.8489 20.0858 13.8129 20.1038L13.7724 20.1219C13.7499 20.1309 13.7319 20.1444 13.7229 20.1669C13.7139 20.1804 13.7094 20.1939 13.7049 20.2074C13.7049 20.2299 13.7049 20.2524 13.7139 20.2749L13.7949 20.464C13.7949 20.464 13.7589 20.4685 13.7364 20.473C13.7139 20.473 13.6959 20.4775 13.6733 20.4821C13.5338 20.5046 13.3717 20.5361 13.2501 20.5901C13.2231 20.5316 13.1916 20.4775 13.1556 20.428C13.1375 20.401 13.1195 20.3785 13.106 20.3515C13.088 20.329 13.07 20.302 13.052 20.2794C13.052 20.2794 13.052 20.2794 13.0475 20.2749C13.0295 20.2524 13.0115 20.2299 12.9935 20.2119C12.9935 20.2119 12.9845 20.2029 12.9845 20.1984C12.9664 20.1804 12.9484 20.1624 12.9349 20.1399C12.9304 20.1354 12.9259 20.1309 12.9214 20.1264C12.9034 20.1083 12.8899 20.0948 12.8719 20.0768C12.8674 20.0723 12.8584 20.0678 12.8539 20.0588C12.8359 20.0453 12.8224 20.0273 12.8044 20.0138C12.8854 19.9102 12.9574 19.7616 13.0115 19.6311C13.0205 19.6086 13.0295 19.5906 13.034 19.5725C13.034 19.5725 13.034 19.5725 13.034 19.568C13.043 19.55 13.0475 19.532 13.0565 19.514L13.2186 19.6356C13.2681 19.6716 13.3402 19.6626 13.3807 19.6131L13.4077 19.577C13.4437 19.5275 13.4347 19.4555 13.3852 19.415L12.989 19.1178C12.9394 19.0818 12.8674 19.0908 12.8269 19.1403L12.7999 19.1763C12.7818 19.2033 12.7728 19.2304 12.7773 19.2619C12.7773 19.2709 12.7773 19.2754 12.7818 19.2844C12.7909 19.3069 12.8044 19.3249 12.8224 19.3384L12.8944 19.3924L12.9845 19.46C12.9845 19.46 12.9529 19.4825 12.9394 19.496C12.9214 19.5095 12.9079 19.523 12.8899 19.5365C12.7818 19.6221 12.6558 19.7346 12.5792 19.8382C12.3721 19.7031 12.138 19.6131 11.8994 19.5635C11.9174 19.433 11.8994 19.2664 11.8858 19.1313C11.8858 19.1088 11.8813 19.0863 11.8768 19.0683C11.8768 19.0683 11.8768 19.0683 11.8768 19.0638C11.8768 19.0457 11.8723 19.0232 11.8678 19.0052L12.0704 19.0277C12.1335 19.0367 12.192 18.9917 12.1965 18.9287V18.8837C12.2055 18.8611 12.1965 18.8386 12.192 18.8161C12.174 18.7846 12.1425 18.7621 12.1065 18.7576L11.6157 18.6991C11.5752 18.6946 11.5392 18.7081 11.5166 18.7396C11.5031 18.7576 11.4941 18.7756 11.4896 18.8026V18.8476C11.4896 18.8476 11.4851 18.8792 11.4896 18.8927C11.5031 18.9377 11.5392 18.9692 11.5842 18.9737L11.7868 18.9962C11.7868 18.9962 11.7733 19.0322 11.7643 19.0503C11.7643 19.0503 11.7643 19.0503 11.7643 19.0548C11.7553 19.0728 11.7463 19.0953 11.7418 19.1133C11.6922 19.2439 11.6382 19.4014 11.6247 19.532C11.6022 19.532 11.5797 19.532 11.5572 19.532C11.5482 19.532 11.5392 19.532 11.5301 19.532C11.5076 19.532 11.4851 19.532 11.4626 19.532C11.4536 19.532 11.4491 19.532 11.4401 19.532C11.4131 19.532 11.3906 19.532 11.3636 19.5365C11.3591 19.5365 11.3545 19.5365 11.3455 19.5365C11.3185 19.5365 11.2915 19.541 11.2645 19.5455C11.2645 19.5455 11.26 19.5455 11.2555 19.5455C11.2285 19.5455 11.197 19.5545 11.1699 19.559C11.1384 19.5635 11.1114 19.5725 11.0799 19.577C11.0214 19.5906 10.9583 19.6086 10.8998 19.6311C10.8503 19.5095 10.7557 19.3744 10.6702 19.2619C10.6567 19.2439 10.6432 19.2258 10.6296 19.2123C10.6161 19.1943 10.6026 19.1808 10.5936 19.1673L10.7827 19.0863C10.8413 19.0638 10.8683 18.9917 10.8413 18.9377L10.8233 18.8972C10.8007 18.8386 10.7287 18.8116 10.6747 18.8386L10.2199 19.0322C10.1614 19.0548 10.1344 19.1268 10.1614 19.1808L10.1794 19.2213C10.2019 19.2799 10.2739 19.3069 10.328 19.2799L10.5171 19.1988C10.5171 19.1988 10.5216 19.2349 10.5261 19.2574C10.5261 19.2574 10.5261 19.2574 10.5261 19.2619C10.5261 19.2844 10.5306 19.3024 10.5351 19.3249C10.5576 19.4645 10.5891 19.6266 10.6432 19.7481C10.5846 19.7752 10.5306 19.8067 10.4811 19.8427C10.454 19.8607 10.4315 19.8787 10.4045 19.8922C10.382 19.9102 10.355 19.9282 10.3325 19.9463C10.3325 19.9463 10.3325 19.9463 10.328 19.9508C10.3055 19.9688 10.2829 19.9868 10.2649 20.0048C10.2649 20.0048 10.2559 20.0093 10.2559 20.0138C10.2379 20.0318 10.2154 20.0498 10.1974 20.0633C10.1929 20.0678 10.1884 20.0723 10.1839 20.0768C10.1659 20.0948 10.1479 20.1083 10.1344 20.1264C10.1299 20.1309 10.1254 20.1399 10.1209 20.1444C10.1028 20.1624 10.0893 20.1804 10.0758 20.1939C9.97228 20.1128 9.82369 20.0408 9.69312 19.9913C9.67061 19.9823 9.6526 19.9733 9.63459 19.9688C9.63459 19.9688 9.63459 19.9688 9.63008 19.9688C9.61207 19.9598 9.59406 19.9553 9.57605 19.9463L9.69762 19.7842C9.73364 19.7346 9.72464 19.6626 9.67511 19.6221L9.63909 19.5951C9.63909 19.5951 9.59857 19.5725 9.57605 19.5725C9.54003 19.5725 9.50401 19.5861 9.477 19.6176L9.17983 20.0138C9.17983 20.0138 9.17083 20.0273 9.16633 20.0318C9.14832 20.0678 9.15282 20.1038 9.16633 20.1399C9.16633 20.1444 9.17533 20.1534 9.17983 20.1579C9.18434 20.1624 9.18884 20.1669 9.19784 20.1714L9.23386 20.1984C9.28339 20.2344 9.35543 20.2254 9.39595 20.1759L9.51752 20.0138C9.51752 20.0138 9.54003 20.0453 9.55354 20.0588C9.64359 20.1759 9.77416 20.329 9.89573 20.419C9.76066 20.6261 9.67061 20.8603 9.62108 21.0989C9.49051 21.0809 9.32391 21.0989 9.18884 21.1124C9.16633 21.1124 9.14381 21.1169 9.1258 21.1214C9.1258 21.1214 9.1258 21.1214 9.1213 21.1214C9.10329 21.1214 9.08078 21.1259 9.06277 21.1304L9.08528 20.9278C9.08528 20.9053 9.08528 20.8828 9.07177 20.8603C9.07177 20.8558 9.06277 20.8468 9.05827 20.8423C9.04026 20.8197 9.01324 20.8017 8.98172 20.7972H8.9367C8.87366 20.7837 8.81513 20.8287 8.81063 20.8918L8.75209 21.3826C8.74759 21.4276 8.7701 21.4726 8.81063 21.4951C8.82413 21.5041 8.83764 21.5086 8.85565 21.5086H8.90068C8.9457 21.5176 8.99073 21.4951 9.01324 21.4591C9.02224 21.4456 9.02675 21.4321 9.02675 21.4141L9.04926 21.2115C9.04926 21.2115 9.08528 21.225 9.10329 21.234C9.1213 21.243 9.14381 21.252 9.16182 21.2565C9.2924 21.306 9.44998 21.36 9.58056 21.3735C9.58056 21.3961 9.58056 21.4186 9.58056 21.4411C9.58056 21.4501 9.58056 21.4591 9.58056 21.4681C9.58056 21.4906 9.58056 21.5131 9.58056 21.5356C9.58056 21.5446 9.58056 21.5491 9.58056 21.5582C9.58056 21.5852 9.58056 21.6077 9.58506 21.6347C9.58506 21.6392 9.58506 21.6437 9.58506 21.6527C9.58506 21.6797 9.58956 21.7067 9.59406 21.7338C9.59406 21.7338 9.59406 21.7383 9.59406 21.7428C9.59406 21.7698 9.60307 21.8013 9.60757 21.8283C9.61207 21.8598 9.62108 21.8868 9.62558 21.9184C9.63909 21.9769 9.6571 22.0399 9.67961 22.0985C9.55804 22.148 9.42297 22.2425 9.31041 22.3281C9.2924 22.3416 9.27439 22.3551 9.26088 22.3686C9.24287 22.3821 9.22936 22.3956 9.21585 22.4046L9.13481 22.2155C9.13481 22.2155 9.1123 22.175 9.08978 22.166C9.07628 22.157 9.06277 22.1525 9.04926 22.148C9.02675 22.148 9.00423 22.148 8.98172 22.157L8.9412 22.175C8.9412 22.175 8.90068 22.1975 8.89167 22.22C8.88267 22.2335 8.87816 22.247 8.87366 22.2605C8.87366 22.2831 8.87366 22.3056 8.88267 22.3281L9.07627 22.7828C9.07627 22.7828 9.09879 22.8234 9.1213 22.8324C9.15282 22.8504 9.19334 22.8594 9.22936 22.8414L9.26988 22.8234C9.3059 22.8099 9.32842 22.7738 9.33742 22.7378C9.33742 22.7153 9.33742 22.6928 9.32842 22.6703L9.24737 22.4812C9.26538 22.4812 9.28339 22.4767 9.3059 22.4722C9.3059 22.4722 9.3059 22.4722 9.31041 22.4722C9.33292 22.4722 9.35093 22.4677 9.37344 22.4632C9.51302 22.4406 9.67511 22.4091 9.79217 22.3551C9.81919 22.4136 9.85071 22.4677 9.88673 22.5172C9.90474 22.5442 9.91825 22.5667 9.93626 22.5937C9.95427 22.6162 9.97228 22.6433 9.99029 22.6658C9.99029 22.6658 9.99029 22.6703 9.99479 22.6748C10.0128 22.6973 10.0308 22.7198 10.0488 22.7378C10.0488 22.7378 10.0578 22.7468 10.0578 22.7513C10.0758 22.7693 10.0893 22.7873 10.1074 22.8099C10.1119 22.8144 10.1164 22.8189 10.1209 22.8279C10.1389 22.8459 10.1524 22.8594 10.1704 22.8774C10.1749 22.8819 10.1839 22.8909 10.1884 22.8954C10.2064 22.9089 10.2199 22.9269 10.2379 22.9404C10.1569 23.044 10.0848 23.1926 10.0308 23.3231C10.0218 23.3457 10.0128 23.3637 10.0083 23.3817C10.0083 23.3817 10.0083 23.3817 10.0083 23.3862C9.99929 23.4042 9.99479 23.4222 9.98578 23.4402L9.90474 23.3817L9.82369 23.3186C9.82369 23.3186 9.79668 23.3006 9.78317 23.3006C9.73814 23.2916 9.69312 23.3006 9.6616 23.3411L9.63459 23.3772C9.61207 23.4087 9.60757 23.4492 9.61658 23.4852C9.62558 23.5077 9.63909 23.5258 9.6571 23.5393L10.0533 23.8364C10.1028 23.8724 10.1749 23.8634 10.2154 23.8139L10.2424 23.7779C10.2784 23.7284 10.2694 23.6563 10.2199 23.6158L10.0578 23.4942C10.0713 23.4852 10.0893 23.4717 10.1028 23.4582C10.1028 23.4582 10.1028 23.4582 10.1074 23.4582C10.1254 23.4447 10.1389 23.4312 10.1569 23.4177C10.2649 23.3321 10.391 23.2196 10.4676 23.116C10.6747 23.2511 10.9088 23.3411 11.1519 23.3907C11.1339 23.5212 11.1519 23.6878 11.1654 23.8229C11.1654 23.8454 11.1699 23.8679 11.1744 23.886C11.1744 23.886 11.1744 23.886 11.1744 23.8905C11.1744 23.9085 11.1789 23.931 11.1835 23.949L10.9808 23.9265C10.9583 23.9265 10.9358 23.9265 10.9133 23.94C10.9088 23.94 10.8998 23.949 10.8953 23.9535C10.8728 23.9715 10.8548 23.9985 10.8503 24.03V24.0751C10.8368 24.1381 10.8818 24.1966 10.9448 24.2011L11.4356 24.2597C11.4986 24.2687 11.5572 24.2236 11.5617 24.1606V24.1156C11.5752 24.0525 11.5301 23.994 11.4671 23.9895L11.2645 23.967C11.2645 23.967 11.278 23.931 11.287 23.913C11.296 23.895 11.305 23.8724 11.3095 23.8544C11.3591 23.7239 11.4131 23.5663 11.4266 23.4357C11.4491 23.4357 11.4716 23.4357 11.4941 23.4357C11.5031 23.4357 11.5076 23.4357 11.5166 23.4357C11.5392 23.4357 11.5617 23.4357 11.5887 23.4357C11.5977 23.4357 11.6022 23.4357 11.6112 23.4357C11.6382 23.4357 11.6607 23.4357 11.6877 23.4312C11.6922 23.4312 11.6967 23.4312 11.7012 23.4312C11.7283 23.4312 11.7553 23.4267 11.7823 23.4222C11.7823 23.4222 11.7868 23.4222 11.7913 23.4222C11.8183 23.4222 11.8498 23.4132 11.8768 23.4087C11.9084 23.4042 11.9354 23.3952 11.9669 23.3907C12.0254 23.3772 12.0885 23.3592 12.147 23.3366C12.1965 23.4582 12.2911 23.5933 12.3766 23.7059C12.3901 23.7239 12.4036 23.7419 12.4171 23.7554C12.4306 23.7734 12.4442 23.7869 12.4532 23.8004L12.2641 23.8815C12.2055 23.904 12.1785 23.976 12.2055 24.03L12.2235 24.0706C12.2235 24.0706 12.237 24.0976 12.2505 24.1066C12.2821 24.1381 12.3316 24.1471 12.3766 24.1291L12.8314 23.9355C12.8764 23.9175 12.9034 23.8724 12.9034 23.8274L12.8854 23.8184Z" fill="#005750"/>
<path d="M28.0949 15.6193C27.262 16.916 26.3254 18.1812 25.3664 19.3789C22.7099 22.6252 19.8778 25.9481 16.4244 28.3839C10.9448 32.2246 5.97407 32.5398 9.04028 24.3902L9.19337 24.4893C8.3559 27.2088 8.40543 28.8972 9.34195 29.5276C11.0034 30.4821 13.9615 28.3749 16.3434 26.2542C18.4595 24.3767 20.3596 22.2695 22.0526 20.0003C23.0431 18.6675 23.9976 17.2852 24.8801 15.9075C25.5195 14.989 26.0868 13.0979 27.4871 13.6472C28.2975 13.9624 28.5767 14.9079 28.0949 15.6238V15.6193Z" fill="#005750"/>
<path d="M12.8989 17.9516C14.1191 18.4289 14.6099 16.7855 15.1637 15.984C15.9291 14.7864 16.7576 13.5842 17.6221 12.427C19.0899 10.4549 20.7468 8.62241 22.5838 6.9925C24.655 5.15097 27.2304 3.31844 28.6712 4.14691C29.4862 4.69621 29.5267 6.16403 28.8018 8.52786L28.9324 8.6134C31.5979 1.53095 27.28 1.8011 22.5118 5.14196C19.5086 7.25815 17.0457 10.1488 14.7359 12.9718C13.903 14.0119 13.0925 15.1105 12.3631 16.2407C11.9444 16.862 12.1875 17.686 12.8899 17.9606L12.8989 17.9516Z" fill="#005750"/>
</g>
<defs>
<clipPath id="clip0_2_6">
<rect width="30.3425" height="30.1849" fill="white" transform="translate(0.0352478 0.80603)"/>
</clipPath>
</defs>
</svg>
