<svg width="25" height="36" viewBox="0 0 25 36" fill="none" xmlns="http://www.w3.org/2000/svg">
<path d="M14.52 17.2201V14.9201H16.82C17.22 14.9201 17.54 14.6001 17.54 14.2001V11.3701C17.54 10.9701 17.22 10.6501 16.82 10.6501H14.52V8.35007C14.52 7.95007 14.2 7.63007 13.8 7.63007H10.97C10.57 7.63007 10.25 7.95007 10.25 8.35007V10.6501H7.94998C7.54998 10.6501 7.22998 10.9701 7.22998 11.3701V14.2001C7.22998 14.6001 7.54998 14.9201 7.94998 14.9201H10.25V17.2201C10.25 17.6201 10.57 17.9401 10.97 17.9401H13.8C14.2 17.9401 14.52 17.6201 14.52 17.2201Z" fill="white"/>
<path d="M19.66 30.69C18.2999 30.32 16.5 30.08 14.54 29.97C15.05 29.18 15.6299 28.3 16.2599 27.34C19.7399 22.06 24.08 15.49 24.08 12.29C24.08 5.84004 18.83 0.600037 12.3899 0.600037C5.94995 0.600037 0.699951 5.85004 0.699951 12.29C0.699951 15.48 4.84995 21.77 8.50995 27.34C9.13995 28.3 9.71995 29.18 10.2299 29.97C8.26995 30.08 6.46995 30.32 5.10995 30.69C3.23995 31.2 2.32995 31.86 2.32995 32.72C2.32995 33.64 3.37995 34.34 5.52995 34.86C7.36995 35.3 9.79995 35.54 12.3899 35.54C14.9799 35.54 17.41 35.3 19.25 34.86C21.41 34.34 22.45 33.65 22.45 32.72C22.45 31.86 21.5399 31.2 19.6699 30.69H19.66ZM4.55995 12.78C4.55995 8.46004 8.06995 4.95004 12.3899 4.95004C16.7099 4.95004 20.2099 8.46004 20.2099 12.78C20.2099 17.1 16.6999 20.6 12.3899 20.6C8.07995 20.6 4.55995 17.09 4.55995 12.78ZM18.99 33.8C17.23 34.22 14.8799 34.45 12.3799 34.45C9.87995 34.45 7.52995 34.22 5.76995 33.8C3.81995 33.33 3.38995 32.82 3.38995 32.71C3.38995 32.62 3.73995 32.17 5.37995 31.72C6.79995 31.34 8.72995 31.08 10.84 31C11.3 31.72 11.65 32.28 11.91 32.75C12.01 32.92 12.1799 33.02 12.3799 33.02C12.5699 33.02 12.75 32.92 12.85 32.75C13.15 32.23 13.53 31.61 13.92 31.01C16.03 31.09 17.96 31.35 19.38 31.73C21.01 32.17 21.3699 32.63 21.3699 32.72C21.3699 32.82 20.95 33.34 18.99 33.81V33.8Z" fill="white"/>
</svg>
