<svg width="24" height="23" viewBox="0 0 24 23" fill="none" xmlns="http://www.w3.org/2000/svg">
<path d="M22.8136 0.457871C22.7795 0.432145 22.7496 0.406419 22.7154 0.380693C22.6984 0.367829 22.6813 0.359254 22.6642 0.346391C22.5916 0.303513 22.5148 0.264924 22.4379 0.23491C22.3995 0.222046 22.3568 0.209183 22.3141 0.19632C22.2117 0.170593 22.1007 0.153442 21.9897 0.153442H15.21C14.4884 0.153442 13.8523 0.727999 13.8523 1.45263C13.8523 2.18154 14.4799 2.78611 15.2014 2.78611L18.8645 2.80326L15.3295 6.36208C11.739 3.65652 6.64993 3.93951 3.39669 7.20676C-0.168203 10.787 -0.176737 16.584 3.38816 20.16C6.95306 23.7403 12.7252 23.736 16.2901 20.1557C19.5433 16.8885 19.7909 11.7389 17.1397 8.18008L20.6832 4.62126V8.27012C20.6832 8.99475 21.2681 9.58217 21.9897 9.58217C22.7112 9.58217 23.2961 8.99475 23.2961 8.27441V1.46549C23.2961 1.05815 23.1125 0.693697 22.8222 0.453584L22.8136 0.457871ZM14.4372 18.3077C11.8969 20.8589 7.75996 20.8589 5.21544 18.3077C2.67518 15.7565 2.67518 11.6017 5.21544 9.0462C7.75569 6.495 11.8927 6.495 14.4372 9.0462C16.9774 11.5974 16.9774 15.7522 14.4372 18.3077Z" fill="white"/>
</svg>
