<svg width="118" height="27" viewBox="0 0 118 27" fill="none" xmlns="http://www.w3.org/2000/svg">
<path d="M0.705867 0.535125H3.16287V10.2851H0.705867V0.535125ZM8.45387 0.535125H10.8979V10.2851H8.45387V0.535125ZM2.07087 4.26613H9.49387V6.42413H2.07087V4.26613ZM18.1995 0.535125C18.9968 0.535125 19.6815 0.673792 20.2535 0.951125C20.8342 1.21979 21.2762 1.60113 21.5795 2.09513C21.8915 2.58913 22.0475 3.16546 22.0475 3.82413C22.0475 4.48279 21.8915 5.05913 21.5795 5.55313C21.2762 6.04713 20.8342 6.43279 20.2535 6.71013C19.6815 6.97879 18.9968 7.11313 18.1995 7.11313H13.9355V5.12413H18.0695C18.5375 5.12413 18.9058 5.01146 19.1745 4.78613C19.4432 4.55213 19.5775 4.23146 19.5775 3.82413C19.5775 3.41679 19.4432 3.10046 19.1745 2.87513C18.9058 2.64113 18.5375 2.52413 18.0695 2.52413H14.1565L15.2615 1.38012V10.2851H12.8045V0.535125H18.1995ZM28.5514 9.19313H27.4854L31.3594 0.535125H33.9464L29.3704 10.2851H26.6014L22.0254 0.535125H24.6514L28.5514 9.19313ZM39.4157 4.82513H43.0687C43.528 4.82513 43.892 4.72113 44.1607 4.51313C44.4294 4.29646 44.5637 3.99746 44.5637 3.61613C44.5637 3.23479 44.4294 2.94013 44.1607 2.73213C43.892 2.51546 43.528 2.40713 43.0687 2.40713H39.0647L40.1697 1.19812V10.2851H37.7127V0.535125H43.3937C44.1217 0.535125 44.7587 0.665125 45.3047 0.925125C45.8507 1.18513 46.2754 1.54479 46.5787 2.00413C46.882 2.46346 47.0337 3.00079 47.0337 3.61613C47.0337 4.22279 46.882 4.75579 46.5787 5.21513C46.2754 5.67446 45.8507 6.03413 45.3047 6.29413C44.7587 6.54546 44.1217 6.67113 43.3937 6.67113H39.4157V4.82513ZM40.9887 5.72213H43.7577L47.3457 10.2851H44.4987L40.9887 5.72213ZM48.6307 0.535125H51.0877V10.2851H48.6307V0.535125ZM52.5172 7.10013H55.0002C55.0435 7.39479 55.1778 7.65479 55.4032 7.88013C55.6285 8.10546 55.9275 8.27879 56.3002 8.40013C56.6815 8.52146 57.1235 8.58213 57.6262 8.58213C58.3455 8.58213 58.9088 8.48246 59.3162 8.28313C59.7322 8.08379 59.9402 7.80213 59.9402 7.43813C59.9402 7.16079 59.8188 6.94846 59.5762 6.80113C59.3422 6.64513 58.9002 6.53246 58.2502 6.46313L56.3652 6.26813C55.0565 6.13813 54.1075 5.83479 53.5182 5.35813C52.9375 4.88146 52.6472 4.23146 52.6472 3.40813C52.6472 2.75813 52.8378 2.20346 53.2192 1.74413C53.6092 1.28479 54.1508 0.933792 54.8442 0.691125C55.5462 0.448459 56.3652 0.327125 57.3012 0.327125C58.2285 0.327125 59.0475 0.461459 59.7582 0.730126C60.4688 0.998792 61.0365 1.37146 61.4612 1.84813C61.8858 2.32479 62.1155 2.87946 62.1502 3.51213H59.6672C59.6325 3.25213 59.5112 3.03113 59.3032 2.84913C59.1038 2.65846 58.8308 2.51113 58.4842 2.40713C58.1462 2.29446 57.7345 2.23813 57.2492 2.23813C56.5992 2.23813 56.0792 2.33346 55.6892 2.52413C55.3078 2.70613 55.1172 2.97046 55.1172 3.31713C55.1172 3.57713 55.2298 3.78079 55.4552 3.92813C55.6892 4.07546 56.1008 4.18379 56.6902 4.25313L58.6792 4.47413C59.5892 4.56946 60.3172 4.72113 60.8632 4.92913C61.4092 5.13713 61.8035 5.42313 62.0462 5.78713C62.2888 6.15113 62.4102 6.61046 62.4102 7.16513C62.4102 7.83246 62.2065 8.41746 61.7992 8.92013C61.4005 9.41413 60.8372 9.79979 60.1092 10.0771C59.3898 10.3545 58.5492 10.4931 57.5872 10.4931C56.5905 10.4931 55.7152 10.3501 54.9612 10.0641C54.2158 9.77813 53.6265 9.38379 53.1932 8.88113C52.7685 8.36979 52.5432 7.77613 52.5172 7.10013ZM63.8143 10.2851V0.535125H66.2583V8.32213L65.5953 7.81513L71.3673 0.535125H73.9673L66.0243 10.2851H63.8143ZM68.4813 5.56613L70.2493 4.04513L74.0973 10.2851H71.3153L68.4813 5.56613ZM79.2417 4.59113H86.3007V6.68413H79.2417V4.59113ZM86.5347 0.535125V2.62813H79.2937L80.5027 1.41913V10.2851H78.0457V0.535125H86.5347ZM89.6637 4.82513H93.3167C93.7761 4.82513 94.1401 4.72113 94.4087 4.51313C94.6774 4.29646 94.8117 3.99746 94.8117 3.61613C94.8117 3.23479 94.6774 2.94013 94.4087 2.73213C94.1401 2.51546 93.7761 2.40713 93.3167 2.40713H89.3127L90.4177 1.19812V10.2851H87.9607V0.535125H93.6417C94.3697 0.535125 95.0067 0.665125 95.5527 0.925125C96.0987 1.18513 96.5234 1.54479 96.8267 2.00413C97.1301 2.46346 97.2817 3.00079 97.2817 3.61613C97.2817 4.22279 97.1301 4.75579 96.8267 5.21513C96.5234 5.67446 96.0987 6.03413 95.5527 6.29413C95.0067 6.54546 94.3697 6.67113 93.6417 6.67113H89.6637V4.82513ZM91.2367 5.72213H94.0057L97.5937 10.2851H94.7467L91.2367 5.72213ZM107.082 4.50013V6.32013H100.023V4.50013H107.082ZM101.687 5.41013L101.037 9.44013L100.01 8.28313H107.498V10.2851H98.5797L99.3337 5.41013L98.5797 0.535125H107.433V2.53713H100.01L101.037 1.38012L101.687 5.41013ZM117.314 4.50013V6.32013H110.255V4.50013H117.314ZM111.919 5.41013L111.269 9.44013L110.242 8.28313H117.73V10.2851H108.812L109.566 5.41013L108.812 0.535125H117.665V2.53713H110.242L111.269 1.38012L111.919 5.41013ZM11.4049 22.2551C11.3095 23.0958 11.0192 23.8368 10.5339 24.4781C10.0485 25.1108 9.4072 25.6048 8.60987 25.9601C7.81253 26.3155 6.90253 26.4931 5.87987 26.4931C4.76187 26.4931 3.7782 26.2808 2.92887 25.8561C2.0882 25.4315 1.43387 24.8378 0.965866 24.0751C0.497866 23.3125 0.263866 22.4241 0.263866 21.4101C0.263866 20.3961 0.497866 19.5078 0.965866 18.7451C1.43387 17.9825 2.0882 17.3888 2.92887 16.9641C3.7782 16.5395 4.76187 16.3271 5.87987 16.3271C6.90253 16.3271 7.81253 16.5048 8.60987 16.8601C9.4072 17.2155 10.0485 17.7095 10.5339 18.3421C11.0192 18.9748 11.3095 19.7158 11.4049 20.5651H8.93487C8.8482 20.1231 8.67053 19.7461 8.40187 19.4341C8.14187 19.1221 7.7952 18.8838 7.36187 18.7191C6.9372 18.5458 6.4432 18.4591 5.87987 18.4591C5.22987 18.4591 4.67087 18.5805 4.20287 18.8231C3.73487 19.0571 3.3752 19.3951 3.12387 19.8371C2.87253 20.2791 2.74687 20.8035 2.74687 21.4101C2.74687 22.0168 2.87253 22.5411 3.12387 22.9831C3.3752 23.4251 3.73487 23.7675 4.20287 24.0101C4.67087 24.2441 5.22987 24.3611 5.87987 24.3611C6.4432 24.3611 6.9372 24.2788 7.36187 24.1141C7.7952 23.9495 8.14187 23.7111 8.40187 23.3991C8.67053 23.0871 8.8482 22.7058 8.93487 22.2551H11.4049ZM18.0701 26.4931C16.9261 26.4931 15.9208 26.2808 15.0541 25.8561C14.1961 25.4315 13.5288 24.8378 13.0521 24.0751C12.5754 23.3125 12.3371 22.4241 12.3371 21.4101C12.3371 20.3961 12.5754 19.5078 13.0521 18.7451C13.5288 17.9825 14.1961 17.3888 15.0541 16.9641C15.9208 16.5395 16.9261 16.3271 18.0701 16.3271C19.2141 16.3271 20.2151 16.5395 21.0731 16.9641C21.9398 17.3888 22.6114 17.9825 23.0881 18.7451C23.5734 19.5078 23.8161 20.3961 23.8161 21.4101C23.8161 22.4241 23.5734 23.3125 23.0881 24.0751C22.6114 24.8378 21.9398 25.4315 21.0731 25.8561C20.2151 26.2808 19.2141 26.4931 18.0701 26.4931ZM18.0701 24.2961C18.7461 24.2961 19.3268 24.1835 19.8121 23.9581C20.2974 23.7241 20.6701 23.3905 20.9301 22.9571C21.1988 22.5238 21.3331 22.0081 21.3331 21.4101C21.3331 20.8121 21.1988 20.2965 20.9301 19.8631C20.6701 19.4298 20.2974 19.1005 19.8121 18.8751C19.3268 18.6411 18.7461 18.5241 18.0701 18.5241C17.4028 18.5241 16.8264 18.6411 16.3411 18.8751C15.8558 19.1005 15.4788 19.4298 15.2101 19.8631C14.9414 20.2965 14.8071 20.8121 14.8071 21.4101C14.8071 22.0081 14.9414 22.5238 15.2101 22.9571C15.4788 23.3905 15.8558 23.7241 16.3411 23.9581C16.8264 24.1835 17.4028 24.2961 18.0701 24.2961ZM39.2463 16.5351V26.2851H36.9063V17.3931L37.4783 17.4321L33.5133 26.2851H31.0043L27.0393 17.4581L27.6113 17.4061V26.2851H25.2713V16.5351H29.0543L32.7593 25.0631H31.7713L35.4633 16.5351H39.2463ZM55.1154 16.5351V26.2851H52.7754V17.3931L53.3474 17.4321L49.3824 26.2851H46.8734L42.9084 17.4581L43.4804 17.4061V26.2851H41.1404V16.5351H44.9234L48.6284 25.0631H47.6404L51.3324 16.5351H55.1154ZM59.3366 21.9691C59.3366 22.4458 59.4276 22.8618 59.6096 23.2171C59.8002 23.5638 60.0732 23.8325 60.4286 24.0231C60.7839 24.2051 61.2216 24.2961 61.7416 24.2961C62.2702 24.2961 62.7122 24.2051 63.0676 24.0231C63.4229 23.8325 63.6916 23.5638 63.8736 23.2171C64.0556 22.8618 64.1466 22.4458 64.1466 21.9691V16.5351H66.5906V22.0861C66.5906 22.9701 66.3869 23.7415 65.9796 24.4001C65.5809 25.0588 65.0176 25.5745 64.2896 25.9471C63.5616 26.3111 62.7122 26.4931 61.7416 26.4931C60.7709 26.4931 59.9216 26.3111 59.1936 25.9471C58.4656 25.5745 57.8979 25.0588 57.4906 24.4001C57.0832 23.7415 56.8796 22.9701 56.8796 22.0861V16.5351H59.3366V21.9691ZM77.4069 24.6081L76.6139 24.7511V16.5351H78.9929V26.2851H75.8989L69.9579 18.0691L70.7509 17.9261V26.2851H68.3719V16.5351H71.5569L77.4069 24.6081ZM80.8895 16.5351H83.3465V26.2851H80.8895V16.5351ZM88.325 17.6141H90.782V26.2851H88.325V17.6141ZM84.529 16.5351H94.578V18.7061H84.529V16.5351ZM99.4997 26.2851V21.5661H101.957V26.2851H99.4997ZM94.9237 16.5351H97.6407L101.281 21.1631H100.15L103.79 16.5351H106.507L101.515 22.8791L99.9287 22.9051L94.9237 16.5351Z" fill="#005750"/>
</svg>
