<svg width="20" height="27" viewBox="0 0 20 27" fill="none" xmlns="http://www.w3.org/2000/svg">
<path d="M9.72999 0.490234C4.41999 0.490234 0.119995 4.79024 0.119995 10.1002C0.119995 10.9502 0.239995 11.7602 0.449995 12.5402C2.14 20.1402 9.73999 26.9602 9.73999 26.9602C9.73999 26.9602 17.33 20.1402 19.03 12.5402C19.24 11.7602 19.36 10.9402 19.36 10.1002C19.36 4.79024 15.06 0.490234 9.74999 0.490234H9.72999ZM9.72999 13.8902C7.63999 13.8902 5.95 12.2002 5.95 10.1102C5.95 8.02024 7.63999 6.33023 9.72999 6.33023C11.82 6.33023 13.51 8.02024 13.51 10.1102C13.51 12.2002 11.82 13.8902 9.72999 13.8902Z" fill="white"/>
</svg>
