<svg width="56" height="57" viewBox="0 0 56 57" fill="none" xmlns="http://www.w3.org/2000/svg">
<path d="M17.7739 36.9204C18.6085 36.0855 19.4432 35.2691 20.2964 34.4156C16.1787 29.7771 14.3981 24.3407 15.0659 18.1993C15.678 12.6145 18.2747 7.99457 22.6705 4.4693C30.9429 -2.17307 42.8878 -1.31958 50.3626 6.41748C57.7261 14.0247 57.9116 26.1405 50.7336 34.3228C44.0007 42.0042 31.0171 44.1008 21.5762 35.77C20.7972 36.605 19.9996 37.4585 19.165 38.3676C20.4262 40.7425 19.6843 42.7649 17.7182 44.676C14.324 47.9415 11.0595 51.3369 7.70234 54.6395C5.17982 57.1258 1.19201 56.161 0.208973 52.8398C-0.273273 51.2256 0.0791379 49.7227 1.26621 48.5167C4.92015 44.8244 8.57409 41.1136 12.3022 37.4956C13.9159 35.9185 15.8634 35.9556 17.7739 36.9389V36.9204ZM35.5243 1.7604C25.4527 1.70474 16.6981 9.68299 16.6795 20.5186C16.6795 31.0573 24.9334 39.3324 35.4501 39.351C46.3006 39.351 54.2206 30.6306 54.2577 20.6299C54.2762 10.184 45.9296 1.77895 35.5243 1.7604Z" fill="#169787"/>
<path d="M35.4692 28.1999C32.5015 28.1999 29.5338 28.1999 26.5662 28.1999C25.4162 28.1999 24.5444 27.7917 23.9694 26.7898C23.3759 25.7693 23.4872 24.7489 24.0993 23.7655C27.0669 19.0713 30.0161 14.3586 33.0023 9.68293C34.2821 7.67909 36.6562 7.67909 37.936 9.68293C40.9037 14.34 43.8343 19.0156 46.7834 23.6913C47.4326 24.7117 47.5439 25.7322 46.9318 26.8084C46.3383 27.8474 45.4109 28.1999 44.2423 28.1814C41.3118 28.1443 38.3812 28.1814 35.4321 28.1814L35.4692 28.1999ZM36.3409 17.7169C36.3409 16.9561 36.4337 16.1769 36.3038 15.4347C36.2296 15.0636 35.7659 14.7668 35.4877 14.4328C35.2095 14.7668 34.6902 15.0822 34.6716 15.4161C34.5789 16.9376 34.5789 18.459 34.6716 19.9805C34.6716 20.2959 35.1168 20.7783 35.4506 20.8525C36.0256 21.0009 36.3409 20.5556 36.3409 19.9805C36.3409 19.2197 36.3409 18.459 36.3409 17.6983V17.7169ZM35.6917 22.1513C35.5434 22.1513 35.4135 22.1513 35.2651 22.1513C35.0611 22.4853 34.6345 22.8563 34.6902 23.1346C34.7458 23.4501 35.2095 23.8583 35.5434 23.9139C35.7659 23.951 36.2667 23.4315 36.2853 23.1346C36.3038 22.8192 35.9143 22.4853 35.6917 22.1698V22.1513Z" fill="#169787"/>
</svg>
