<svg width="39" height="63" viewBox="0 0 39 63" fill="none" xmlns="http://www.w3.org/2000/svg">
<path d="M7.14324 8.68506C8.01603 10.913 8.75101 13.2557 9.80755 15.4377C12.5408 20.973 16.1238 25.9571 20.0513 30.6656C26.092 37.8776 32.3163 44.9517 38.4718 52.0719C38.6326 52.2556 38.7933 52.4623 39 52.692C36.887 55.9305 34.7739 59.1231 32.5919 62.4305C31.0301 60.5701 29.5142 58.8475 28.0443 57.0789C22.8535 50.7627 17.5708 44.5154 12.5637 38.0383C9.83052 34.5012 7.57964 30.6196 5.19095 26.8529C3.69802 24.4871 3.37647 21.8688 3.7899 19.0896C4.27223 15.7822 5.14502 12.6356 6.59201 9.64972C6.77575 9.28223 6.98247 8.91474 7.09731 8.70803L7.14324 8.68506Z" fill="#FEE000"/>
<path d="M31.558 7.97266C32.2241 9.46558 33.0509 10.9126 33.5103 12.4514C34.2223 14.8631 34.7735 17.3207 35.2329 19.8012C35.6693 22.2818 35.0951 24.6475 33.8089 26.8065C31.8336 30.068 29.8124 33.3065 27.6993 36.7517C25.1499 33.6051 22.7842 30.7111 20.4414 27.7942C24.7594 21.5239 29.3071 15.5062 31.581 7.97266H31.558Z" fill="#FEE000"/>
<path d="M27.0335 13.2785C20.5565 10.4994 18.3974 10.5453 11.2773 13.646C10.106 11.0276 9.02645 8.40925 9.57769 5.44636C9.66956 4.94106 9.94518 4.38983 10.2897 3.99937C15.09 -1.30627 23.8409 -1.35221 28.6412 3.9764C29.1465 4.52764 29.3533 5.4923 29.3762 6.27321C29.3762 8.0877 28.1359 11.5559 27.0335 13.2785Z" fill="#FEE000"/>
<path d="M6.38514 62.4074C4.20317 59.0999 2.11307 55.9074 0 52.7378C3.69787 48.3968 7.37277 44.0788 11.1166 39.7148C13.4364 42.6548 15.7561 45.5717 18.1219 48.5346C14.2402 53.1282 10.3586 57.7219 6.38514 62.4303V62.4074Z" fill="#FEE000"/>
</svg>
