<svg width="65" height="52" viewBox="0 0 65 52" fill="none" xmlns="http://www.w3.org/2000/svg">
<path d="M28.2157 1.63441C30.6323 1.63441 32.4829 2.39708 34.0505 4.03137C35.335 5.38239 36.663 6.68982 37.9475 7.95368C38.1217 8.128 38.3177 8.32411 38.4918 8.49844L37.6645 9.32648L33.9851 13.0091L33.7674 12.7258C33.4409 12.3336 32.9837 12.1157 32.5047 12.1157C32.1781 12.1157 31.8733 12.2028 31.5903 12.3989L31.3943 12.5297C30.9589 12.8348 30.6977 13.3359 30.6977 13.8589V32.5116H10.1019V13.9025C10.1019 13.3142 9.79713 12.7912 9.29638 12.4861L9.12221 12.3989C8.86096 12.2464 8.5997 12.181 8.31667 12.181C7.8377 12.181 7.35873 12.3989 7.03216 12.7912L6.83622 13.0527L4.74616 10.939L2.30777 8.47665L2.50371 8.28053C3.65759 7.12563 4.85502 5.94894 6.05245 4.77225L6.42256 4.40181C6.90153 3.92242 7.35873 3.46482 7.8377 3.09438C9.12221 2.1356 10.4067 1.67799 11.7566 1.67799C11.8436 1.67799 11.9307 1.67799 12.0178 1.67799C12.3226 1.67799 12.6274 1.67799 12.9322 1.67799H12.9975C13.4329 3.57377 14.4344 5.09911 16.0237 6.23222C17.3083 7.14742 18.7669 7.60503 20.3563 7.60503C20.5522 7.60503 20.7264 7.60503 20.9223 7.60503C22.8817 7.47428 24.5581 6.66803 25.9297 5.22986C26.8877 4.2057 27.519 3.00722 27.8021 1.6562C27.9545 1.6562 28.0851 1.6562 28.2157 1.6562M28.2157 0.0219126C27.6061 0.0219126 26.9748 0.0654937 26.3434 0.152656C26.2998 1.6562 25.7991 2.98543 24.7323 4.11854C23.6655 5.25165 22.3592 5.88357 20.7917 5.99253C20.6393 5.99253 20.4869 5.99253 20.3345 5.99253C19.0935 5.99253 17.9614 5.64388 16.9381 4.92479C15.2835 3.7481 14.4997 2.09202 14.3691 0.0654937C13.8684 0.0654937 13.3676 0.0654937 12.9104 0.0654937C12.6274 0.0654937 12.3444 0.0654937 12.0831 0.0654937C11.9743 0.0654937 11.8654 0.0654937 11.7348 0.0654937C9.92775 0.0437032 8.31667 0.69742 6.85799 1.78695C6.13953 2.30992 5.52993 2.98543 4.89856 3.61735C3.22217 5.25165 1.56754 6.92952 0 8.47665C2.286 10.7864 4.52845 13.0527 6.96685 15.515C7.40227 14.9702 7.85947 14.4037 8.2949 13.8153C8.36022 13.8589 8.40376 13.8807 8.46907 13.9243V34.1677H32.3087V13.8807C32.3087 13.8807 32.4394 13.7935 32.4829 13.75C32.9401 14.3165 33.3973 14.9049 33.8327 15.4496C36.2276 13.0527 38.4918 10.7864 40.756 8.49844C38.9272 6.66803 37.0114 4.83763 35.1826 2.92006C33.2014 0.828163 30.8283 0.00012207 28.1722 0.00012207L28.2157 0.0219126Z" fill="#00B4CF"/>
<path d="M54.0367 50.9899H25.5379V26.7806C25.5379 26.7806 25.4073 26.6935 25.3202 26.6717C24.7759 27.369 24.2316 28.0445 23.7309 28.6982C20.8135 25.7565 18.1357 23.0545 15.3925 20.2871C17.2648 18.4349 19.246 16.4519 21.249 14.469C22.011 13.7281 22.7512 12.9218 23.6003 12.2899C25.4508 10.9171 27.4973 10.1109 29.8487 10.2198C30.7413 10.2634 31.6339 10.2198 32.5919 10.2198C32.7443 12.6604 33.6804 14.6215 35.6616 16.0379C37.0332 17.0185 38.579 17.4107 40.2772 17.3018C42.1495 17.171 43.6953 16.4083 44.9798 15.0573C46.2425 13.7281 46.8521 12.1156 46.8957 10.3288C51.0105 9.8058 54.6027 10.5903 57.5201 13.6627C59.6972 15.9507 61.9832 18.1516 64.1821 20.3306C61.4607 23.0545 58.7611 25.7565 55.8872 28.6546C55.3647 28.0009 54.8204 27.3036 54.2762 26.6281C54.2108 26.6717 54.1238 26.7371 54.0584 26.7806V51.0117L54.0367 50.9899Z" fill="#00B4CF"/>
</svg>
