<svg width="50" height="85" viewBox="0 0 50 85" fill="none" xmlns="http://www.w3.org/2000/svg">
<path d="M26.4906 57.2538C26.4906 64.704 26.4906 72.18 26.4906 79.6302C26.4906 82.0877 25.4511 83.7175 23.554 84.3642C20.5653 85.3989 17.6287 83.2777 17.6027 80.0182C17.6027 71.6109 17.6027 63.2294 17.5767 54.8221C17.5767 54.1495 18.0445 52.9854 16.901 52.9596C15.7055 52.9596 16.1733 54.1237 16.1733 54.7704C16.1473 63.2036 16.1733 71.6368 16.1473 80.0958C16.1473 82.036 14.9259 83.6916 13.1587 84.2866C11.3395 84.9074 9.15651 84.3383 8.16896 82.6568C7.59722 81.6997 7.28536 80.4321 7.28536 79.2939C7.23338 64.9368 7.25937 50.5796 7.25937 36.2225C7.25937 35.4464 7.33734 34.6704 7.23338 33.9202C7.18141 33.558 6.79158 33.2476 6.5317 32.9113C6.29781 33.2476 5.882 33.5839 5.882 33.9202C5.83002 36.9986 5.85601 40.0511 5.85601 43.1295C5.85601 46.2854 5.85601 49.4414 5.85601 52.5974C5.85601 54.6152 4.68654 55.9345 2.94533 55.9345C1.28208 55.9345 0.0346509 54.6152 0.0346509 52.7009C0.0346509 44.9403 -0.0433137 37.1796 0.0346509 29.4449C0.0866273 25.0214 3.15324 22.2017 7.59722 22.1758C13.7564 22.1758 19.9416 22.2793 26.1008 22.1241C29.7132 22.0465 33.7154 24.5557 33.7413 29.4708C33.7933 37.2314 33.7673 44.992 33.7413 52.7267C33.7413 54.641 32.4419 55.9345 30.7787 55.9086C29.0635 55.9086 27.92 54.5893 27.92 52.6491C27.92 46.6476 27.92 40.6202 27.92 34.6186C27.92 34.2824 27.998 33.8943 27.894 33.6098C27.7641 33.3252 27.4262 33.1183 27.1923 32.8854C26.9844 33.1183 26.6466 33.2993 26.5686 33.558C26.4647 33.9202 26.5166 34.3082 26.5166 34.6963C26.5166 42.1982 26.5166 49.7001 26.5166 57.202L26.4906 57.2538Z" fill="#045AFB"/>
<path d="M16.849 18.8904C12.353 18.8904 8.79266 15.3981 8.7147 10.897C8.63673 6.49927 12.379 2.74831 16.875 2.77418C21.319 2.77418 24.9313 6.36993 25.0093 10.7935C25.0873 15.2429 21.3969 18.8904 16.849 18.8904Z" fill="#045AFB"/>
<path d="M38.3413 20.3135C35.8204 20.3135 33.3256 20.3135 30.8047 20.3135C29.2454 20.3135 28.05 19.4081 27.6342 17.9335C27.4262 17.1833 27.5042 16.4332 27.868 15.7606C29.1155 13.4583 30.3889 11.1301 31.6363 8.82776C32.9357 6.44784 34.2092 4.09378 35.5086 1.71386C36.5221 -0.122816 38.7831 -0.562584 40.3944 0.782589C40.6802 1.01541 40.9401 1.32583 41.096 1.66212C43.6429 6.29262 46.1378 10.9231 48.6846 15.5278C49.6722 17.3127 48.8405 19.3046 47.3072 19.9772C46.8394 20.1841 46.3197 20.2876 45.7999 20.2876C43.305 20.3135 40.8102 20.2876 38.2893 20.2876L38.3413 20.3135ZM39.6147 9.57795C39.6147 8.56907 39.6147 7.56019 39.6147 6.55131C39.6147 5.72351 39.069 5.1544 38.3413 5.1544C37.5876 5.1544 37.0679 5.72351 37.0679 6.55131C37.0679 6.68065 37.0679 6.81 37.0679 6.96521C37.0679 8.82776 37.0679 10.7162 37.0679 12.5787C37.0679 13.5876 37.8735 14.2084 38.7571 13.9239C39.2769 13.7428 39.6147 13.2513 39.6147 12.6046C39.6147 11.5957 39.6147 10.5868 39.6147 9.57795ZM38.3413 17.7783C39.043 17.7783 39.6147 17.1834 39.6147 16.5108C39.6147 15.8123 39.017 15.2691 38.3153 15.2691C37.6396 15.2691 37.0419 15.864 37.0419 16.5366C37.0419 17.2351 37.6396 17.7783 38.3413 17.7783Z" fill="#045AFB"/>
</svg>
