<svg width="306" height="252" viewBox="0 0 306 252" fill="none" xmlns="http://www.w3.org/2000/svg">
<path fill-rule="evenodd" clip-rule="evenodd" d="M236 65C239.866 65 243 68.134 243 72C243 75.866 239.866 79 236 79H196C199.866 79 203 82.134 203 86C203 89.866 199.866 93 196 93H218C221.866 93 225 96.134 225 100C225 103.866 221.866 107 218 107H207.826C202.952 107 199 110.134 199 114C199 116.577 201 118.911 205 121C208.866 121 212 124.134 212 128C212 131.866 208.866 135 205 135H122C118.134 135 115 131.866 115 128C115 124.134 118.134 121 122 121H83C79.134 121 76 117.866 76 114C76 110.134 79.134 107 83 107H123C126.866 107 130 103.866 130 100C130 96.134 126.866 93 123 93H98C94.134 93 91 89.866 91 86C91 82.134 94.134 79 98 79H138C134.134 79 131 75.866 131 72C131 68.134 134.134 65 138 65H236ZM236 93C239.866 93 243 96.134 243 100C243 103.866 239.866 107 236 107C232.134 107 229 103.866 229 100C229 96.134 232.134 93 236 93Z" fill="#F3F7FF"/>
<path fill-rule="evenodd" clip-rule="evenodd" d="M101.771 94H100.823C94.7592 94 89.8438 89.0917 89.8438 83.037C89.8438 76.9824 94.7592 72.0741 100.823 72.0741C100.862 72.0741 100.901 72.0743 100.94 72.0747C101.916 63.5831 108.865 57 117.291 57C126.173 57 133.413 64.3132 133.748 73.4661C139.118 73.8128 143.844 79.0396 143.844 84.4897C143.844 88.9647 140.53 94 136.604 94H109.302" fill="white"/>
<path d="M101.771 94H100.823C94.7592 94 89.8438 89.0917 89.8438 83.037C89.8438 76.9824 94.7592 72.0741 100.823 72.0741C100.862 72.0741 100.901 72.0743 100.94 72.0747C101.916 63.5831 108.865 57 117.291 57C126.173 57 133.413 64.3132 133.748 73.4661C139.118 73.8128 143.844 79.0396 143.844 84.4897C143.844 88.9647 140.53 94 136.604 94H109.302" stroke="#009585" stroke-opacity="0.5" stroke-width="2.5" stroke-linecap="round"/>
<path d="M162.1 139.242C161.924 139.462 161.727 139.663 161.511 139.842C159.801 141.254 157.294 140.993 155.9 139.242C145.618 126.324 137.936 115.134 132.831 105.664C127.711 96.1666 125.25 88.5216 125.25 82.6608C125.25 63.6341 140.382 48.25 159 48.25C177.618 48.25 192.75 63.6341 192.75 82.6608C192.75 88.5216 190.289 96.1666 185.169 105.664C180.064 115.134 172.382 126.324 162.1 139.242L163.078 140.02L162.1 139.242Z" fill="white" stroke="#007869" stroke-width="2.5"/>
<path fill-rule="evenodd" clip-rule="evenodd" d="M133.023 98.2466C133.862 100.138 134.84 102.139 135.963 104.252C140.743 113.243 147.974 123.94 157.725 136.363C158.31 137.11 159.329 137.206 160.026 136.621C160.117 136.545 160.2 136.459 160.275 136.363C170.026 123.94 177.257 113.243 182.037 104.252C186.855 95.188 189 88.1868 189 83.0645C189 70.4005 181.701 59.559 171.27 54.711C169.87 59.5107 167.959 64.0926 165.6 68.3936C171.252 70.9559 175.19 76.7076 175.19 83.3922C175.19 92.461 167.942 99.8127 159 99.8127C152.974 99.8127 147.717 96.474 144.929 91.5212C141.216 94.1398 137.23 96.3986 133.023 98.2466Z" fill="#E8F0FE"/>
<path d="M141.921 138.23C142.601 138.109 143.053 137.459 142.931 136.78C142.81 136.1 142.16 135.648 141.481 135.77L141.921 138.23ZM134.508 137.4C133.846 137.598 133.471 138.295 133.669 138.956C133.867 139.618 134.563 139.993 135.225 139.795L134.508 137.4ZM131.206 141.234C131.84 140.961 132.132 140.226 131.859 139.592C131.586 138.958 130.851 138.665 130.217 138.938L131.206 141.234ZM177.047 135.866C176.369 135.74 175.716 136.187 175.59 136.866C175.463 137.545 175.911 138.197 176.59 138.324L177.047 135.866ZM141.481 135.77C138.957 136.221 136.616 136.769 134.508 137.4L135.225 139.795C137.229 139.195 139.476 138.668 141.921 138.23L141.481 135.77ZM130.217 138.938C128.033 139.878 126.21 140.963 124.913 142.191C123.615 143.421 122.75 144.892 122.75 146.565H125.25C125.25 145.815 125.63 144.956 126.633 144.006C127.637 143.055 129.169 142.111 131.206 141.234L130.217 138.938ZM122.75 146.565C122.75 148.663 124.101 150.435 126.005 151.85C127.932 153.282 130.641 154.519 133.876 155.535C140.362 157.574 149.244 158.815 159 158.815V156.315C149.426 156.315 140.808 155.093 134.626 153.15C131.528 152.177 129.111 151.043 127.496 149.843C125.858 148.626 125.25 147.504 125.25 146.565H122.75ZM159 158.815C168.756 158.815 177.638 157.574 184.124 155.535C187.359 154.519 190.068 153.282 191.995 151.85C193.899 150.435 195.25 148.663 195.25 146.565H192.75C192.75 147.504 192.142 148.626 190.504 149.843C188.889 151.043 186.472 152.177 183.374 153.15C177.192 155.093 168.574 156.315 159 156.315V158.815ZM195.25 146.565C195.25 143.797 192.925 141.591 189.86 139.937C186.693 138.227 182.258 136.836 177.047 135.866L176.59 138.324C181.665 139.269 185.821 140.598 188.673 142.137C191.627 143.731 192.75 145.302 192.75 146.565H195.25Z" fill="#007869"/>
<circle cx="159" cy="83" r="15.75" stroke="#007869" stroke-width="2.5"/>
<path fill-rule="evenodd" clip-rule="evenodd" d="M201.789 57.2237C200.875 54.9372 199.063 53.1254 196.776 52.2106L195 51.5L196.776 50.7893C199.063 49.8746 200.875 48.0628 201.789 45.7763L202.5 44L203.211 45.7763C204.125 48.0628 205.937 49.8746 208.224 50.7893L210 51.5L208.224 52.2106C205.937 53.1254 204.125 54.9372 203.211 57.2237L202.5 59L201.789 57.2237Z" stroke="#009585" stroke-opacity="0.5" stroke-width="2.5" stroke-linejoin="round"/>
<path fill-rule="evenodd" clip-rule="evenodd" d="M180.691 128H180C175.582 128 172 124.418 172 120C172 115.582 175.582 112 180 112C180.029 112 180.057 112 180.085 112C180.797 105.804 185.86 101 192 101C198.472 101 203.747 106.337 203.991 113.016C207.904 113.269 211.348 117.083 211.348 121.06C211.348 124.326 208.933 128 206.072 128H186.178" fill="white"/>
<path d="M180.691 128H180C175.582 128 172 124.418 172 120C172 115.582 175.582 112 180 112C180.029 112 180.057 112 180.085 112C180.797 105.804 185.86 101 192 101C198.472 101 203.747 106.337 203.991 113.016C207.904 113.269 211.348 117.083 211.348 121.06C211.348 124.326 208.933 128 206.072 128H186.178" stroke="#009585" stroke-opacity="0.5" stroke-width="2.5" stroke-linecap="round"/>
<path d="M6.88992 245.14H6.92992L11.5299 232.84H13.0699L7.64992 247H6.12992L0.729922 232.84H2.28992L6.88992 245.14ZM20.891 247C20.8643 246.747 20.8443 246.467 20.831 246.16C20.8177 245.853 20.811 245.6 20.811 245.4H20.771C20.5043 245.947 20.071 246.393 19.471 246.74C18.871 247.073 18.2377 247.24 17.571 247.24C16.3843 247.24 15.491 246.887 14.891 246.18C14.3043 245.473 14.011 244.54 14.011 243.38V237.64H15.371V242.82C15.371 243.313 15.411 243.76 15.491 244.16C15.571 244.56 15.7043 244.907 15.891 245.2C16.091 245.48 16.351 245.7 16.671 245.86C17.0043 246.02 17.4177 246.1 17.911 246.1C18.271 246.1 18.6177 246.027 18.951 245.88C19.2977 245.733 19.6043 245.513 19.871 245.22C20.1377 244.913 20.351 244.533 20.511 244.08C20.671 243.613 20.751 243.067 20.751 242.44V237.64H22.111V244.94C22.111 245.193 22.1177 245.52 22.131 245.92C22.1443 246.32 22.1643 246.68 22.191 247H20.891ZM27.0921 247H25.7321V237.64H27.0921V247ZM27.3721 234.04C27.3721 234.32 27.2721 234.553 27.0721 234.74C26.8721 234.913 26.6521 235 26.4121 235C26.1721 235 25.9521 234.913 25.7521 234.74C25.5521 234.553 25.4521 234.32 25.4521 234.04C25.4521 233.76 25.5521 233.533 25.7521 233.36C25.9521 233.173 26.1721 233.08 26.4121 233.08C26.6521 233.08 26.8721 233.173 27.0721 233.36C27.2721 233.533 27.3721 233.76 27.3721 234.04ZM37.1121 247H35.7521V231.88H37.1121V247ZM50.0512 242.32C50.0512 243.027 49.9245 243.68 49.6712 244.28C49.4312 244.88 49.0912 245.4 48.6512 245.84C48.2112 246.28 47.6845 246.627 47.0712 246.88C46.4578 247.12 45.7845 247.24 45.0512 247.24C44.3312 247.24 43.6645 247.12 43.0512 246.88C42.4378 246.627 41.9112 246.28 41.4712 245.84C41.0312 245.4 40.6845 244.88 40.4312 244.28C40.1912 243.68 40.0712 243.027 40.0712 242.32C40.0712 241.613 40.1912 240.96 40.4312 240.36C40.6845 239.76 41.0312 239.24 41.4712 238.8C41.9112 238.36 42.4378 238.02 43.0512 237.78C43.6645 237.527 44.3312 237.4 45.0512 237.4C45.7845 237.4 46.4578 237.527 47.0712 237.78C47.6845 238.02 48.2112 238.36 48.6512 238.8C49.0912 239.24 49.4312 239.76 49.6712 240.36C49.9245 240.96 50.0512 241.613 50.0512 242.32ZM48.6112 242.32C48.6112 241.8 48.5245 241.313 48.3512 240.86C48.1912 240.393 47.9578 239.993 47.6512 239.66C47.3445 239.313 46.9712 239.04 46.5312 238.84C46.0912 238.64 45.5978 238.54 45.0512 238.54C44.5045 238.54 44.0112 238.64 43.5712 238.84C43.1445 239.04 42.7778 239.313 42.4712 239.66C42.1645 239.993 41.9245 240.393 41.7512 240.86C41.5912 241.313 41.5112 241.8 41.5112 242.32C41.5112 242.84 41.5912 243.333 41.7512 243.8C41.9245 244.253 42.1645 244.653 42.4712 245C42.7778 245.333 43.1445 245.6 43.5712 245.8C44.0112 245.987 44.5045 246.08 45.0512 246.08C45.5978 246.08 46.0912 245.987 46.5312 245.8C46.9712 245.6 47.3445 245.333 47.6512 245C47.9578 244.653 48.1912 244.253 48.3512 243.8C48.5245 243.333 48.6112 242.84 48.6112 242.32ZM42.0112 232.84H43.8312L45.8312 235.72H44.6512L42.0112 232.84ZM54.1977 237.64C54.2244 237.893 54.2444 238.173 54.2577 238.48C54.2711 238.787 54.2777 239.04 54.2777 239.24H54.3177C54.5844 238.693 55.0177 238.253 55.6177 237.92C56.2177 237.573 56.8511 237.4 57.5177 237.4C58.7044 237.4 59.5911 237.753 60.1777 238.46C60.7777 239.167 61.0777 240.1 61.0777 241.26V247H59.7177V241.82C59.7177 241.327 59.6777 240.88 59.5977 240.48C59.5177 240.08 59.3777 239.74 59.1777 239.46C58.9911 239.167 58.7311 238.94 58.3977 238.78C58.0777 238.62 57.6711 238.54 57.1777 238.54C56.8177 238.54 56.4644 238.613 56.1177 238.76C55.7844 238.907 55.4844 239.133 55.2177 239.44C54.9511 239.733 54.7377 240.113 54.5777 240.58C54.4177 241.033 54.3377 241.573 54.3377 242.2V247H52.9777V239.7C52.9777 239.447 52.9711 239.12 52.9577 238.72C52.9444 238.32 52.9244 237.96 52.8977 237.64H54.1977ZM65.0988 248.88C65.4722 249.36 65.9788 249.767 66.6188 250.1C67.2722 250.433 67.9588 250.6 68.6788 250.6C69.3455 250.6 69.9122 250.5 70.3788 250.3C70.8455 250.113 71.2188 249.853 71.4988 249.52C71.7922 249.187 72.0055 248.793 72.1388 248.34C72.2722 247.9 72.3388 247.427 72.3388 246.92V245.16H72.2988C71.9388 245.747 71.4255 246.2 70.7588 246.52C70.1055 246.84 69.4388 247 68.7588 247C68.0255 247 67.3588 246.88 66.7588 246.64C66.1722 246.4 65.6655 246.073 65.2388 245.66C64.8255 245.233 64.4988 244.727 64.2588 244.14C64.0322 243.553 63.9188 242.92 63.9188 242.24C63.9188 241.573 64.0322 240.947 64.2588 240.36C64.4988 239.773 64.8255 239.26 65.2388 238.82C65.6655 238.38 66.1722 238.033 66.7588 237.78C67.3588 237.527 68.0255 237.4 68.7588 237.4C69.4388 237.4 70.1055 237.56 70.7588 237.88C71.4122 238.2 71.9255 238.66 72.2988 239.26H72.3388V237.64H73.6988V246.92C73.6988 247.427 73.6255 247.967 73.4788 248.54C73.3455 249.113 73.0855 249.64 72.6988 250.12C72.3255 250.6 71.8122 251 71.1588 251.32C70.5055 251.64 69.6588 251.8 68.6188 251.8C67.7522 251.8 66.9255 251.633 66.1388 251.3C65.3522 250.967 64.6788 250.507 64.1188 249.92L65.0988 248.88ZM65.3588 242.2C65.3588 242.693 65.4388 243.16 65.5988 243.6C65.7588 244.04 65.9855 244.427 66.2788 244.76C66.5855 245.093 66.9588 245.36 67.3988 245.56C67.8388 245.747 68.3388 245.84 68.8988 245.84C69.4188 245.84 69.8988 245.753 70.3388 245.58C70.7788 245.407 71.1588 245.16 71.4788 244.84C71.7988 244.52 72.0455 244.14 72.2188 243.7C72.4055 243.247 72.4988 242.747 72.4988 242.2C72.4988 241.707 72.4055 241.24 72.2188 240.8C72.0455 240.36 71.7988 239.973 71.4788 239.64C71.1588 239.307 70.7788 239.04 70.3388 238.84C69.8988 238.64 69.4188 238.54 68.8988 238.54C68.3388 238.54 67.8388 238.64 67.3988 238.84C66.9588 239.04 66.5855 239.307 66.2788 239.64C65.9855 239.973 65.7588 240.36 65.5988 240.8C65.4388 241.24 65.3588 241.707 65.3588 242.2ZM86.4555 238.78H83.8155V244.24C83.8155 244.587 83.8489 244.873 83.9155 245.1C83.9822 245.327 84.0755 245.507 84.1955 245.64C84.3289 245.76 84.4822 245.847 84.6555 245.9C84.8289 245.94 85.0155 245.96 85.2155 245.96C85.4022 245.96 85.5955 245.933 85.7955 245.88C86.0089 245.827 86.2089 245.753 86.3955 245.66L86.4555 246.84C86.2155 246.933 85.9622 247 85.6955 247.04C85.4422 247.093 85.1622 247.12 84.8555 247.12C84.6022 247.12 84.3355 247.087 84.0555 247.02C83.7755 246.953 83.5155 246.827 83.2755 246.64C83.0355 246.453 82.8355 246.2 82.6755 245.88C82.5289 245.56 82.4555 245.14 82.4555 244.62V238.78H80.5155V237.64H82.4555V235H83.8155V237.64H86.4555V238.78ZM90.0232 239.18C90.2765 238.633 90.6965 238.2 91.2832 237.88C91.8699 237.56 92.4965 237.4 93.1632 237.4C94.3499 237.4 95.2365 237.753 95.8232 238.46C96.4232 239.167 96.7232 240.1 96.7232 241.26V247H95.3632V241.82C95.3632 241.327 95.3232 240.88 95.2432 240.48C95.1632 240.08 95.0232 239.74 94.8232 239.46C94.6365 239.167 94.3765 238.94 94.0432 238.78C93.7232 238.62 93.3165 238.54 92.8232 238.54C92.4632 238.54 92.1099 238.613 91.7632 238.76C91.4299 238.907 91.1299 239.133 90.8632 239.44C90.5965 239.733 90.3832 240.113 90.2232 240.58C90.0632 241.033 89.9832 241.573 89.9832 242.2V247H88.6232V231.88H89.9832V239.18H90.0232ZM107.043 247C107.017 246.747 106.997 246.467 106.983 246.16C106.97 245.853 106.963 245.6 106.963 245.4H106.923C106.657 245.947 106.223 246.393 105.623 246.74C105.023 247.073 104.39 247.24 103.723 247.24C102.537 247.24 101.643 246.887 101.043 246.18C100.457 245.473 100.163 244.54 100.163 243.38V237.64H101.523V242.82C101.523 243.313 101.563 243.76 101.643 244.16C101.723 244.56 101.857 244.907 102.043 245.2C102.243 245.48 102.503 245.7 102.823 245.86C103.157 246.02 103.57 246.1 104.063 246.1C104.423 246.1 104.77 246.027 105.103 245.88C105.45 245.733 105.757 245.513 106.023 245.22C106.29 244.913 106.503 244.533 106.663 244.08C106.823 243.613 106.903 243.067 106.903 242.44V237.64H108.083C108.603 237.64 108.983 237.527 109.223 237.3C109.463 237.06 109.583 236.707 109.583 236.24C109.583 236.053 109.55 235.853 109.483 235.64C109.43 235.427 109.363 235.247 109.283 235.1L110.463 234.78C110.65 235.18 110.743 235.667 110.743 236.24C110.743 237 110.523 237.58 110.083 237.98C109.643 238.38 109.037 238.58 108.263 238.58V244.94C108.263 245.193 108.27 245.52 108.283 245.92C108.297 246.32 108.317 246.68 108.343 247H107.043ZM103.663 235.9C103.663 235.607 103.723 235.36 103.843 235.16C103.963 234.96 104.197 234.773 104.543 234.6C104.783 234.48 104.95 234.347 105.043 234.2C105.15 234.053 105.203 233.893 105.203 233.72C105.203 233.48 105.123 233.287 104.963 233.14C104.817 232.993 104.597 232.92 104.303 232.92C104.01 232.92 103.777 233 103.603 233.16C103.43 233.307 103.317 233.573 103.263 233.96L102.203 233.82C102.31 233.233 102.55 232.8 102.923 232.52C103.297 232.24 103.77 232.1 104.343 232.1C104.943 232.1 105.41 232.253 105.743 232.56C106.077 232.853 106.243 233.227 106.243 233.68C106.243 234.373 105.917 234.867 105.263 235.16C105.023 235.267 104.857 235.38 104.763 235.5C104.683 235.62 104.643 235.753 104.643 235.9H103.663ZM118.46 247H117.1V231.88H118.46V247ZM127.999 240.96C127.999 240.147 127.785 239.54 127.359 239.14C126.932 238.74 126.312 238.54 125.499 238.54C124.939 238.54 124.419 238.64 123.939 238.84C123.459 239.04 123.052 239.307 122.719 239.64L121.959 238.74C122.345 238.353 122.852 238.033 123.479 237.78C124.119 237.527 124.839 237.4 125.639 237.4C126.145 237.4 126.619 237.473 127.059 237.62C127.499 237.753 127.885 237.96 128.219 238.24C128.552 238.52 128.812 238.873 128.999 239.3C129.185 239.727 129.279 240.227 129.279 240.8V244.9C129.279 245.26 129.292 245.633 129.319 246.02C129.345 246.407 129.385 246.733 129.439 247H128.219C128.179 246.773 128.145 246.527 128.119 246.26C128.092 245.993 128.079 245.733 128.079 245.48H128.039C127.612 246.107 127.125 246.56 126.579 246.84C126.045 247.107 125.399 247.24 124.639 247.24C124.279 247.24 123.905 247.187 123.519 247.08C123.145 246.987 122.799 246.827 122.479 246.6C122.172 246.373 121.912 246.08 121.699 245.72C121.499 245.36 121.399 244.92 121.399 244.4C121.399 243.68 121.579 243.113 121.939 242.7C122.312 242.273 122.805 241.96 123.419 241.76C124.032 241.547 124.732 241.413 125.519 241.36C126.319 241.293 127.145 241.26 127.999 241.26V240.96ZM127.599 242.32C127.039 242.32 126.472 242.347 125.899 242.4C125.339 242.44 124.825 242.533 124.359 242.68C123.905 242.813 123.532 243.013 123.239 243.28C122.945 243.547 122.799 243.9 122.799 244.34C122.799 244.673 122.859 244.953 122.979 245.18C123.112 245.407 123.285 245.593 123.499 245.74C123.712 245.873 123.945 245.973 124.199 246.04C124.465 246.093 124.732 246.12 124.999 246.12C125.479 246.12 125.905 246.04 126.279 245.88C126.652 245.707 126.965 245.48 127.219 245.2C127.472 244.907 127.665 244.573 127.799 244.2C127.932 243.827 127.999 243.433 127.999 243.02V242.32H127.599ZM124.879 249.88C124.879 249.653 124.952 249.453 125.099 249.28C125.245 249.12 125.432 249.04 125.659 249.04C125.885 249.04 126.072 249.12 126.219 249.28C126.379 249.453 126.459 249.653 126.459 249.88C126.459 250.12 126.379 250.32 126.219 250.48C126.072 250.653 125.885 250.74 125.659 250.74C125.432 250.74 125.245 250.653 125.099 250.48C124.952 250.32 124.879 250.12 124.879 249.88ZM134.162 247H132.802V237.64H134.162V247ZM134.442 234.04C134.442 234.32 134.342 234.553 134.142 234.74C133.942 234.913 133.722 235 133.482 235C133.242 235 133.022 234.913 132.822 234.74C132.622 234.553 132.522 234.32 132.522 234.04C132.522 233.76 132.622 233.533 132.822 233.36C133.022 233.173 133.242 233.08 133.482 233.08C133.722 233.08 133.942 233.173 134.142 233.36C134.342 233.533 134.442 233.76 134.442 234.04ZM146.622 247H145.122L141.302 237.64H142.822L145.862 245.56H145.902L148.962 237.64H150.422L146.622 247ZM162.988 235.36C163.175 235.76 163.268 236.247 163.268 236.82C163.268 237.58 163.041 238.16 162.588 238.56C162.148 238.96 161.541 239.16 160.768 239.16C161.155 239.627 161.428 240.133 161.588 240.68C161.761 241.227 161.848 241.773 161.848 242.32C161.848 243.027 161.721 243.68 161.468 244.28C161.228 244.88 160.888 245.4 160.448 245.84C160.008 246.28 159.481 246.627 158.868 246.88C158.255 247.12 157.581 247.24 156.848 247.24C156.128 247.24 155.461 247.12 154.848 246.88C154.235 246.627 153.708 246.28 153.268 245.84C152.828 245.4 152.481 244.88 152.228 244.28C151.988 243.68 151.868 243.027 151.868 242.32C151.868 241.613 151.988 240.96 152.228 240.36C152.481 239.76 152.828 239.24 153.268 238.8C153.708 238.36 154.235 238.02 154.848 237.78C155.461 237.527 156.128 237.4 156.848 237.4C157.301 237.4 157.701 237.447 158.048 237.54C158.395 237.62 158.708 237.713 158.988 237.82C159.268 237.913 159.535 238.007 159.788 238.1C160.055 238.18 160.328 238.22 160.608 238.22C161.128 238.22 161.508 238.107 161.748 237.88C161.988 237.64 162.108 237.287 162.108 236.82C162.108 236.633 162.075 236.433 162.008 236.22C161.955 236.007 161.888 235.827 161.808 235.68L162.988 235.36ZM160.408 242.32C160.408 241.8 160.321 241.313 160.148 240.86C159.988 240.393 159.755 239.993 159.448 239.66C159.141 239.313 158.768 239.04 158.328 238.84C157.888 238.64 157.395 238.54 156.848 238.54C156.301 238.54 155.808 238.64 155.368 238.84C154.941 239.04 154.575 239.313 154.268 239.66C153.961 239.993 153.721 240.393 153.548 240.86C153.388 241.313 153.308 241.8 153.308 242.32C153.308 242.84 153.388 243.333 153.548 243.8C153.721 244.253 153.961 244.653 154.268 245C154.575 245.333 154.941 245.6 155.368 245.8C155.808 245.987 156.301 246.08 156.848 246.08C157.395 246.08 157.888 245.987 158.328 245.8C158.768 245.6 159.141 245.333 159.448 245C159.755 244.653 159.988 244.253 160.148 243.8C160.321 243.333 160.408 242.84 160.408 242.32ZM156.808 235.72H155.628L157.628 232.84H159.448L156.808 235.72ZM166.155 247H164.795V237.64H166.155V247ZM166.435 234.04C166.435 234.32 166.335 234.553 166.135 234.74C165.935 234.913 165.715 235 165.475 235C165.235 235 165.015 234.913 164.815 234.74C164.615 234.553 164.515 234.32 164.515 234.04C164.515 233.76 164.615 233.533 164.815 233.36C165.015 233.173 165.235 233.08 165.475 233.08C165.715 233.08 165.935 233.173 166.135 233.36C166.335 233.533 166.435 233.76 166.435 234.04ZM182.515 234.6V231.88H183.875V234.6H184.995V235.6H183.875V247H182.515V245.42H182.475C182.075 246.02 181.555 246.473 180.915 246.78C180.275 247.087 179.615 247.24 178.935 247.24C178.201 247.24 177.535 247.113 176.935 246.86C176.348 246.607 175.841 246.26 175.415 245.82C175.001 245.38 174.675 244.86 174.435 244.26C174.208 243.66 174.095 243.013 174.095 242.32C174.095 241.627 174.208 240.98 174.435 240.38C174.675 239.78 175.001 239.26 175.415 238.82C175.841 238.38 176.348 238.033 176.935 237.78C177.535 237.527 178.201 237.4 178.935 237.4C179.615 237.4 180.275 237.56 180.915 237.88C181.555 238.187 182.075 238.647 182.475 239.26H182.515V235.6H179.395V234.6H182.515ZM175.535 242.32C175.535 242.84 175.615 243.333 175.775 243.8C175.935 244.253 176.161 244.653 176.455 245C176.761 245.333 177.135 245.6 177.575 245.8C178.015 245.987 178.515 246.08 179.075 246.08C179.595 246.08 180.075 245.987 180.515 245.8C180.955 245.6 181.335 245.333 181.655 245C181.975 244.667 182.221 244.273 182.395 243.82C182.581 243.353 182.675 242.853 182.675 242.32C182.675 241.787 182.581 241.293 182.395 240.84C182.221 240.373 181.975 239.973 181.655 239.64C181.335 239.293 180.955 239.027 180.515 238.84C180.075 238.64 179.595 238.54 179.075 238.54C178.515 238.54 178.015 238.64 177.575 238.84C177.135 239.04 176.761 239.313 176.455 239.66C176.161 239.993 175.935 240.393 175.775 240.86C175.615 241.313 175.535 241.8 175.535 242.32ZM188.889 247H187.529V237.64H188.889V247ZM189.169 234.04C189.169 234.32 189.069 234.553 188.869 234.74C188.669 234.913 188.449 235 188.209 235C187.969 235 187.749 234.913 187.549 234.74C187.349 234.553 187.249 234.32 187.249 234.04C187.249 233.76 187.349 233.533 187.549 233.36C187.749 233.173 187.969 233.08 188.209 233.08C188.449 233.08 188.669 233.173 188.869 233.36C189.069 233.533 189.169 233.76 189.169 234.04ZM187.409 249.88C187.409 249.653 187.482 249.453 187.629 249.28C187.776 249.12 187.962 249.04 188.189 249.04C188.416 249.04 188.602 249.12 188.749 249.28C188.909 249.453 188.989 249.653 188.989 249.88C188.989 250.12 188.909 250.32 188.749 250.48C188.602 250.653 188.416 250.74 188.189 250.74C187.962 250.74 187.776 250.653 187.629 250.48C187.482 250.32 187.409 250.12 187.409 249.88ZM198.409 240.96C198.409 240.147 198.196 239.54 197.769 239.14C197.342 238.74 196.722 238.54 195.909 238.54C195.349 238.54 194.829 238.64 194.349 238.84C193.869 239.04 193.462 239.307 193.129 239.64L192.369 238.74C192.756 238.353 193.262 238.033 193.889 237.78C194.529 237.527 195.249 237.4 196.049 237.4C196.556 237.4 197.029 237.473 197.469 237.62C197.909 237.753 198.296 237.96 198.629 238.24C198.962 238.52 199.222 238.873 199.409 239.3C199.596 239.727 199.689 240.227 199.689 240.8V244.9C199.689 245.26 199.702 245.633 199.729 246.02C199.756 246.407 199.796 246.733 199.849 247H198.629C198.589 246.773 198.556 246.527 198.529 246.26C198.502 245.993 198.489 245.733 198.489 245.48H198.449C198.022 246.107 197.536 246.56 196.989 246.84C196.456 247.107 195.809 247.24 195.049 247.24C194.689 247.24 194.316 247.187 193.929 247.08C193.556 246.987 193.209 246.827 192.889 246.6C192.582 246.373 192.322 246.08 192.109 245.72C191.909 245.36 191.809 244.92 191.809 244.4C191.809 243.68 191.989 243.113 192.349 242.7C192.722 242.273 193.216 241.96 193.829 241.76C194.442 241.547 195.142 241.413 195.929 241.36C196.729 241.293 197.556 241.26 198.409 241.26V240.96ZM198.009 242.32C197.449 242.32 196.882 242.347 196.309 242.4C195.749 242.44 195.236 242.533 194.769 242.68C194.316 242.813 193.942 243.013 193.649 243.28C193.356 243.547 193.209 243.9 193.209 244.34C193.209 244.673 193.269 244.953 193.389 245.18C193.522 245.407 193.696 245.593 193.909 245.74C194.122 245.873 194.356 245.973 194.609 246.04C194.876 246.093 195.142 246.12 195.409 246.12C195.889 246.12 196.316 246.04 196.689 245.88C197.062 245.707 197.376 245.48 197.629 245.2C197.882 244.907 198.076 244.573 198.209 244.2C198.342 243.827 198.409 243.433 198.409 243.02V242.32H198.009ZM215.933 234.6V231.88H217.293V234.6H218.413V235.6H217.293V247H215.933V245.42H215.893C215.493 246.02 214.973 246.473 214.333 246.78C213.693 247.087 213.033 247.24 212.353 247.24C211.619 247.24 210.953 247.113 210.353 246.86C209.766 246.607 209.259 246.26 208.833 245.82C208.419 245.38 208.093 244.86 207.853 244.26C207.626 243.66 207.513 243.013 207.513 242.32C207.513 241.627 207.626 240.98 207.853 240.38C208.093 239.78 208.419 239.26 208.833 238.82C209.259 238.38 209.766 238.033 210.353 237.78C210.953 237.527 211.619 237.4 212.353 237.4C213.033 237.4 213.693 237.56 214.333 237.88C214.973 238.187 215.493 238.647 215.893 239.26H215.933V235.6H212.813V234.6H215.933ZM208.953 242.32C208.953 242.84 209.033 243.333 209.193 243.8C209.353 244.253 209.579 244.653 209.873 245C210.179 245.333 210.553 245.6 210.993 245.8C211.433 245.987 211.933 246.08 212.493 246.08C213.013 246.08 213.493 245.987 213.933 245.8C214.373 245.6 214.753 245.333 215.073 245C215.393 244.667 215.639 244.273 215.813 243.82C215.999 243.353 216.093 242.853 216.093 242.32C216.093 241.787 215.999 241.293 215.813 240.84C215.639 240.373 215.393 239.973 215.073 239.64C214.753 239.293 214.373 239.027 213.933 238.84C213.493 238.64 213.013 238.54 212.493 238.54C211.933 238.54 211.433 238.64 210.993 238.84C210.553 239.04 210.179 239.313 209.873 239.66C209.579 239.993 209.353 240.393 209.193 240.86C209.033 241.313 208.953 241.8 208.953 242.32ZM222.307 247H220.947V237.64H222.307V247ZM222.587 234.04C222.587 234.32 222.487 234.553 222.287 234.74C222.087 234.913 221.867 235 221.627 235C221.387 235 221.167 234.913 220.967 234.74C220.767 234.553 220.667 234.32 220.667 234.04C220.667 233.76 220.767 233.533 220.967 233.36C221.167 233.173 221.387 233.08 221.627 233.08C221.867 233.08 222.087 233.173 222.287 233.36C222.487 233.533 222.587 233.76 222.587 234.04ZM233.067 241.6C233.027 240.72 232.74 239.993 232.207 239.42C231.687 238.833 230.94 238.54 229.967 238.54C229.514 238.54 229.094 238.627 228.707 238.8C228.32 238.96 227.98 239.187 227.687 239.48C227.394 239.76 227.16 240.087 226.987 240.46C226.814 240.82 226.714 241.2 226.687 241.6H233.067ZM234.447 242.04C234.447 242.133 234.447 242.233 234.447 242.34C234.447 242.447 234.44 242.56 234.427 242.68H226.667C226.68 243.147 226.774 243.587 226.947 244C227.12 244.413 227.36 244.773 227.667 245.08C227.974 245.387 228.334 245.633 228.747 245.82C229.16 245.993 229.607 246.08 230.087 246.08C230.794 246.08 231.4 245.92 231.907 245.6C232.427 245.267 232.82 244.887 233.087 244.46L234.107 245.26C233.547 245.967 232.927 246.473 232.247 246.78C231.58 247.087 230.86 247.24 230.087 247.24C229.394 247.24 228.747 247.12 228.147 246.88C227.56 246.627 227.054 246.28 226.627 245.84C226.2 245.4 225.86 244.88 225.607 244.28C225.367 243.68 225.247 243.027 225.247 242.32C225.247 241.613 225.367 240.96 225.607 240.36C225.847 239.76 226.18 239.24 226.607 238.8C227.034 238.36 227.534 238.02 228.107 237.78C228.68 237.527 229.3 237.4 229.967 237.4C230.7 237.4 231.347 237.527 231.907 237.78C232.467 238.02 232.934 238.353 233.307 238.78C233.68 239.193 233.96 239.68 234.147 240.24C234.347 240.8 234.447 241.4 234.447 242.04ZM233.087 236.12H231.767L230.107 233.96L228.447 236.12H227.127L229.307 233.24H230.907L233.087 236.12ZM232.707 234.08C232.707 233.84 232.754 233.633 232.847 233.46C232.94 233.287 233.12 233.127 233.387 232.98C233.694 232.82 233.847 232.627 233.847 232.4C233.847 232.28 233.794 232.173 233.687 232.08C233.594 231.973 233.454 231.92 233.267 231.92C232.854 231.92 232.6 232.147 232.507 232.6L231.527 232.48C231.607 232.04 231.8 231.713 232.107 231.5C232.414 231.273 232.8 231.16 233.267 231.16C233.747 231.16 234.127 231.273 234.407 231.5C234.687 231.727 234.827 232.013 234.827 232.36C234.827 232.64 234.76 232.873 234.627 233.06C234.494 233.233 234.28 233.387 233.987 233.52C233.68 233.667 233.527 233.853 233.527 234.08H232.707ZM238.712 239.24C238.979 238.693 239.386 238.253 239.932 237.92C240.492 237.573 241.112 237.4 241.792 237.4C242.046 237.4 242.306 237.427 242.572 237.48C242.852 237.533 243.119 237.64 243.372 237.8C243.639 237.947 243.879 238.147 244.092 238.4C244.319 238.653 244.512 238.98 244.672 239.38C244.992 238.74 245.426 238.253 245.972 237.92C246.532 237.573 247.192 237.4 247.952 237.4C249.139 237.4 250.026 237.753 250.612 238.46C251.212 239.167 251.512 240.1 251.512 241.26V247H250.152V241.82C250.152 240.833 249.966 240.04 249.592 239.44C249.232 238.84 248.612 238.54 247.732 238.54C247.239 238.54 246.819 238.64 246.472 238.84C246.139 239.04 245.866 239.307 245.652 239.64C245.452 239.96 245.306 240.327 245.212 240.74C245.119 241.153 245.072 241.58 245.072 242.02V247H243.712V241.54C243.712 241.087 243.679 240.673 243.612 240.3C243.546 239.927 243.426 239.613 243.252 239.36C243.092 239.093 242.866 238.893 242.572 238.76C242.279 238.613 241.906 238.54 241.452 238.54C241.132 238.54 240.806 238.613 240.472 238.76C240.152 238.907 239.859 239.133 239.592 239.44C239.339 239.733 239.132 240.113 238.972 240.58C238.812 241.033 238.732 241.573 238.732 242.2V247H237.372V239.7C237.372 239.447 237.366 239.12 237.352 238.72C237.339 238.32 237.319 237.96 237.292 237.64H238.592C238.619 237.893 238.639 238.173 238.652 238.48C238.666 238.787 238.672 239.04 238.672 239.24H238.712ZM261.429 241.86H261.489L265.809 237.64H267.769L263.049 241.92L268.249 247H266.249L261.489 242.08H261.429V247H260.069V231.88H261.429V241.86ZM271.664 239.18C271.917 238.633 272.337 238.2 272.924 237.88C273.51 237.56 274.137 237.4 274.804 237.4C275.99 237.4 276.877 237.753 277.464 238.46C278.064 239.167 278.364 240.1 278.364 241.26V247H277.004V241.82C277.004 241.327 276.964 240.88 276.884 240.48C276.804 240.08 276.664 239.74 276.464 239.46C276.277 239.167 276.017 238.94 275.684 238.78C275.364 238.62 274.957 238.54 274.464 238.54C274.104 238.54 273.75 238.613 273.404 238.76C273.07 238.907 272.77 239.133 272.504 239.44C272.237 239.733 272.024 240.113 271.864 240.58C271.704 241.033 271.624 241.573 271.624 242.2V247H270.264V231.88H271.624V239.18H271.664ZM287.784 240.96C287.784 240.147 287.571 239.54 287.144 239.14C286.717 238.74 286.097 238.54 285.284 238.54C284.724 238.54 284.204 238.64 283.724 238.84C283.244 239.04 282.837 239.307 282.504 239.64L281.744 238.74C282.131 238.353 282.637 238.033 283.264 237.78C283.904 237.527 284.624 237.4 285.424 237.4C285.931 237.4 286.404 237.473 286.844 237.62C287.284 237.753 287.671 237.96 288.004 238.24C288.337 238.52 288.597 238.873 288.784 239.3C288.971 239.727 289.064 240.227 289.064 240.8V244.9C289.064 245.26 289.077 245.633 289.104 246.02C289.131 246.407 289.171 246.733 289.224 247H288.004C287.964 246.773 287.931 246.527 287.904 246.26C287.877 245.993 287.864 245.733 287.864 245.48H287.824C287.397 246.107 286.911 246.56 286.364 246.84C285.831 247.107 285.184 247.24 284.424 247.24C284.064 247.24 283.691 247.187 283.304 247.08C282.931 246.987 282.584 246.827 282.264 246.6C281.957 246.373 281.697 246.08 281.484 245.72C281.284 245.36 281.184 244.92 281.184 244.4C281.184 243.68 281.364 243.113 281.724 242.7C282.097 242.273 282.591 241.96 283.204 241.76C283.817 241.547 284.517 241.413 285.304 241.36C286.104 241.293 286.931 241.26 287.784 241.26V240.96ZM287.384 242.32C286.824 242.32 286.257 242.347 285.684 242.4C285.124 242.44 284.611 242.533 284.144 242.68C283.691 242.813 283.317 243.013 283.024 243.28C282.731 243.547 282.584 243.9 282.584 244.34C282.584 244.673 282.644 244.953 282.764 245.18C282.897 245.407 283.071 245.593 283.284 245.74C283.497 245.873 283.731 245.973 283.984 246.04C284.251 246.093 284.517 246.12 284.784 246.12C285.264 246.12 285.691 246.04 286.064 245.88C286.437 245.707 286.751 245.48 287.004 245.2C287.257 244.907 287.451 244.573 287.584 244.2C287.717 243.827 287.784 243.433 287.784 243.02V242.32H287.384ZM285.564 235.72H284.384L286.384 232.84H288.204L285.564 235.72ZM299.308 239.78C299.081 239.42 298.748 239.127 298.308 238.9C297.881 238.66 297.414 238.54 296.908 238.54C296.361 238.54 295.868 238.64 295.428 238.84C294.988 239.027 294.608 239.293 294.288 239.64C293.981 239.973 293.741 240.373 293.568 240.84C293.408 241.293 293.328 241.787 293.328 242.32C293.328 242.853 293.408 243.347 293.568 243.8C293.741 244.253 293.981 244.653 294.288 245C294.594 245.333 294.968 245.6 295.408 245.8C295.848 245.987 296.341 246.08 296.888 246.08C297.488 246.08 297.994 245.967 298.408 245.74C298.821 245.513 299.161 245.22 299.428 244.86L300.448 245.62C300.048 246.113 299.554 246.507 298.968 246.8C298.394 247.093 297.701 247.24 296.888 247.24C296.128 247.24 295.441 247.12 294.828 246.88C294.214 246.627 293.688 246.28 293.248 245.84C292.821 245.4 292.488 244.88 292.248 244.28C292.008 243.68 291.888 243.027 291.888 242.32C291.888 241.613 292.008 240.96 292.248 240.36C292.488 239.76 292.821 239.24 293.248 238.8C293.688 238.36 294.214 238.02 294.828 237.78C295.441 237.527 296.128 237.4 296.888 237.4C297.514 237.4 298.148 237.54 298.788 237.82C299.441 238.087 299.968 238.487 300.368 239.02L299.308 239.78ZM304.768 243.16H303.328V232.84H304.768V243.16ZM305.128 246.04C305.128 246.32 305.028 246.573 304.828 246.8C304.628 247.013 304.368 247.12 304.048 247.12C303.728 247.12 303.468 247.013 303.268 246.8C303.068 246.573 302.968 246.32 302.968 246.04C302.968 245.76 303.068 245.513 303.268 245.3C303.468 245.073 303.728 244.96 304.048 244.96C304.368 244.96 304.628 245.073 304.828 245.3C305.028 245.513 305.128 245.76 305.128 246.04Z" fill="#007869"/>
<path d="M29.8329 220L24.5729 213.48H24.5329V220H21.1729V205.84H24.5329V211.6H24.5929L29.6529 205.84H33.9329L27.8329 212.36L34.2929 220H29.8329ZM41.7716 220V214.6C41.7716 214.32 41.7516 214.053 41.7116 213.8C41.6716 213.547 41.5916 213.327 41.4716 213.14C41.365 212.94 41.2183 212.787 41.0316 212.68C40.845 212.56 40.605 212.5 40.3116 212.5C39.7383 212.5 39.2983 212.707 38.9916 213.12C38.685 213.52 38.5316 214.02 38.5316 214.62V220H35.2516V204.88H38.5316V211.3H38.5716C38.7983 210.9 39.1583 210.547 39.6516 210.24C40.145 209.92 40.7383 209.76 41.4316 209.76C42.1116 209.76 42.6783 209.88 43.1316 210.12C43.5983 210.36 43.9716 210.673 44.2516 211.06C44.545 211.433 44.7516 211.867 44.8716 212.36C45.005 212.853 45.0716 213.347 45.0716 213.84V220H41.7716ZM58.1154 214.98C58.1154 215.793 57.9687 216.533 57.6754 217.2C57.3821 217.853 56.9821 218.413 56.4754 218.88C55.9687 219.333 55.3821 219.687 54.7154 219.94C54.0487 220.193 53.3354 220.32 52.5754 220.32C51.8287 220.32 51.1154 220.193 50.4354 219.94C49.7687 219.687 49.1821 219.333 48.6754 218.88C48.1821 218.413 47.7887 217.853 47.4954 217.2C47.2021 216.533 47.0554 215.793 47.0554 214.98C47.0554 214.167 47.2021 213.433 47.4954 212.78C47.7887 212.127 48.1821 211.573 48.6754 211.12C49.1821 210.667 49.7687 210.32 50.4354 210.08C51.1154 209.84 51.8287 209.72 52.5754 209.72C53.3354 209.72 54.0487 209.84 54.7154 210.08C55.3821 210.32 55.9687 210.667 56.4754 211.12C56.9821 211.573 57.3821 212.127 57.6754 212.78C57.9687 213.433 58.1154 214.167 58.1154 214.98ZM54.9554 214.98C54.9554 214.66 54.9021 214.347 54.7954 214.04C54.6887 213.733 54.5354 213.467 54.3354 213.24C54.1354 213 53.8887 212.807 53.5954 212.66C53.3021 212.513 52.9621 212.44 52.5754 212.44C52.1887 212.44 51.8487 212.513 51.5554 212.66C51.2621 212.807 51.0154 213 50.8154 213.24C50.6287 213.467 50.4821 213.733 50.3754 214.04C50.2821 214.347 50.2354 214.66 50.2354 214.98C50.2354 215.3 50.2821 215.613 50.3754 215.92C50.4821 216.227 50.6354 216.507 50.8354 216.76C51.0354 217 51.2821 217.193 51.5754 217.34C51.8687 217.487 52.2087 217.56 52.5954 217.56C52.9821 217.56 53.3221 217.487 53.6154 217.34C53.9087 217.193 54.1554 217 54.3554 216.76C54.5554 216.507 54.7021 216.227 54.7954 215.92C54.9021 215.613 54.9554 215.3 54.9554 214.98ZM53.8954 208.48L52.5754 206.9L51.2554 208.48H48.7554L51.1754 205.68H54.0554L56.4154 208.48H53.8954ZM66.7321 220V214.56C66.7321 214.28 66.7054 214.013 66.6521 213.76C66.6121 213.507 66.5388 213.287 66.4321 213.1C66.3254 212.9 66.1721 212.747 65.9721 212.64C65.7854 212.52 65.5454 212.46 65.2521 212.46C64.9588 212.46 64.6988 212.52 64.4721 212.64C64.2588 212.747 64.0788 212.9 63.9321 213.1C63.7854 213.3 63.6721 213.533 63.5921 213.8C63.5254 214.053 63.4921 214.32 63.4921 214.6V220H60.1921V210.04H63.3721V211.42H63.4121C63.5321 211.207 63.6854 211 63.8721 210.8C64.0721 210.587 64.2988 210.407 64.5521 210.26C64.8188 210.113 65.1054 209.993 65.4121 209.9C65.7188 209.807 66.0454 209.76 66.3921 209.76C67.0588 209.76 67.6254 209.88 68.0921 210.12C68.5588 210.36 68.9321 210.673 69.2121 211.06C69.5054 211.433 69.7121 211.867 69.8321 212.36C69.9654 212.853 70.0321 213.347 70.0321 213.84V220H66.7321ZM83.0763 219.06C83.0763 220.033 82.9363 220.88 82.6563 221.6C82.3763 222.32 81.983 222.913 81.4763 223.38C80.9697 223.86 80.3497 224.213 79.6163 224.44C78.8963 224.68 78.0963 224.8 77.2163 224.8C76.3363 224.8 75.4297 224.667 74.4963 224.4C73.5763 224.133 72.7763 223.747 72.0963 223.24L73.7363 220.9C74.2163 221.327 74.743 221.64 75.3163 221.84C75.903 222.053 76.4763 222.16 77.0363 222.16C77.9963 222.16 78.703 221.907 79.1563 221.4C79.623 220.893 79.8563 220.22 79.8563 219.38V218.78H79.7963C79.4897 219.18 79.0763 219.5 78.5563 219.74C78.0363 219.98 77.443 220.1 76.7763 220.1C76.0163 220.1 75.343 219.967 74.7563 219.7C74.1697 219.42 73.6697 219.047 73.2563 218.58C72.8563 218.113 72.5497 217.573 72.3363 216.96C72.123 216.333 72.0163 215.673 72.0163 214.98C72.0163 214.287 72.123 213.627 72.3363 213C72.5497 212.373 72.8563 211.82 73.2563 211.34C73.6697 210.86 74.1697 210.48 74.7563 210.2C75.343 209.907 76.0097 209.76 76.7563 209.76C77.383 209.76 77.983 209.887 78.5563 210.14C79.1297 210.393 79.5897 210.787 79.9363 211.32H79.9763V210.04H83.0763V219.06ZM79.9563 214.96C79.9563 214.627 79.8963 214.307 79.7763 214C79.6697 213.693 79.5097 213.427 79.2963 213.2C79.083 212.96 78.8297 212.773 78.5363 212.64C78.243 212.507 77.9097 212.44 77.5363 212.44C77.163 212.44 76.8297 212.507 76.5363 212.64C76.2563 212.773 76.0163 212.953 75.8163 213.18C75.6163 213.407 75.463 213.673 75.3563 213.98C75.2497 214.287 75.1963 214.613 75.1963 214.96C75.1963 215.293 75.2497 215.613 75.3563 215.92C75.463 216.227 75.6163 216.5 75.8163 216.74C76.0163 216.967 76.2563 217.153 76.5363 217.3C76.8297 217.433 77.163 217.5 77.5363 217.5C77.9097 217.5 78.243 217.433 78.5363 217.3C78.843 217.153 79.0963 216.967 79.2963 216.74C79.5097 216.513 79.6697 216.247 79.7763 215.94C79.8963 215.633 79.9563 215.307 79.9563 214.96ZM94.2404 212.5V216.3C94.2404 216.767 94.3271 217.12 94.5004 217.36C94.6871 217.587 95.0137 217.7 95.4804 217.7C95.6404 217.7 95.8071 217.687 95.9804 217.66C96.1671 217.633 96.3204 217.593 96.4404 217.54L96.4804 219.94C96.2537 220.02 95.9671 220.087 95.6204 220.14C95.2737 220.207 94.9271 220.24 94.5804 220.24C93.9137 220.24 93.3537 220.16 92.9004 220C92.4471 219.827 92.0804 219.587 91.8004 219.28C91.5337 218.96 91.3404 218.587 91.2204 218.16C91.1004 217.72 91.0404 217.233 91.0404 216.7V212.5H89.4404V210.04H91.0204V207.42H94.2404V210.04H96.5804V212.5H94.2404ZM98.1618 220V210.04H101.442V220H98.1618ZM98.9218 208.56L96.0018 205.68H99.3218L101.402 208.56H98.9218ZM116.76 220V214.56C116.76 214.28 116.74 214.013 116.7 213.76C116.66 213.493 116.586 213.267 116.48 213.08C116.373 212.893 116.226 212.747 116.04 212.64C115.866 212.52 115.633 212.46 115.34 212.46C115.06 212.46 114.813 212.52 114.6 212.64C114.4 212.76 114.226 212.92 114.08 213.12C113.946 213.32 113.846 213.553 113.78 213.82C113.713 214.073 113.68 214.34 113.68 214.62V220H110.4V214.32C110.4 213.747 110.286 213.293 110.06 212.96C109.833 212.627 109.473 212.46 108.98 212.46C108.46 212.46 108.053 212.667 107.76 213.08C107.48 213.493 107.34 214 107.34 214.6V220H104.04V210.04H107.22V211.42H107.26C107.38 211.207 107.526 211 107.7 210.8C107.886 210.6 108.106 210.427 108.36 210.28C108.613 210.12 108.893 209.993 109.2 209.9C109.52 209.807 109.866 209.76 110.24 209.76C110.96 209.76 111.566 209.907 112.06 210.2C112.566 210.493 112.96 210.913 113.24 211.46C113.573 210.94 114 210.527 114.52 210.22C115.04 209.913 115.673 209.76 116.42 209.76C117.1 209.76 117.666 209.887 118.12 210.14C118.586 210.38 118.96 210.7 119.24 211.1C119.52 211.487 119.72 211.927 119.84 212.42C119.973 212.9 120.04 213.373 120.04 213.84V220H116.76ZM131.076 212.5V216.3C131.076 216.767 131.163 217.12 131.336 217.36C131.523 217.587 131.85 217.7 132.316 217.7C132.476 217.7 132.643 217.687 132.816 217.66C133.003 217.633 133.156 217.593 133.276 217.54L133.316 219.94C133.09 220.02 132.803 220.087 132.456 220.14C132.11 220.207 131.763 220.24 131.416 220.24C130.75 220.24 130.19 220.16 129.736 220C129.283 219.827 128.916 219.587 128.636 219.28C128.37 218.96 128.176 218.587 128.056 218.16C127.936 217.72 127.876 217.233 127.876 216.7V212.5H126.276V210.04H127.856V207.42H131.076V210.04H133.416V212.5H131.076ZM141.518 220V214.6C141.518 214.32 141.498 214.053 141.458 213.8C141.418 213.547 141.338 213.327 141.218 213.14C141.111 212.94 140.964 212.787 140.778 212.68C140.591 212.56 140.351 212.5 140.058 212.5C139.484 212.5 139.044 212.707 138.738 213.12C138.431 213.52 138.278 214.02 138.278 214.62V220H134.998V204.88H138.278V211.3H138.318C138.544 210.9 138.904 210.547 139.398 210.24C139.891 209.92 140.484 209.76 141.178 209.76C141.858 209.76 142.424 209.88 142.878 210.12C143.344 210.36 143.718 210.673 143.998 211.06C144.291 211.433 144.498 211.867 144.618 212.36C144.751 212.853 144.818 213.347 144.818 213.84V220H141.518ZM153.181 215.66H152.761C152.401 215.66 152.035 215.68 151.661 215.72C151.301 215.747 150.975 215.807 150.681 215.9C150.401 215.993 150.168 216.133 149.981 216.32C149.795 216.493 149.701 216.727 149.701 217.02C149.701 217.207 149.741 217.367 149.821 217.5C149.915 217.633 150.028 217.74 150.161 217.82C150.295 217.9 150.448 217.96 150.621 218C150.795 218.027 150.961 218.04 151.121 218.04C151.788 218.04 152.295 217.86 152.641 217.5C153.001 217.127 153.181 216.627 153.181 216V215.66ZM147.161 211.4C147.748 210.84 148.428 210.42 149.201 210.14C149.988 209.86 150.788 209.72 151.601 209.72C152.441 209.72 153.148 209.827 153.721 210.04C154.308 210.24 154.781 210.56 155.141 211C155.501 211.427 155.761 211.973 155.921 212.64C156.095 213.293 156.181 214.073 156.181 214.98V220H153.181V218.94H153.121C152.868 219.353 152.481 219.673 151.961 219.9C151.455 220.127 150.901 220.24 150.301 220.24C149.901 220.24 149.488 220.187 149.061 220.08C148.635 219.973 148.241 219.8 147.881 219.56C147.535 219.32 147.248 219 147.021 218.6C146.795 218.2 146.681 217.707 146.681 217.12C146.681 216.4 146.875 215.82 147.261 215.38C147.661 214.94 148.168 214.6 148.781 214.36C149.408 214.12 150.101 213.96 150.861 213.88C151.621 213.8 152.361 213.76 153.081 213.76V213.6C153.081 213.107 152.908 212.747 152.561 212.52C152.215 212.28 151.788 212.16 151.281 212.16C150.815 212.16 150.361 212.26 149.921 212.46C149.495 212.66 149.128 212.9 148.821 213.18L147.161 211.4ZM154.181 206.52L155.521 203.62H158.561L156.081 206.52H154.181ZM151.701 207.18L150.341 208.8H147.781L150.261 205.92H153.221L155.661 208.8H153.061L151.701 207.18ZM164.25 221.5C164.05 222.02 163.823 222.48 163.57 222.88C163.33 223.293 163.036 223.64 162.69 223.92C162.356 224.213 161.956 224.433 161.49 224.58C161.036 224.727 160.496 224.8 159.87 224.8C159.563 224.8 159.243 224.78 158.91 224.74C158.59 224.7 158.31 224.647 158.07 224.58L158.43 221.82C158.59 221.873 158.763 221.913 158.95 221.94C159.15 221.98 159.33 222 159.49 222C159.996 222 160.363 221.88 160.59 221.64C160.816 221.413 161.01 221.087 161.17 220.66L161.49 219.84L157.33 210.04H160.97L163.19 216.44H163.25L165.23 210.04H168.71L164.25 221.5ZM182.517 220V218.7H182.477C182.157 219.207 181.697 219.6 181.097 219.88C180.511 220.147 179.884 220.28 179.217 220.28C178.471 220.28 177.804 220.133 177.217 219.84C176.631 219.547 176.131 219.16 175.717 218.68C175.317 218.187 175.011 217.62 174.797 216.98C174.584 216.34 174.477 215.673 174.477 214.98C174.477 214.287 174.584 213.627 174.797 213C175.024 212.36 175.337 211.8 175.737 211.32C176.151 210.84 176.644 210.46 177.217 210.18C177.804 209.9 178.457 209.76 179.177 209.76C179.911 209.76 180.531 209.9 181.037 210.18C181.544 210.46 181.937 210.767 182.217 211.1H182.257V208.6H179.277V206.82H182.257V204.88H185.537V206.82H186.457V208.6H185.537V220H182.517ZM182.397 215C182.397 214.68 182.337 214.367 182.217 214.06C182.111 213.753 181.951 213.48 181.737 213.24C181.537 213 181.291 212.807 180.997 212.66C180.704 212.513 180.371 212.44 179.997 212.44C179.611 212.44 179.271 212.513 178.977 212.66C178.684 212.807 178.437 213 178.237 213.24C178.037 213.467 177.884 213.733 177.777 214.04C177.684 214.347 177.637 214.66 177.637 214.98C177.637 215.3 177.684 215.62 177.777 215.94C177.884 216.247 178.037 216.52 178.237 216.76C178.437 217 178.684 217.193 178.977 217.34C179.271 217.487 179.611 217.56 179.997 217.56C180.371 217.56 180.704 217.487 180.997 217.34C181.291 217.193 181.537 217 181.737 216.76C181.951 216.52 182.111 216.247 182.217 215.94C182.337 215.633 182.397 215.32 182.397 215ZM191.701 206.86C191.701 207.113 191.648 207.353 191.541 207.58C191.448 207.793 191.315 207.98 191.141 208.14C190.981 208.3 190.781 208.427 190.541 208.52C190.315 208.613 190.075 208.66 189.821 208.66C189.288 208.66 188.841 208.487 188.481 208.14C188.121 207.78 187.941 207.353 187.941 206.86C187.941 206.62 187.988 206.393 188.081 206.18C188.175 205.953 188.308 205.76 188.481 205.6C188.655 205.44 188.855 205.313 189.081 205.22C189.308 205.113 189.555 205.06 189.821 205.06C190.075 205.06 190.315 205.107 190.541 205.2C190.781 205.293 190.981 205.42 191.141 205.58C191.315 205.74 191.448 205.933 191.541 206.16C191.648 206.373 191.701 206.607 191.701 206.86ZM188.181 220V210.04H191.461V220H188.181ZM200.919 213.88C200.919 213.36 200.753 212.913 200.419 212.54C200.099 212.167 199.613 211.98 198.959 211.98C198.639 211.98 198.346 212.033 198.079 212.14C197.813 212.233 197.579 212.367 197.379 212.54C197.179 212.713 197.019 212.92 196.899 213.16C196.779 213.387 196.713 213.627 196.699 213.88H200.919ZM203.939 215.14C203.939 215.273 203.939 215.407 203.939 215.54C203.939 215.673 203.933 215.8 203.919 215.92H196.699C196.726 216.2 196.806 216.453 196.939 216.68C197.086 216.907 197.266 217.107 197.479 217.28C197.706 217.44 197.953 217.567 198.219 217.66C198.499 217.753 198.786 217.8 199.079 217.8C199.599 217.8 200.039 217.707 200.399 217.52C200.759 217.32 201.053 217.067 201.279 216.76L203.559 218.2C203.093 218.88 202.473 219.407 201.699 219.78C200.939 220.14 200.053 220.32 199.039 220.32C198.293 220.32 197.586 220.207 196.919 219.98C196.253 219.74 195.666 219.4 195.159 218.96C194.666 218.507 194.273 217.953 193.979 217.3C193.699 216.647 193.559 215.9 193.559 215.06C193.559 214.247 193.699 213.513 193.979 212.86C194.259 212.193 194.639 211.633 195.119 211.18C195.599 210.713 196.166 210.353 196.819 210.1C197.473 209.847 198.179 209.72 198.939 209.72C199.673 209.72 200.346 209.847 200.959 210.1C201.573 210.34 202.099 210.693 202.539 211.16C202.979 211.627 203.319 212.193 203.559 212.86C203.813 213.527 203.939 214.287 203.939 215.14ZM199.039 207.18L197.679 208.8H195.119L197.599 205.92H200.559L202.999 208.8H200.399L199.039 207.18ZM202.039 206.7C202.039 206.407 202.086 206.167 202.179 205.98C202.286 205.78 202.493 205.587 202.799 205.4C203.079 205.24 203.219 205.047 203.219 204.82C203.219 204.7 203.179 204.6 203.099 204.52C203.019 204.44 202.906 204.4 202.759 204.4C202.413 204.4 202.199 204.647 202.119 205.14L200.599 204.96C200.666 204.4 200.893 203.98 201.279 203.7C201.666 203.407 202.173 203.26 202.799 203.26C203.453 203.26 203.959 203.407 204.319 203.7C204.679 203.993 204.859 204.347 204.859 204.76C204.859 205.107 204.786 205.38 204.639 205.58C204.493 205.78 204.246 205.953 203.899 206.1C203.713 206.18 203.579 206.273 203.499 206.38C203.433 206.473 203.399 206.58 203.399 206.7H202.039ZM218.693 220V214.56C218.693 214.28 218.673 214.013 218.633 213.76C218.593 213.493 218.52 213.267 218.413 213.08C218.307 212.893 218.16 212.747 217.973 212.64C217.8 212.52 217.567 212.46 217.273 212.46C216.993 212.46 216.747 212.52 216.533 212.64C216.333 212.76 216.16 212.92 216.013 213.12C215.88 213.32 215.78 213.553 215.713 213.82C215.647 214.073 215.613 214.34 215.613 214.62V220H212.333V214.32C212.333 213.747 212.22 213.293 211.993 212.96C211.767 212.627 211.407 212.46 210.913 212.46C210.393 212.46 209.987 212.667 209.693 213.08C209.413 213.493 209.273 214 209.273 214.6V220H205.973V210.04H209.153V211.42H209.193C209.313 211.207 209.46 211 209.633 210.8C209.82 210.6 210.04 210.427 210.293 210.28C210.547 210.12 210.827 209.993 211.133 209.9C211.453 209.807 211.8 209.76 212.173 209.76C212.893 209.76 213.5 209.907 213.993 210.2C214.5 210.493 214.893 210.913 215.173 211.46C215.507 210.94 215.933 210.527 216.453 210.22C216.973 209.913 217.607 209.76 218.353 209.76C219.033 209.76 219.6 209.887 220.053 210.14C220.52 210.38 220.893 210.7 221.173 211.1C221.453 211.487 221.653 211.927 221.773 212.42C221.907 212.9 221.973 213.373 221.973 213.84V220H218.693ZM233.01 212.5V216.3C233.01 216.767 233.097 217.12 233.27 217.36C233.457 217.587 233.783 217.7 234.25 217.7C234.41 217.7 234.577 217.687 234.75 217.66C234.937 217.633 235.09 217.593 235.21 217.54L235.25 219.94C235.023 220.02 234.737 220.087 234.39 220.14C234.043 220.207 233.697 220.24 233.35 220.24C232.683 220.24 232.123 220.16 231.67 220C231.217 219.827 230.85 219.587 230.57 219.28C230.303 218.96 230.11 218.587 229.99 218.16C229.87 217.72 229.81 217.233 229.81 216.7V212.5H228.21V210.04H229.79V207.42H233.01V210.04H235.35V212.5H233.01ZM246.611 220H243.451V218.62H243.411C243.291 218.847 243.131 219.06 242.931 219.26C242.745 219.46 242.518 219.633 242.251 219.78C241.998 219.927 241.711 220.047 241.391 220.14C241.085 220.233 240.758 220.28 240.411 220.28C239.745 220.28 239.178 220.16 238.711 219.92C238.258 219.68 237.885 219.373 237.591 219C237.311 218.613 237.105 218.18 236.971 217.7C236.851 217.207 236.791 216.707 236.791 216.2V210.04H240.091V215.44C240.091 215.72 240.111 215.987 240.151 216.24C240.191 216.493 240.265 216.72 240.371 216.92C240.491 217.12 240.645 217.28 240.831 217.4C241.018 217.507 241.265 217.56 241.571 217.56C242.145 217.56 242.578 217.347 242.871 216.92C243.178 216.493 243.331 215.993 243.331 215.42V210.04H245.311C245.871 210.04 246.265 209.913 246.491 209.66C246.731 209.393 246.851 209.013 246.851 208.52C246.851 208.293 246.818 208.067 246.751 207.84C246.685 207.613 246.598 207.42 246.491 207.26L248.991 206.66C249.231 207.167 249.351 207.773 249.351 208.48C249.351 209.52 249.098 210.28 248.591 210.76C248.098 211.24 247.438 211.507 246.611 211.56V220ZM260.727 220H257.187L253.267 210.04H256.887L258.987 216.5H259.047L261.147 210.04H264.647L260.727 220ZM271.795 215.66H271.375C271.015 215.66 270.648 215.68 270.275 215.72C269.915 215.747 269.588 215.807 269.295 215.9C269.015 215.993 268.781 216.133 268.595 216.32C268.408 216.493 268.315 216.727 268.315 217.02C268.315 217.207 268.355 217.367 268.435 217.5C268.528 217.633 268.641 217.74 268.775 217.82C268.908 217.9 269.061 217.96 269.235 218C269.408 218.027 269.575 218.04 269.735 218.04C270.401 218.04 270.908 217.86 271.255 217.5C271.615 217.127 271.795 216.627 271.795 216V215.66ZM265.775 211.4C266.361 210.84 267.041 210.42 267.815 210.14C268.601 209.86 269.401 209.72 270.215 209.72C271.055 209.72 271.761 209.827 272.335 210.04C272.921 210.24 273.395 210.56 273.755 211C274.115 211.427 274.375 211.973 274.535 212.64C274.708 213.293 274.795 214.073 274.795 214.98V220H271.795V218.94H271.735C271.481 219.353 271.095 219.673 270.575 219.9C270.068 220.127 269.515 220.24 268.915 220.24C268.515 220.24 268.101 220.187 267.675 220.08C267.248 219.973 266.855 219.8 266.495 219.56C266.148 219.32 265.861 219 265.635 218.6C265.408 218.2 265.295 217.707 265.295 217.12C265.295 216.4 265.488 215.82 265.875 215.38C266.275 214.94 266.781 214.6 267.395 214.36C268.021 214.12 268.715 213.96 269.475 213.88C270.235 213.8 270.975 213.76 271.695 213.76V213.6C271.695 213.107 271.521 212.747 271.175 212.52C270.828 212.28 270.401 212.16 269.895 212.16C269.428 212.16 268.975 212.26 268.535 212.46C268.108 212.66 267.741 212.9 267.435 213.18L265.775 211.4ZM272.795 206.52L274.135 203.62H277.175L274.695 206.52H272.795ZM270.315 207.18L268.955 208.8H266.395L268.875 205.92H271.835L274.275 208.8H271.675L270.315 207.18ZM283.783 220V214.56C283.783 214.28 283.756 214.013 283.703 213.76C283.663 213.507 283.59 213.287 283.483 213.1C283.376 212.9 283.223 212.747 283.023 212.64C282.836 212.52 282.596 212.46 282.303 212.46C282.01 212.46 281.75 212.52 281.523 212.64C281.31 212.747 281.13 212.9 280.983 213.1C280.836 213.3 280.723 213.533 280.643 213.8C280.576 214.053 280.543 214.32 280.543 214.6V220H277.243V210.04H280.423V211.42H280.463C280.583 211.207 280.736 211 280.923 210.8C281.123 210.587 281.35 210.407 281.603 210.26C281.87 210.113 282.156 209.993 282.463 209.9C282.77 209.807 283.096 209.76 283.443 209.76C284.11 209.76 284.676 209.88 285.143 210.12C285.61 210.36 285.983 210.673 286.263 211.06C286.556 211.433 286.763 211.867 286.883 212.36C287.016 212.853 287.083 213.347 287.083 213.84V220H283.783Z" fill="#007869"/>
</svg>
