<svg width="33" height="56" viewBox="0 0 33 56" fill="none" xmlns="http://www.w3.org/2000/svg">
<path d="M17.7987 37.8869C17.7987 42.8175 17.7987 47.7652 17.7987 52.6958C17.7987 54.3223 17.1014 55.4008 15.8288 55.8288C13.8241 56.5136 11.8542 55.1098 11.8368 52.9526C11.8368 47.3886 11.8368 41.8417 11.8193 36.2776C11.8193 35.8325 12.1331 35.0621 11.3661 35.045C10.5642 35.045 10.878 35.8154 10.878 36.2434C10.8605 41.8245 10.878 47.4057 10.8605 53.004C10.8605 54.288 10.0412 55.3837 8.85578 55.7775C7.6355 56.1884 6.17116 55.8117 5.50872 54.6989C5.1252 54.0654 4.91601 53.2266 4.91601 52.4733C4.88114 42.9716 4.89857 33.4699 4.89857 23.9682C4.89857 23.4546 4.95087 22.941 4.88114 22.4445C4.84627 22.2049 4.58478 21.9994 4.41046 21.7769C4.25356 21.9994 3.97464 22.222 3.97464 22.4445C3.93978 24.4818 3.95721 26.502 3.95721 28.5393C3.95721 30.628 3.95721 32.7166 3.95721 34.8053C3.95721 36.1407 3.17274 37.0138 2.00475 37.0138C0.889063 37.0138 0.0522963 36.1407 0.0522963 34.8738C0.0522963 29.7377 -1.67824e-06 24.6017 0.0522963 19.4828C0.0871616 16.5552 2.14421 14.6891 5.1252 14.672C9.25673 14.672 13.4057 14.7405 17.5372 14.6378C19.9604 14.5864 22.645 16.247 22.6624 19.4999C22.6973 24.6359 22.6799 29.772 22.6624 34.8909C22.6624 36.1578 21.7908 37.0138 20.6751 36.9967C19.5246 36.9967 18.7575 36.1235 18.7575 34.8395C18.7575 30.8677 18.7575 26.8787 18.7575 22.9068C18.7575 22.6842 18.8098 22.4274 18.7401 22.2391C18.6529 22.0508 18.4263 21.9138 18.2694 21.7597C18.13 21.9138 17.9033 22.0337 17.851 22.2049C17.7813 22.4445 17.8162 22.7013 17.8162 22.9581C17.8162 27.923 17.8162 32.8878 17.8162 37.8527L17.7987 37.8869Z" fill="#FEE000"/>
<path d="M11.3312 12.4977C8.3154 12.4977 5.92712 10.1865 5.87483 7.2076C5.82253 4.29718 8.33283 1.81475 11.3487 1.83188C14.3297 1.83188 16.7528 4.21158 16.8051 7.13912C16.8574 10.0838 14.382 12.4977 11.3312 12.4977Z" fill="#FEE000"/>
<path d="M25.7481 13.4393C24.0571 13.4393 22.3836 13.4393 20.6926 13.4393C19.6466 13.4393 18.8447 12.8401 18.5658 11.8642C18.4264 11.3677 18.4787 10.8713 18.7227 10.4261C19.5595 8.90244 20.4137 7.36163 21.2504 5.83794C22.1221 4.26288 22.9763 2.70495 23.8479 1.1299C24.5278 -0.085634 26.0444 -0.376676 27.1252 0.513571C27.317 0.667652 27.4913 0.873094 27.5959 1.09566C29.3043 4.16016 30.9779 7.22467 32.6863 10.2721C33.3487 11.4533 32.7909 12.7716 31.7623 13.2167C31.4485 13.3537 31.0999 13.4222 30.7512 13.4222C29.0777 13.4393 27.4042 13.4222 25.7132 13.4222L25.7481 13.4393ZM26.6023 6.33442C26.6023 5.66674 26.6023 4.99905 26.6023 4.33136C26.6023 3.78352 26.2362 3.40688 25.7481 3.40688C25.2425 3.40688 24.8939 3.78352 24.8939 4.33136C24.8939 4.41697 24.8939 4.50257 24.8939 4.60529C24.8939 5.83794 24.8939 7.08771 24.8939 8.32036C24.8939 8.98804 25.4343 9.39893 26.027 9.21061C26.3756 9.09077 26.6023 8.76548 26.6023 8.33748C26.6023 7.66979 26.6023 7.00211 26.6023 6.33442ZM25.7481 11.7615C26.2187 11.7615 26.6023 11.3677 26.6023 10.9226C26.6023 10.4604 26.2013 10.1009 25.7306 10.1009C25.2774 10.1009 24.8764 10.4946 24.8764 10.9397C24.8764 11.402 25.2774 11.7615 25.7481 11.7615Z" fill="#FEE000"/>
</svg>
