<svg width="41" height="50" viewBox="0 0 41 50" fill="none" xmlns="http://www.w3.org/2000/svg">
<path d="M40.89 21.2492C40.89 25.164 40.9815 29.0788 40.8717 32.9936C40.6519 39.7853 37.2093 44.3373 30.7819 46.6316C27.8703 47.6695 25.0137 48.7984 22.0838 49.7452C21.2232 50.0183 20.1244 50.1094 19.2821 49.8363C15.7846 48.6709 12.2504 47.542 8.89935 46.0125C3.14946 43.3905 0.0913957 38.8202 0.0364605 32.5019C-0.0367865 24.636 0.0364605 16.77 0.0364605 8.92219C0.0364605 7.55657 0.475942 7.01032 1.79439 6.70078C4.55946 6.04528 6.31739 4.38832 6.97661 1.62066C7.23298 0.509955 7.81895 0.00012207 8.95428 0.00012207C16.7002 0.00012207 24.446 0.00012207 32.1919 0.00012207C33.1441 0.00012207 33.8033 0.45533 34.078 1.34754C34.957 4.1152 36.7698 5.93603 39.6081 6.7554C40.7068 7.06494 41.0182 7.95715 41.0182 9.01323C41.0182 11.7809 41.0182 14.5303 41.0182 17.298C41.0182 18.609 41.0182 19.9382 41.0182 21.2492C40.9815 21.2492 40.9449 21.2492 40.9083 21.2492H40.89ZM32.7596 21.2856C32.7412 21.0125 32.7412 20.5027 32.6497 19.9928C31.6608 14.8035 26.0758 12.0722 21.2232 14.4393C20.6921 14.6942 20.2893 14.7488 19.7399 14.4393C18.0735 13.5107 16.224 13.3104 14.3929 13.7292C8.42324 15.0766 6.13427 22.2689 9.94312 26.4932C11.8658 28.6418 13.9717 30.6447 16.0043 32.7022C17.0298 33.7219 18.0369 34.7598 19.1173 35.7248C20.2343 36.7081 21.2048 36.617 22.2486 35.5427C22.7796 34.9965 23.2558 34.3774 23.8051 33.8312C25.9842 31.6462 28.1816 29.4794 30.3607 27.2944C31.9538 25.692 32.7596 23.762 32.7779 21.2674L32.7596 21.2856Z" fill="#00B4CF"/>
<path d="M20.7288 31.8647C18.2018 29.3519 15.7297 26.9667 13.3308 24.4903C11.7011 22.797 11.7743 20.3206 13.4041 18.7001C14.9972 17.116 17.3777 17.0613 19.154 18.5908C20.2161 19.5013 21.0035 19.5013 22.0472 18.6273C23.915 17.0613 26.4054 17.1524 28.0352 18.8822C29.6466 20.5755 29.61 22.9973 27.8887 24.7452C25.5448 27.1305 23.1642 29.4612 20.7105 31.8829L20.7288 31.8647Z" fill="#00B4CF"/>
</svg>
