
<svg width="202" height="105" viewBox="0 0 202 105" fill="none" xmlns="http://www.w3.org/2000/svg">
<path d="M22.2877 0H192.481C197.732 0 202 4.26858 202 9.51948V59.3494C202 64.6003 197.732 68.8689 192.481 68.8689H54.0405C53.7012 75.0485 48.6114 79.9779 42.343 79.9779C36.0746 79.9779 30.967 75.0663 30.6456 68.8689H22.3055C17.0551 68.8689 12.7868 64.6003 12.7868 59.3494V9.51948C12.7868 4.26858 17.0551 0 22.3055 0H22.2877Z" fill="#F7E100"/>
<path d="M45.4292 104.86C41.3261 104.86 37.9999 101.533 37.9999 97.4298C37.9999 93.3264 41.3261 90 45.4292 90C49.5322 90 52.8584 93.3264 52.8584 97.4298C52.8584 101.533 49.5322 104.86 45.4292 104.86Z" fill="#F7E100"/>
<path d="M70.957 24.06C70.8237 25.2867 70.3904 26.3733 69.657 27.32C68.937 28.2533 67.9904 28.98 66.817 29.5C65.6437 30.02 64.3037 30.28 62.797 30.28C61.117 30.28 59.6437 29.9533 58.377 29.3C57.1104 28.6467 56.1237 27.74 55.417 26.58C54.7104 25.4067 54.357 24.0467 54.357 22.5C54.357 20.9533 54.7104 19.6 55.417 18.44C56.1237 17.2667 57.1104 16.3533 58.377 15.7C59.6437 15.0467 61.117 14.72 62.797 14.72C64.3037 14.72 65.6437 14.98 66.817 15.5C67.9904 16.02 68.937 16.7467 69.657 17.68C70.3904 18.6133 70.8237 19.7 70.957 20.94H68.297C68.1504 20.14 67.8304 19.4533 67.337 18.88C66.857 18.3067 66.2304 17.8667 65.457 17.56C64.6837 17.24 63.7904 17.08 62.777 17.08C61.6037 17.08 60.5837 17.3 59.717 17.74C58.8637 18.18 58.2037 18.8067 57.737 19.62C57.2704 20.4333 57.037 21.3933 57.037 22.5C57.037 23.6067 57.2704 24.5667 57.737 25.38C58.2037 26.1933 58.8637 26.82 59.717 27.26C60.5837 27.7 61.6037 27.92 62.777 27.92C63.7904 27.92 64.6837 27.7667 65.457 27.46C66.2304 27.1533 66.857 26.7133 67.337 26.14C67.8304 25.5533 68.1504 24.86 68.297 24.06H70.957ZM79.3392 30.28C77.9659 30.28 76.7592 30.0333 75.7192 29.54C74.6926 29.0333 73.8859 28.3333 73.2992 27.44C72.7259 26.5467 72.4392 25.5133 72.4392 24.34C72.4392 23.1533 72.7259 22.12 73.2992 21.24C73.8859 20.3467 74.6926 19.6533 75.7192 19.16C76.7592 18.6533 77.9659 18.4 79.3392 18.4C80.7126 18.4 81.9126 18.6533 82.9392 19.16C83.9792 19.6533 84.7859 20.3467 85.3592 21.24C85.9459 22.12 86.2392 23.1533 86.2392 24.34C86.2392 25.5133 85.9459 26.5467 85.3592 27.44C84.7859 28.3333 83.9792 29.0333 82.9392 29.54C81.9126 30.0333 80.7126 30.28 79.3392 30.28ZM79.3392 28.24C80.2192 28.24 80.9726 28.08 81.5992 27.76C82.2392 27.44 82.7326 26.9933 83.0792 26.42C83.4259 25.8333 83.5992 25.14 83.5992 24.34C83.5992 23.54 83.4259 22.8533 83.0792 22.28C82.7326 21.6933 82.2392 21.24 81.5992 20.92C80.9726 20.6 80.2192 20.44 79.3392 20.44C78.4726 20.44 77.7192 20.6 77.0792 20.92C76.4392 21.24 75.9459 21.6933 75.5992 22.28C75.2526 22.8533 75.0792 23.54 75.0792 24.34C75.0792 25.14 75.2526 25.8333 75.5992 26.42C75.9459 26.9933 76.4392 27.44 77.0792 27.76C77.7192 28.08 78.4726 28.24 79.3392 28.24ZM87.8127 18.68H90.4127L91.0927 22.76V30H88.4927V22.38L87.8127 18.68ZM95.5927 18.4C96.6593 18.4 97.566 18.6133 98.3127 19.04C99.0593 19.4667 99.626 20.08 100.013 20.88C100.413 21.6667 100.613 22.62 100.613 23.74V30H98.0127V24.16C98.0127 22.9733 97.7327 22.08 97.1727 21.48C96.626 20.8667 95.8193 20.56 94.7527 20.56C94.0193 20.56 93.3727 20.7267 92.8127 21.06C92.266 21.38 91.8393 21.8333 91.5327 22.42C91.2393 23.0067 91.0927 23.6933 91.0927 24.48L90.1727 23.98C90.2927 22.8067 90.5993 21.8067 91.0927 20.98C91.586 20.1533 92.2193 19.52 92.9927 19.08C93.766 18.6267 94.6327 18.4 95.5927 18.4ZM120.229 26.56C120.229 27.32 120.016 27.98 119.589 28.54C119.162 29.1 118.516 29.5333 117.649 29.84C116.782 30.1333 115.696 30.28 114.389 30.28C113.042 30.28 111.876 30.1133 110.889 29.78C109.902 29.4333 109.136 28.9533 108.589 28.34C108.056 27.7133 107.769 26.9933 107.729 26.18H110.369C110.449 26.6067 110.662 26.9867 111.009 27.32C111.369 27.64 111.836 27.8867 112.409 28.06C112.996 28.2333 113.662 28.32 114.409 28.32C115.489 28.32 116.302 28.1933 116.849 27.94C117.396 27.6733 117.669 27.2733 117.669 26.74C117.669 26.38 117.482 26.1067 117.109 25.92C116.749 25.7333 116.062 25.5933 115.049 25.5L112.829 25.3C111.629 25.1933 110.682 24.98 109.989 24.66C109.296 24.3267 108.802 23.9267 108.509 23.46C108.216 22.98 108.069 22.4733 108.069 21.94C108.069 21.1667 108.309 20.52 108.789 20C109.269 19.48 109.936 19.0867 110.789 18.82C111.642 18.54 112.636 18.4 113.769 18.4C114.942 18.4 115.989 18.5667 116.909 18.9C117.829 19.22 118.562 19.6733 119.109 20.26C119.656 20.8333 119.962 21.5 120.029 22.26H117.389C117.336 21.9533 117.176 21.66 116.909 21.38C116.656 21.0867 116.262 20.8467 115.729 20.66C115.209 20.46 114.509 20.36 113.629 20.36C112.696 20.36 111.962 20.48 111.429 20.72C110.909 20.96 110.649 21.3133 110.649 21.78C110.649 22.0733 110.809 22.3267 111.129 22.54C111.449 22.74 112.042 22.88 112.909 22.96L115.769 23.22C116.916 23.3267 117.809 23.5333 118.449 23.84C119.102 24.1333 119.562 24.5133 119.829 24.98C120.096 25.4467 120.229 25.9733 120.229 26.56ZM128.517 30.28C127.197 30.28 126.024 30.0333 124.997 29.54C123.97 29.0333 123.164 28.3333 122.577 27.44C121.99 26.5467 121.697 25.5067 121.697 24.32C121.697 23.1467 121.97 22.12 122.517 21.24C123.077 20.3467 123.844 19.6533 124.817 19.16C125.804 18.6533 126.93 18.4 128.197 18.4C129.464 18.4 130.557 18.6867 131.477 19.26C132.41 19.82 133.13 20.6133 133.637 21.64C134.144 22.6667 134.397 23.8733 134.397 25.26H123.737V23.28H133.097L131.797 24.02C131.757 23.2733 131.577 22.6333 131.257 22.1C130.95 21.5667 130.53 21.16 129.997 20.88C129.477 20.5867 128.857 20.44 128.137 20.44C127.377 20.44 126.71 20.5933 126.137 20.9C125.577 21.2067 125.137 21.64 124.817 22.2C124.497 22.7467 124.337 23.4 124.337 24.16C124.337 25 124.524 25.7267 124.897 26.34C125.284 26.9533 125.824 27.4267 126.517 27.76C127.224 28.08 128.057 28.24 129.017 28.24C129.884 28.24 130.77 28.1067 131.677 27.84C132.584 27.56 133.384 27.1733 134.077 26.68V28.56C133.384 29.0933 132.537 29.5133 131.537 29.82C130.55 30.1267 129.544 30.28 128.517 30.28ZM123.597 17.18C123.664 16.2067 123.91 15.4333 124.337 14.86C124.777 14.2867 125.404 14 126.217 14C126.564 14 126.897 14.06 127.217 14.18C127.55 14.3 127.864 14.4333 128.157 14.58C128.464 14.7267 128.75 14.86 129.017 14.98C129.284 15.1 129.53 15.16 129.757 15.16C130.05 15.16 130.29 15.06 130.477 14.86C130.677 14.66 130.804 14.38 130.857 14.02H132.677C132.624 14.94 132.384 15.7 131.957 16.3C131.53 16.8867 130.897 17.18 130.057 17.18C129.71 17.18 129.37 17.12 129.037 17C128.717 16.88 128.404 16.7467 128.097 16.6C127.804 16.4533 127.524 16.32 127.257 16.2C127.004 16.08 126.764 16.02 126.537 16.02C126.244 16.02 125.997 16.12 125.797 16.32C125.61 16.52 125.484 16.8067 125.417 17.18H123.597ZM141.829 14.6H144.429V30H141.829V14.6ZM157.741 30L157.301 25.8L157.821 24.34L157.301 22.9L157.741 18.68H160.421L159.821 24.34L160.421 30H157.741ZM158.541 24.34C158.287 25.5267 157.867 26.5667 157.281 27.46C156.694 28.3533 155.967 29.0467 155.101 29.54C154.247 30.0333 153.294 30.28 152.241 30.28C151.134 30.28 150.154 30.0333 149.301 29.54C148.447 29.0333 147.781 28.3333 147.301 27.44C146.821 26.5467 146.581 25.5133 146.581 24.34C146.581 23.1533 146.821 22.12 147.301 21.24C147.781 20.3467 148.447 19.6533 149.301 19.16C150.154 18.6533 151.134 18.4 152.241 18.4C153.294 18.4 154.247 18.6467 155.101 19.14C155.967 19.6333 156.694 20.3267 157.281 21.22C157.881 22.1 158.301 23.14 158.541 24.34ZM149.221 24.34C149.221 25.1 149.374 25.7733 149.681 26.36C150.001 26.9333 150.434 27.3867 150.981 27.72C151.527 28.04 152.154 28.2 152.861 28.2C153.581 28.2 154.247 28.04 154.861 27.72C155.474 27.3867 156.014 26.9333 156.481 26.36C156.961 25.7733 157.341 25.1 157.621 24.34C157.341 23.58 156.961 22.9133 156.481 22.34C156.014 21.7533 155.474 21.3 154.861 20.98C154.247 20.6467 153.581 20.48 152.861 20.48C152.154 20.48 151.527 20.6467 150.981 20.98C150.434 21.3 150.001 21.7533 149.681 22.34C149.374 22.9133 149.221 23.58 149.221 24.34ZM152.601 14.02L155.041 17.46H152.541L150.001 14.02H152.601ZM73.7726 39.6H76.3726V55H73.7726V39.6ZM80.8726 43.4C81.9392 43.4 82.8459 43.6133 83.5926 44.04C84.3392 44.4667 84.9059 45.08 85.2926 45.88C85.6926 46.6667 85.8926 47.62 85.8926 48.74V55H83.2926V49.16C83.2926 47.9733 83.0126 47.08 82.4526 46.48C81.9059 45.8667 81.0992 45.56 80.0326 45.56C79.2992 45.56 78.6526 45.7267 78.0926 46.06C77.5459 46.38 77.1192 46.8333 76.8126 47.42C76.5192 48.0067 76.3726 48.6933 76.3726 49.48L75.4526 48.98C75.5726 47.8067 75.8792 46.8067 76.3726 45.98C76.8659 45.1533 77.4992 44.52 78.2726 44.08C79.0459 43.6267 79.9126 43.4 80.8726 43.4ZM94.7591 55.28C93.3858 55.28 92.1791 55.0333 91.1391 54.54C90.1125 54.0333 89.3058 53.3333 88.7191 52.44C88.1458 51.5467 87.8591 50.5133 87.8591 49.34C87.8591 48.1533 88.1458 47.12 88.7191 46.24C89.3058 45.3467 90.1125 44.6533 91.1391 44.16C92.1791 43.6533 93.3858 43.4 94.7591 43.4C96.1325 43.4 97.3325 43.6533 98.3591 44.16C99.3991 44.6533 100.206 45.3467 100.779 46.24C101.366 47.12 101.659 48.1533 101.659 49.34C101.659 50.5133 101.366 51.5467 100.779 52.44C100.206 53.3333 99.3991 54.0333 98.3591 54.54C97.3325 55.0333 96.1325 55.28 94.7591 55.28ZM94.7591 53.24C95.6391 53.24 96.3925 53.08 97.0191 52.76C97.6591 52.44 98.1525 51.9933 98.4991 51.42C98.8458 50.8333 99.0191 50.14 99.0191 49.34C99.0191 48.54 98.8458 47.8533 98.4991 47.28C98.1525 46.6933 97.6591 46.24 97.0191 45.92C96.3925 45.6 95.6391 45.44 94.7591 45.44C93.8925 45.44 93.1391 45.6 92.4991 45.92C91.8591 46.24 91.3658 46.6933 91.0191 47.28C90.6725 47.8533 90.4991 48.54 90.4991 49.34C90.4991 50.14 90.6725 50.8333 91.0191 51.42C91.3658 51.9933 91.8591 52.44 92.4991 52.76C93.1391 53.08 93.8925 53.24 94.7591 53.24ZM94.7591 59.12C94.2658 59.12 93.8591 58.98 93.5391 58.7C93.2191 58.4333 93.0591 58.08 93.0591 57.64C93.0591 57.2 93.2191 56.84 93.5391 56.56C93.8591 56.2933 94.2658 56.16 94.7591 56.16C95.2658 56.16 95.6725 56.2933 95.9791 56.56C96.2991 56.84 96.4591 57.2 96.4591 57.64C96.4591 58.08 96.2991 58.4333 95.9791 58.7C95.6725 58.98 95.2658 59.12 94.7591 59.12ZM114.333 55L113.893 50.8L114.413 49.34L113.893 47.9L114.333 43.68H117.013L116.413 49.34L117.013 55H114.333ZM115.133 49.34C114.879 50.5267 114.459 51.5667 113.873 52.46C113.286 53.3533 112.559 54.0467 111.693 54.54C110.839 55.0333 109.886 55.28 108.833 55.28C107.726 55.28 106.746 55.0333 105.893 54.54C105.039 54.0333 104.373 53.3333 103.893 52.44C103.413 51.5467 103.173 50.5133 103.173 49.34C103.173 48.1533 103.413 47.12 103.893 46.24C104.373 45.3467 105.039 44.6533 105.893 44.16C106.746 43.6533 107.726 43.4 108.833 43.4C109.886 43.4 110.839 43.6467 111.693 44.14C112.559 44.6333 113.286 45.3267 113.873 46.22C114.473 47.1 114.893 48.14 115.133 49.34ZM105.813 49.34C105.813 50.1 105.966 50.7733 106.273 51.36C106.593 51.9333 107.026 52.3867 107.573 52.72C108.119 53.04 108.746 53.2 109.453 53.2C110.173 53.2 110.839 53.04 111.453 52.72C112.066 52.3867 112.606 51.9333 113.073 51.36C113.553 50.7733 113.933 50.1 114.213 49.34C113.933 48.58 113.553 47.9133 113.073 47.34C112.606 46.7533 112.066 46.3 111.453 45.98C110.839 45.6467 110.173 45.48 109.453 45.48C108.746 45.48 108.119 45.6467 107.573 45.98C107.026 46.3 106.593 46.7533 106.273 47.34C105.966 47.9133 105.813 48.58 105.813 49.34ZM136.528 51.56C136.528 52.32 136.314 52.98 135.888 53.54C135.461 54.1 134.814 54.5333 133.948 54.84C133.081 55.1333 131.994 55.28 130.688 55.28C129.341 55.28 128.174 55.1133 127.188 54.78C126.201 54.4333 125.434 53.9533 124.888 53.34C124.354 52.7133 124.068 51.9933 124.028 51.18H126.668C126.748 51.6067 126.961 51.9867 127.308 52.32C127.668 52.64 128.134 52.8867 128.708 53.06C129.294 53.2333 129.961 53.32 130.708 53.32C131.788 53.32 132.601 53.1933 133.148 52.94C133.694 52.6733 133.968 52.2733 133.968 51.74C133.968 51.38 133.781 51.1067 133.408 50.92C133.048 50.7333 132.361 50.5933 131.348 50.5L129.128 50.3C127.928 50.1933 126.981 49.98 126.288 49.66C125.594 49.3267 125.101 48.9267 124.808 48.46C124.514 47.98 124.368 47.4733 124.368 46.94C124.368 46.1667 124.608 45.52 125.088 45C125.568 44.48 126.234 44.0867 127.088 43.82C127.941 43.54 128.934 43.4 130.068 43.4C131.241 43.4 132.288 43.5667 133.208 43.9C134.128 44.22 134.861 44.6733 135.408 45.26C135.954 45.8333 136.261 46.5 136.328 47.26H133.688C133.634 46.9533 133.474 46.66 133.208 46.38C132.954 46.0867 132.561 45.8467 132.028 45.66C131.508 45.46 130.808 45.36 129.928 45.36C128.994 45.36 128.261 45.48 127.728 45.72C127.208 45.96 126.948 46.3133 126.948 46.78C126.948 47.0733 127.108 47.3267 127.428 47.54C127.748 47.74 128.341 47.88 129.208 47.96L132.068 48.22C133.214 48.3267 134.108 48.5333 134.748 48.84C135.401 49.1333 135.861 49.5133 136.128 49.98C136.394 50.4467 136.528 50.9733 136.528 51.56ZM136.476 42.12C136.529 41.2133 136.736 40.4867 137.096 39.94C137.456 39.3933 137.963 39.12 138.616 39.12C138.923 39.12 139.189 39.18 139.416 39.3C139.656 39.42 139.869 39.56 140.056 39.72C140.243 39.8667 140.423 40 140.596 40.12C140.783 40.24 140.976 40.3 141.176 40.3C141.403 40.3 141.583 40.2 141.716 40C141.863 39.7867 141.963 39.5 142.016 39.14H143.476C143.423 40.0467 143.216 40.7733 142.856 41.32C142.496 41.8533 141.996 42.12 141.356 42.12C141.049 42.12 140.776 42.06 140.536 41.94C140.309 41.82 140.096 41.6867 139.896 41.54C139.709 41.3933 139.529 41.26 139.356 41.14C139.183 41.02 138.996 40.96 138.796 40.96C138.583 40.96 138.403 41.06 138.256 41.26C138.109 41.46 138.009 41.7467 137.956 42.12H136.476ZM138.636 43.6L139.936 43.84L141.236 43.6V55H138.636V43.6Z" fill="#009585"/>
</svg>
