<svg width="92" height="19" viewBox="0 0 92 19" fill="none" xmlns="http://www.w3.org/2000/svg">
<g clip-path="url(#clip0_1_6)">
<path d="M89.919 0C89.4111 0.00156413 88.9245 0.199486 88.5653 0.550557C88.2064 0.901626 88.0039 1.37733 88.0023 1.87382V6.47007C87.0547 5.7159 85.9099 5.27332 84.6747 5.27332C81.4188 5.27332 78.7809 8.33844 78.7809 12.1171C78.7809 15.8957 81.4188 18.9608 84.6747 18.9608C85.9575 18.9608 87.1406 18.4804 88.1082 17.6728C88.2498 18.0957 88.541 18.4553 88.9294 18.687C89.3181 18.9186 89.7784 19.0072 90.2278 18.9366C90.6771 18.866 91.0859 18.641 91.3807 18.302C91.6758 17.9631 91.8371 17.5324 91.8358 17.0875V1.87382C91.8342 1.37733 91.6317 0.901626 91.2728 0.550557C90.9136 0.199486 90.427 0.00156413 89.919 0ZM85.3981 15.4377C83.9598 15.4377 82.7942 13.9234 82.7942 12.0555C82.7942 10.1876 83.9598 8.67515 85.3981 8.67515C86.8367 8.67515 88.0016 10.1899 88.0016 12.0573C88.0016 13.9248 86.8364 15.4377 85.3981 15.4377Z" fill="#1A76E3"/>
<path d="M35.0332 18.999C33.2405 18.999 31.8273 18.4711 30.8327 17.4295C29.8231 16.3732 29.3112 14.9101 29.3112 13.0805V7.35499C29.3112 6.76187 29.5147 6.23491 29.8988 5.83432C30.078 5.64876 30.2941 5.50094 30.5338 5.39989C30.7735 5.29887 31.0318 5.24675 31.2929 5.24675C31.554 5.24675 31.8123 5.29887 32.052 5.39989C32.2917 5.50094 32.5078 5.64876 32.6869 5.83432C33.0718 6.23583 33.2745 6.76143 33.2745 7.35499V13.0814C33.2745 13.7895 33.4116 14.2991 33.6808 14.5971C33.95 14.895 34.4096 15.0533 35.0342 15.0533C35.6724 15.0533 36.1343 14.8995 36.4084 14.5971C36.6824 14.2946 36.8143 13.789 36.8143 13.0809V7.35499C36.8143 6.76187 37.0174 6.23535 37.4019 5.83432C37.5814 5.64882 37.7974 5.50106 38.0372 5.40005C38.2769 5.29906 38.5351 5.24697 38.7962 5.24697C39.0573 5.24697 39.3154 5.29906 39.5552 5.40005C39.7949 5.50106 40.011 5.64882 40.1904 5.83432C40.5749 6.23627 40.778 6.76187 40.778 7.35546V13.0814C40.778 14.9114 40.2617 16.3755 39.2439 17.4327C38.2406 18.4724 36.8246 18.999 35.0332 18.999Z" fill="#22C55E"/>
<path d="M7.02135 7.04051C7.65236 6.17091 8.22224 5.35239 8.82808 4.5599C9.55151 3.61133 10.2283 2.61124 11.0684 1.76854C11.9323 0.901669 13.1178 1.12523 13.7064 2.14951C14.0933 2.82157 13.9239 3.50413 13.5281 4.10545C12.8975 5.06359 12.2156 5.98794 11.5496 6.92328C10.8028 7.97537 10.0206 9.00742 9.30927 10.0819C9.07894 10.4329 8.94784 10.8373 8.92935 11.254C8.88782 12.9389 8.91814 14.6257 8.90602 16.312C8.90181 16.6661 8.86116 17.0189 8.78467 17.365C8.52283 18.5709 7.88155 19.0454 6.69277 18.9455C5.77656 18.8679 5.12453 18.1407 5.10027 17.0484C5.06198 15.3146 5.04659 13.5809 5.08767 11.8471C5.10678 11.0473 4.90982 10.3912 4.41649 9.7438C3.22772 8.18342 2.09215 6.58289 0.962647 4.981C0.630423 4.51487 0.349892 4.01552 0.125793 3.49134C-0.175252 2.77549 0.0819198 2.05279 0.706411 1.60521C1.36544 1.13208 2.1883 1.10059 2.79552 1.60886C3.21559 1.96705 3.59153 2.37189 3.91567 2.81518C4.81273 4.02515 5.67154 5.26388 6.54946 6.48799C6.67081 6.6568 6.82063 6.80738 7.02135 7.04051Z" fill="#22C55E"/>
<path d="M63.7197 16.5461L61.2244 2.90054C61.2244 2.90054 60.6452 0.673115 58.0413 1.16678C58.0413 1.16678 56.7031 1.2375 56.0526 2.79286L53.3046 13.0357L50.5553 2.79286C49.9052 1.2375 48.5666 1.16678 48.5666 1.16678C45.9628 0.671747 45.3845 2.90054 45.3845 2.90054L42.8889 16.5461C42.7078 18.5613 44.299 18.8794 44.299 18.8794C46.3991 19.2859 46.8128 17.2889 46.8128 17.2889L48.3496 6.38447C48.3496 6.38447 50.7912 16.3189 51.2071 17.7328C51.648 18.7261 52.661 18.9359 53.1598 18.9784V18.988C53.1598 18.988 53.2143 18.9907 53.3046 18.988C53.3947 18.9852 53.4491 18.988 53.4491 18.988V18.9784C53.948 18.9359 54.9603 18.7256 55.4015 17.7328C55.8178 16.3184 58.2584 6.38447 58.2584 6.38447L59.7987 17.2912C59.7987 17.2912 60.2137 19.2882 62.3116 18.8817C62.3093 18.8794 63.9012 18.5613 63.7197 16.5461Z" fill="#1A76E3"/>
<path d="M68.5782 10.7195H73.6894C73.6894 10.7195 73.5932 8.59838 71.1335 8.50436C71.1335 8.50436 68.9148 8.36338 68.5782 10.7195ZM69.9783 15.2213C72.3172 16.2346 74.9693 14.4671 74.9693 14.4671C77.2596 13.8069 77.2596 15.6693 77.2596 15.6693C77.3318 17.1777 75.5955 18.0254 75.5955 18.0254C71.4966 20.1241 67.7839 18.1203 67.7839 18.1203C64.2646 16.0699 64.5778 11.8277 64.5778 11.8277C64.6245 10.3426 65.5328 5.53419 71.0655 5.29878C74.9466 5.13405 77.4296 8.19777 77.5997 11.215C77.716 13.2964 76.4659 13.2886 76.4659 13.2886H68.6984C68.6268 14.4671 69.9764 15.2213 69.9764 15.2213" fill="#1A76E3"/>
<path d="M27.2148 12.1234C27.2148 15.9212 24.2552 19 20.6044 19C16.9536 19 13.9945 15.9212 13.9945 12.1234C13.9945 8.32554 16.9536 5.24678 20.6044 5.24678C24.2552 5.24678 27.2148 8.32554 27.2148 12.1234ZM20.6044 8.79915C19.0642 8.79915 17.8147 10.3007 17.8147 12.153C17.8147 14.0054 19.0637 15.5065 20.6044 15.5065C22.1451 15.5065 23.3941 14.0054 23.3941 12.153C23.3941 10.3007 22.1451 8.79915 20.6044 8.79915Z" fill="#22C55E"/>
</g>
<defs>
<clipPath id="clip0_1_6">
<rect width="92" height="19" fill="white"/>
</clipPath>
</defs>
</svg>
