<svg width="79" height="44" viewBox="0 0 79 44" fill="none" xmlns="http://www.w3.org/2000/svg">
<g clip-path="url(#clip0_1_283)">
<path fill-rule="evenodd" clip-rule="evenodd" d="M39.6413 10.0105H39.7974C39.9002 10.0105 39.9938 9.99575 39.9938 9.87419C39.9938 9.76552 39.891 9.74894 39.7992 9.74894H39.6413V10.0105ZM39.4632 9.62001H39.8175C40.0452 9.62001 40.17 9.69553 40.17 9.88892C40.17 10.0455 40.0764 10.121 39.9204 10.1339L40.1755 10.5336H39.9938L39.7478 10.1394H39.6395V10.5336H39.4614V9.62001H39.4632ZM40.4233 10.0786C40.4233 9.70289 40.1388 9.42846 39.7863 9.42846C39.4339 9.42846 39.1493 9.70105 39.1493 10.0786C39.1493 10.4562 39.4339 10.7306 39.7863 10.7306C40.1388 10.7306 40.4233 10.4581 40.4233 10.0786ZM38.9437 10.0786C38.9437 9.63475 39.3219 9.27374 39.7863 9.27374C40.2508 9.27374 40.6271 9.63475 40.6271 10.0786C40.6271 10.5225 40.2508 10.8854 39.7863 10.8854C39.3219 10.8854 38.9437 10.5225 38.9437 10.0786Z" fill="#213F9A"/>
<path fill-rule="evenodd" clip-rule="evenodd" d="M22.2347 2.18073C20.9754 2.18073 19.9088 2.96535 19.5343 4.0502C19.5251 4.07415 19.5178 4.09993 19.5104 4.12388L19.448 4.35779L17.8693 10.9056H21.8455C23.0332 10.9056 24.0448 10.1854 24.4303 9.17424L24.5808 8.54985L26.1155 2.18073H22.2329H22.2347Z" fill="#034EA2"/>
<path fill-rule="evenodd" clip-rule="evenodd" d="M29.7355 0C28.4358 0 27.338 0.836201 27.0003 1.97815C26.9746 2.06287 26.9544 2.15128 26.9379 2.23969L24.3219 13.0864H28.2045C29.5336 13.0864 30.6498 12.2115 30.9618 11.029L33.6218 0H29.7355Z" fill="#F37021"/>
<path fill-rule="evenodd" clip-rule="evenodd" d="M36.192 2.18073C34.9767 2.18073 33.9413 2.9101 33.5338 3.93785C33.5136 3.98942 33.4402 4.20676 33.4402 4.20676L31.8265 10.9037H35.7092C37.0438 10.9037 38.1617 10.0233 38.4683 8.83718L40.0728 2.18073H36.192Z" fill="#51B848"/>
<path d="M42.5676 5.82214V6.78358H43.6488V7.20352H42.5676V8.66043H42.0682V5.39667H43.7516V5.82582H42.5676V5.82214Z" fill="#213F9A"/>
<path d="M46.3731 6.36364C46.3731 6.66386 46.2648 6.90514 46.0481 7.08564C45.8223 7.27535 45.5084 7.36929 45.1064 7.36929C44.9871 7.36929 44.8714 7.36008 44.765 7.34166V8.65858H44.2656V5.51639C44.5116 5.40219 44.8127 5.34509 45.167 5.34509C45.5507 5.34509 45.8499 5.43719 46.0628 5.61953C46.2703 5.80003 46.3731 6.04868 46.3731 6.36364ZM45.8737 6.35811C45.8737 5.94369 45.6388 5.73557 45.1707 5.73557C45.0146 5.73557 44.8788 5.75767 44.765 5.80371V6.94935C44.8494 6.96408 44.9577 6.97145 45.0899 6.97145C45.3414 6.97145 45.536 6.91619 45.67 6.80384C45.8058 6.69885 45.8719 6.54966 45.8719 6.35811H45.8737Z" fill="#213F9A"/>
<path d="M47.9409 5.8221V8.65855H47.4323V5.8221H46.6797V5.39294H48.688V5.8221H47.9409Z" fill="#213F9A"/>
<path d="M52.0804 8.65858L51.6215 7.62531C51.5168 7.39139 51.3498 7.27351 51.1221 7.27351H50.8339V8.65858H50.3346V5.52007C50.5989 5.40219 50.9073 5.34509 51.2617 5.34509C51.6453 5.34509 51.9409 5.42982 52.1483 5.60295C52.3503 5.77056 52.4494 6.00263 52.4494 6.29733C52.4494 6.7449 52.2162 7.02118 51.7518 7.12248V7.13169C51.9023 7.20905 52.029 7.36376 52.1336 7.59215L52.6201 8.66043H52.0804V8.65858ZM51.9501 6.31759C51.9501 5.92896 51.7243 5.73557 51.2708 5.73557C51.0946 5.73557 50.9477 5.75767 50.8339 5.80371V6.9033H51.2158C51.7041 6.9033 51.9501 6.70806 51.9501 6.31759Z" fill="#213F9A"/>
<path d="M54.9755 7.24585C54.9755 7.32689 54.9755 7.38951 54.9718 7.43003L53.36 7.65474C53.4114 8.0931 53.6592 8.31228 54.1035 8.31228C54.3678 8.31228 54.5918 8.26255 54.7735 8.16309L54.9167 8.5333C54.6983 8.6475 54.4156 8.70459 54.0704 8.70459C53.6923 8.70459 53.3986 8.5904 53.1874 8.36201C52.98 8.13915 52.8772 7.83156 52.8772 7.4374C52.8772 7.04324 52.9745 6.75776 53.1691 6.52568C53.3673 6.29177 53.6335 6.17389 53.9713 6.17389C54.2834 6.17389 54.5294 6.26967 54.7093 6.46306C54.8855 6.65645 54.9755 6.91616 54.9755 7.24401V7.24585ZM54.5018 7.17033C54.4982 6.74855 54.3183 6.53858 53.9621 6.53858C53.7694 6.53858 53.6188 6.60857 53.5069 6.74671C53.3894 6.88853 53.3306 7.08376 53.327 7.33241L54.5018 7.17033Z" fill="#213F9A"/>
<path d="M56.5946 8.63463C56.5157 8.67147 56.4147 8.68805 56.2881 8.68805C55.8438 8.68805 55.6217 8.45045 55.6217 7.97525V6.5957H55.2931V6.22549H55.6217V5.66189L56.1027 5.5127V6.22549H56.5928V6.5957H56.1027V7.94762C56.1027 8.15207 56.211 8.25337 56.4276 8.25337C56.49 8.25337 56.5469 8.24232 56.5946 8.22206V8.63279V8.63463Z" fill="#213F9A"/>
<path d="M58.893 8.53701C58.68 8.65121 58.3882 8.70831 58.0192 8.70831C57.3197 8.70831 56.9691 8.45413 56.9691 7.94578C56.9691 7.64003 57.1197 7.41901 57.4189 7.28824C57.6373 7.19246 57.9733 7.13168 58.423 7.10774V6.95486C58.423 6.67859 58.2523 6.54045 57.909 6.54045C57.6722 6.54045 57.4482 6.59018 57.239 6.68964L57.1123 6.35074C57.3711 6.23654 57.652 6.17944 57.9586 6.17944C58.5791 6.17944 58.8912 6.45388 58.8912 7.00459V8.53701H58.893ZM58.4249 7.43559C58.0999 7.454 57.8741 7.48716 57.7456 7.53505C57.5382 7.61056 57.4354 7.74318 57.4354 7.93657C57.4354 8.21285 57.6263 8.35099 58.0082 8.35099C58.1972 8.35099 58.3368 8.33073 58.4267 8.28836V7.43559H58.4249Z" fill="#213F9A"/>
<path d="M60.0513 5.5053C60.0513 5.58266 60.0219 5.64897 59.965 5.70422C59.9081 5.75764 59.8384 5.78526 59.7576 5.78526C59.6768 5.78526 59.6071 5.75764 59.5501 5.70422C59.4932 5.65081 59.4639 5.5845 59.4639 5.5053C59.4639 5.4261 59.4914 5.36164 59.5501 5.30638C59.6089 5.25113 59.6768 5.22534 59.7576 5.22534C59.8384 5.22534 59.9081 5.25297 59.965 5.30638C60.0219 5.3598 60.0513 5.4261 60.0513 5.5053ZM59.5098 8.65855V6.22731H60.0054V8.65855H59.5098Z" fill="#213F9A"/>
<path d="M60.6351 8.65857V5.11853H61.1308V8.65857H60.6351Z" fill="#213F9A"/>
<path d="M13.9151 28.1232L11.1394 23.688L11.1155 23.6972L11.1688 28.1214H9.3844V20.8295H10.9907L13.8086 25.4138L13.8288 25.3936L13.748 20.8295H15.5324V28.1214H13.9151V28.1232Z" fill="#072D94"/>
<path d="M21.1057 28.1233V25.2094H18.7192V28.1233H16.8578V20.8314H18.7192V23.572H21.1057V20.8314H22.9672V28.1233H21.1057Z" fill="#072D94"/>
<path d="M28.983 28.1232L28.6269 27.0697H26.0972L25.7117 28.1232H23.7107L26.6351 20.8313H28.1018L31.0023 28.1232H28.983ZM27.3877 23.1023H27.3583L26.6075 25.5944H28.1367L27.3859 23.1023H27.3877ZM28.1569 20.4814L25.7227 19.4186L26.222 18.2638L28.6085 19.5236L28.1551 20.4814H28.1569Z" fill="#072D94"/>
<path d="M37.5265 22.4669V28.1233H35.6651V22.4669H34.2258V20.8314H38.9547V22.4669H37.5265Z" fill="#072D94"/>
<path d="M43.9517 28.1233V25.2094H41.5652V28.1233H39.7037V20.8314H41.5652V23.572H43.9517V20.8314H45.8131V28.1233H43.9517Z" fill="#072D94"/>
<path d="M52.7046 25.2389C52.7046 25.7362 52.6624 26.1377 52.5798 26.4471C52.4678 26.8413 52.2677 27.1839 51.9777 27.4767C51.4618 28.0035 50.7826 28.2651 49.9382 28.2651C49.5269 28.2651 49.1488 28.2061 48.8037 28.0864C48.4126 27.9519 48.0914 27.7512 47.8417 27.4859C47.5333 27.1618 47.3295 26.8155 47.2267 26.4471C47.1827 26.2795 47.1496 26.0935 47.1294 25.8854C47.1166 25.7178 47.1093 25.5041 47.1093 25.2407V20.835H48.9707V25.2407C48.9707 25.4323 48.9799 25.598 49.0001 25.7362C49.0258 25.913 49.0698 26.0622 49.1304 26.1838C49.2773 26.4821 49.5416 26.6313 49.9198 26.6313C50.298 26.6313 50.5733 26.4858 50.7092 26.193C50.7642 26.0732 50.8028 25.9277 50.8248 25.7509C50.8377 25.622 50.845 25.4525 50.845 25.2407V20.835H52.7065V25.2407L52.7046 25.2389Z" fill="#072D94"/>
<path d="M61.3822 24.4782C61.3822 25.5483 61.0078 26.4508 60.2569 27.182C59.5098 27.904 58.5992 28.2651 57.5253 28.2651C56.4514 28.2651 55.5831 27.9114 54.8378 27.2023C54.0741 26.484 53.6923 25.6073 53.6923 24.5721C53.6923 24.0196 53.7877 23.502 53.9768 23.0139C54.0759 22.7542 54.2356 22.4816 54.4523 22.1961C55.2086 21.1997 56.2366 20.7006 57.5345 20.7006C58.6047 20.7006 59.5134 21.0634 60.2569 21.7873C61.0059 22.5148 61.3822 23.4136 61.3822 24.48V24.4782ZM59.5208 24.4874C59.5208 23.8999 59.3409 23.4007 58.9811 22.9863C58.5992 22.5498 58.1201 22.3324 57.5437 22.3324C56.9672 22.3324 56.4789 22.5443 56.1008 22.9679C55.7355 23.3749 55.5519 23.8722 55.5519 24.4579C55.5519 25.0436 55.7355 25.5649 56.1044 25.9775C56.4863 26.4103 56.9709 26.6276 57.562 26.6276C58.1531 26.6276 58.6029 26.4103 58.9811 25.9738C59.3409 25.5594 59.519 25.0639 59.519 24.4874H59.5208ZM59.2509 19.3652L58.7902 18.3982L61.1509 17.1292L61.676 18.2933L59.2509 19.3652ZM57.9971 20.1922L57.5455 19.6249L57.0939 20.1922H55.4968L57.0315 18.5566H58.0944L59.5759 20.1922H57.9989H57.9971Z" fill="#072D94"/>
<path d="M69.6156 25.3973C69.4045 26.2538 68.9566 26.9463 68.2737 27.4749C67.5981 28.0017 66.8161 28.2632 65.9312 28.2632C64.8665 28.2632 63.9615 27.8985 63.2125 27.1673C62.4617 26.4324 62.0872 25.5336 62.0872 24.469C62.0872 23.4044 62.4598 22.5111 63.2033 21.7799C63.9449 21.0579 64.8463 20.6969 65.911 20.6969C67.2952 20.6969 68.3655 21.2679 69.1181 22.4098C69.3806 22.804 69.5458 23.2018 69.6138 23.6033H67.6605C67.3374 22.7561 66.75 22.3343 65.9 22.3343C65.3254 22.3343 64.8536 22.548 64.481 22.9734C64.1249 23.3842 63.9468 23.8796 63.9468 24.4598C63.9468 25.04 64.1249 25.5483 64.481 25.9646C64.8555 26.4066 65.3328 26.6277 65.9092 26.6277C66.7041 26.6277 67.2879 26.2169 67.6605 25.3973H69.6138H69.6156Z" fill="#072D94"/>
<path d="M0 43.8048V34.3174H2.42136V41.6774H5.23191V43.8048H0Z" fill="#072D94"/>
<path d="M15.7783 39.062C15.7783 40.4563 15.29 41.6277 14.3134 42.5799C13.3404 43.5193 12.1564 43.9889 10.7594 43.9889C9.36235 43.9889 8.23336 43.5285 7.26041 42.6057C6.26726 41.6719 5.77161 40.5299 5.77161 39.1817C5.77161 38.4634 5.8946 37.7874 6.14059 37.1538C6.27093 36.8168 6.47654 36.4613 6.76108 36.0892C7.74505 34.7926 9.08331 34.1424 10.7722 34.1424C12.1656 34.1424 13.3459 34.6139 14.3152 35.5569C15.2918 36.5037 15.7802 37.6714 15.7802 39.062H15.7783ZM13.3551 39.0749C13.3551 38.3105 13.122 37.6603 12.6539 37.1225C12.1582 36.5552 11.5341 36.2716 10.7832 36.2716C10.0324 36.2716 9.39723 36.546 8.90524 37.0986C8.42978 37.629 8.19113 38.2755 8.19113 39.038C8.19113 39.8006 8.43162 40.4765 8.91075 41.0162C9.40641 41.5798 10.0397 41.8616 10.8071 41.8616C11.5744 41.8616 12.16 41.578 12.6539 41.0107C13.122 40.4728 13.3551 39.8282 13.3551 39.0767V39.0749Z" fill="#072D94"/>
<path d="M22.9801 43.8048L19.3691 38.0343L19.3379 38.0471L19.4059 43.8048H17.0836V34.3174H19.1745L22.8424 40.2813L22.8681 40.2555L22.7616 34.3156H25.0839V43.8029H22.9801V43.8048Z" fill="#072D94"/>
<path d="M36.4985 38.9109C36.4985 40.3679 36.0194 41.5798 35.0593 42.5468C34.0955 43.5156 32.8876 43.9981 31.4355 43.9981C29.9834 43.9981 28.8453 43.5211 27.8686 42.5652C26.8883 41.6019 26.3982 40.4213 26.3982 39.0233C26.3982 37.6253 26.8975 36.4502 27.8943 35.5127C28.871 34.5992 30.0642 34.1424 31.4741 34.1424C32.526 34.1424 33.4989 34.45 34.3966 35.0615C35.3273 35.6951 35.935 36.5073 36.2177 37.4964H33.5007C33.0418 36.6786 32.3442 36.2697 31.4098 36.2697C30.6498 36.2697 30.0238 36.5405 29.5318 37.0838C29.0564 37.6088 28.8177 38.2571 28.8177 39.0233C28.8177 39.7895 29.049 40.4913 29.5116 41.0254C29.9999 41.589 30.6351 41.8708 31.4208 41.8708C31.9679 41.8708 32.4378 41.7474 32.8344 41.5006C33.2603 41.2335 33.543 40.8486 33.6862 40.3421H30.8572V38.4081H36.4838C36.4875 38.4836 36.493 38.5665 36.4967 38.6586V38.9091L36.4985 38.9109Z" fill="#072D94"/>
<path d="M51.113 40.2573C50.8376 41.3717 50.2557 42.2723 49.3672 42.9612C48.4879 43.6464 47.4708 43.9871 46.3198 43.9871C44.9338 43.9871 43.7553 43.5119 42.7841 42.5597C41.8075 41.6037 41.3192 40.4342 41.3192 39.0491C41.3192 37.664 41.8039 36.5018 42.7713 35.5514C43.7351 34.6121 44.91 34.1424 46.2941 34.1424C48.0968 34.1424 49.4883 34.8847 50.4686 36.371C50.8101 36.8849 51.0249 37.4025 51.113 37.9237H48.5723C48.1501 36.8223 47.3882 36.2716 46.2813 36.2716C45.5341 36.2716 44.9191 36.5497 44.4345 37.1041C43.9719 37.6382 43.7406 38.2829 43.7406 39.038C43.7406 39.7932 43.9719 40.4544 44.4345 40.9959C44.9228 41.5724 45.5433 41.8598 46.2941 41.8598C47.3295 41.8598 48.0877 41.3256 48.5723 40.2573H51.113Z" fill="#072D94"/>
<path d="M57.8961 43.8048V40.0124H54.7918V43.8048H52.3705V34.3174H54.7918V37.885H57.8961V34.3174H60.3175V43.8048H57.8961Z" fill="#072D94"/>
<path d="M68.1488 43.8048L67.6862 42.4344H64.3947L63.8935 43.8048H61.2904L65.0959 34.3174H67.0051L70.7794 43.8048H68.1506H68.1488ZM66.0707 37.2717H66.034L65.0574 40.5134H67.0473L66.0707 37.2717ZM66.6343 33.4849L66.0469 32.7463L65.4594 33.4849H63.3813L65.3768 31.3575H66.7591L68.6867 33.4849H66.6343Z" fill="#072D94"/>
<path d="M79 40.0511C79 40.6976 78.9449 41.2206 78.8366 41.6222C78.6897 42.136 78.4309 42.5818 78.0546 42.9612C77.3827 43.6464 76.4978 43.9871 75.4019 43.9871C74.8677 43.9871 74.3757 43.9097 73.9241 43.755C73.4156 43.5801 72.9989 43.3185 72.6721 42.9722C72.2719 42.5505 72.0039 42.101 71.8717 41.6203C71.813 41.403 71.7708 41.1599 71.7469 40.8873C71.7304 40.6699 71.7212 40.39 71.7212 40.0492V34.3174H74.1426V40.0492C74.1426 40.2997 74.1554 40.5152 74.1793 40.6939C74.2123 40.9241 74.2692 41.1175 74.3482 41.2759C74.5409 41.6645 74.8824 41.8579 75.3743 41.8579C75.8663 41.8579 76.2243 41.6682 76.4005 41.2888C76.4721 41.1341 76.5217 40.9425 76.5511 40.7123C76.5676 40.5447 76.5768 40.3237 76.5768 40.0492V34.3174H78.9981V40.0492L79 40.0511Z" fill="#072D94"/>
</g>
<defs>
<clipPath id="clip0_1_283">
<rect width="79" height="44" fill="white"/>
</clipPath>
</defs>
</svg>
