<svg width="98" height="19" viewBox="0 0 98 19" fill="none" xmlns="http://www.w3.org/2000/svg">
<g clip-path="url(#clip0_1_36)">
<path d="M91.128 5.35419C92.3396 4.56236 93.574 4.35212 94.889 4.70874C96.7218 5.20584 97.9036 6.72073 97.9682 8.75631C98.0219 10.4716 97.9821 12.1899 97.999 13.9062C98.002 14.1763 97.9016 14.2333 97.6541 14.2274C97.0588 14.2127 96.4614 14.1999 95.8671 14.2313C95.5023 14.25 95.391 14.1577 95.3979 13.7804C95.4228 12.3746 95.4079 10.9677 95.4079 9.56189C95.4079 9.46365 95.4079 9.36541 95.4079 9.26717C95.4029 8.02244 95.0182 7.32983 94.1704 7.03609C93.2272 6.70894 91.8953 7.10781 91.2393 7.89571C91.0823 8.08433 91.0942 8.28475 91.0942 8.49498C91.0942 10.2447 91.0823 11.9944 91.1031 13.7441C91.1071 14.1262 91.0097 14.2569 90.6121 14.2313C90.0684 14.196 89.5178 14.195 88.9741 14.2313C88.5706 14.2579 88.4851 14.1184 88.4861 13.7411C88.5 10.0295 88.494 6.31794 88.494 2.60636C88.494 1.98547 88.5099 1.3636 88.4871 0.742707C88.4762 0.433245 88.5855 0.348757 88.8866 0.359563C89.4482 0.381176 90.0138 0.391001 90.5744 0.357598C90.9789 0.333038 91.1131 0.442086 91.1041 0.863545C91.0763 2.22027 91.0932 3.57797 91.0952 4.93469C91.0952 5.04571 91.1121 5.15672 91.128 5.35517V5.35419Z" fill="#365F93"/>
<path d="M45.1257 5.38073C46.2419 4.62132 47.3968 4.3875 48.6362 4.64097C50.5118 5.02509 51.8924 6.56553 51.9659 8.47535C52.0355 10.2889 51.9888 12.1054 52.0027 13.9209C52.0047 14.1577 51.9242 14.2304 51.6896 14.2255C51.0774 14.2127 50.4631 14.2019 49.8518 14.2284C49.5089 14.2431 49.4016 14.1478 49.4065 13.7981C49.4264 12.3097 49.4145 10.8214 49.4145 9.333C49.4145 9.20234 49.4165 9.07168 49.4145 8.94003C49.3797 7.42023 48.2258 6.5783 46.7458 7.00565C46.4794 7.08228 46.224 7.20999 45.9785 7.34262C45.3911 7.65994 45.075 8.08042 45.1058 8.82411C45.1724 10.4736 45.1127 12.128 45.1366 13.7794C45.1416 14.1577 45.0293 14.249 44.6665 14.2304C44.088 14.1999 43.5066 14.2029 42.9281 14.2304C42.5941 14.2461 42.5176 14.1321 42.5196 13.8177C42.5325 11.7566 42.5265 9.69552 42.5265 7.6344C42.5265 5.3768 42.5385 3.1192 42.5156 0.862579C42.5116 0.44505 42.6319 0.333054 43.0394 0.358597C43.6 0.393964 44.1665 0.38807 44.7281 0.35958C45.068 0.342878 45.1356 0.467646 45.1326 0.776126C45.1187 2.28021 45.1257 3.78528 45.1257 5.38171V5.38073Z" fill="#335D91"/>
<path d="M2.59409 5.28247C4.42691 4.21163 6.15536 4.16349 7.83113 5.37482C8.87278 6.12833 9.39757 7.20212 9.43733 8.45077C9.49498 10.2319 9.45423 12.016 9.47013 13.7991C9.47311 14.1036 9.33595 14.1459 9.07951 14.141C8.48315 14.1292 7.88679 14.1193 7.29143 14.1439C6.95647 14.1577 6.87099 14.0398 6.87397 13.7244C6.88689 12.0887 6.88988 10.4529 6.87497 8.81722C6.86602 7.78568 6.34719 7.08521 5.43376 6.90445C4.34441 6.68831 3.45981 7.10682 2.70939 7.86623C2.56129 8.01654 2.59409 8.19829 2.59409 8.37415C2.5921 10.1405 2.58316 11.9079 2.60105 13.6743C2.60502 14.0299 2.52551 14.1694 2.13986 14.1449C1.59518 14.1115 1.04653 14.1144 0.500862 14.1449C0.119191 14.1655 -0.00306272 14.0624 -0.00107485 13.6645C0.0178099 10.9815 0.0088645 8.29948 0.0088645 5.61649C0.0088645 3.99747 0.0197978 2.37745 -8.09123e-05 0.758427C-0.00306272 0.395914 0.0863914 0.267217 0.467068 0.28883C1.02864 0.32125 1.59419 0.31732 2.15576 0.289813C2.50364 0.273112 2.60701 0.381178 2.60204 0.72699C2.58316 2.06799 2.59409 3.40998 2.59409 4.75098C2.59409 4.90915 2.59409 5.06732 2.59409 5.28247Z" fill="#4E8DFE"/>
<path d="M70.9133 13.523C69.6371 14.4249 68.3241 14.6096 66.9286 14.2264C65.8731 13.9366 65.0243 13.3511 64.3722 12.4758C63.0553 10.7084 63.102 8.04603 64.5025 6.30616C65.2747 5.34634 66.2687 4.75296 67.5121 4.58791C68.7267 4.42679 69.8339 4.71071 70.9521 5.48584C70.6966 4.62426 71.2135 4.73822 71.6459 4.74117C72.0762 4.74412 72.5076 4.76475 72.936 4.73527C73.3037 4.70973 73.419 4.82271 73.4151 5.19701C73.3962 7.04298 73.4061 8.88993 73.4061 10.7359C73.4061 11.7655 73.3942 12.795 73.4131 13.8236C73.419 14.1498 73.3157 14.2471 72.9916 14.2284C72.5305 14.2019 72.0643 14.1979 71.6031 14.2284C71.1409 14.2589 70.7692 14.2372 70.9133 13.522V13.523ZM70.806 9.47348C70.806 9.09722 70.806 8.72095 70.806 8.34567C70.806 8.19929 70.804 8.0588 70.6976 7.93109C69.7305 6.76495 67.7576 6.50265 66.709 7.66976C65.8085 8.67085 65.7767 10.2732 66.6493 11.2173C67.5687 12.2105 69.0596 12.3235 70.2047 11.4943C70.6142 11.1976 70.8974 10.8587 70.8129 10.3066C70.7712 10.0344 70.806 9.75151 70.806 9.47348Z" fill="#365F93"/>
<path d="M59.0367 10.115C58.0935 10.115 57.1483 10.1386 56.206 10.1052C55.7448 10.0885 55.7339 10.2456 55.8492 10.6091C56.3124 12.0661 58.0677 12.7685 59.5516 12.0739C59.8975 11.9118 60.2215 11.7094 60.4929 11.4452C60.6847 11.2585 60.804 11.2929 60.9719 11.4707C61.2989 11.8175 61.6379 12.1545 61.9907 12.4757C62.1895 12.6565 62.1438 12.7764 61.9828 12.9502C60.7712 14.2647 58.3171 14.7795 56.4008 14.1105C54.5879 13.4778 53.3753 11.8774 53.259 9.97155C53.1397 8.00769 53.7262 6.33365 55.4496 5.23235C58.1541 3.50428 61.6925 5.08892 62.3177 8.26115C62.4131 8.74745 62.4122 9.23473 62.4201 9.72496C62.4251 10.0158 62.3227 10.1248 62.0156 10.1199C61.0226 10.1032 60.0287 10.114 59.0358 10.114L59.0367 10.115ZM55.877 8.24937C57.0976 8.24937 58.2853 8.24544 59.4721 8.25133C59.8776 8.2533 59.7335 8.02636 59.6629 7.8338C59.3836 7.0685 58.6581 6.59497 57.8172 6.62346C56.8869 6.6549 56.1494 7.24828 55.877 8.24937Z" fill="#345E92"/>
<path d="M16.6057 9.90279C15.6287 9.90279 14.6526 9.9136 13.6756 9.8969C13.3436 9.891 13.284 9.99318 13.3655 10.2977C13.763 11.7851 15.575 12.5671 17.0579 11.8686C17.3243 11.7429 17.6036 11.6024 17.8093 11.401C18.1523 11.066 18.4047 11.0404 18.7118 11.4393C18.9206 11.7104 19.18 11.9502 19.4464 12.1673C19.7465 12.4119 19.7038 12.5887 19.4354 12.8265C18.3013 13.8305 16.9595 14.2657 15.4647 14.1783C13.1051 14.0407 11.4502 12.6762 10.9055 10.4942C10.3807 8.3938 11.2722 6.07234 13.0196 4.98971C15.7728 3.28227 19.3191 4.92684 19.8867 8.1698C19.9632 8.60796 19.9731 9.04612 19.9741 9.48723C19.9741 9.79276 19.8728 9.91753 19.5358 9.91065C18.5598 9.88904 17.5827 9.90279 16.6067 9.90279H16.6057ZM15.3166 8.03718C15.8632 8.03718 16.4109 8.01949 16.9556 8.04307C17.3243 8.05977 17.3223 7.92027 17.2209 7.64028C16.9566 6.91329 16.2141 6.37885 15.4358 6.38278C14.586 6.38769 13.7263 6.99483 13.4798 7.73557C13.3893 8.00672 13.4957 8.04209 13.7263 8.03914C14.256 8.03128 14.7858 8.0362 15.3166 8.03718Z" fill="#4E8DFE"/>
<path d="M34.9955 14.1076C34.2411 13.8236 33.5006 13.5289 32.8655 13.0004C31.2603 11.6613 30.652 9.32316 31.4273 7.33278C32.1936 5.36696 34.1825 4.04757 36.2618 4.12616C38.6283 4.21556 40.7196 6.03894 41.0456 8.29457C41.4123 10.8351 40.0437 13.135 37.695 13.9258C37.5241 13.9838 37.3541 14.0437 37.1841 14.1036C36.4546 14.1557 35.725 14.1449 34.9965 14.1076H34.9955ZM38.7794 9.17482C38.7854 7.66386 37.6125 6.47218 36.1167 6.46727C34.6367 6.46334 33.4122 7.66975 33.4002 9.14436C33.3893 10.6062 34.6248 11.8578 36.0858 11.8647C37.5718 11.8716 38.7744 10.671 38.7794 9.17482Z" fill="#4E8DFE"/>
<path d="M83.9985 9.00683C83.9985 9.56288 83.9806 10.1189 84.0025 10.674C84.0402 11.6299 84.5322 12.1024 85.4973 12.1417C85.6126 12.1466 85.7289 12.1457 85.8452 12.1417C86.4012 12.1214 86.7312 12.3873 86.8352 12.9395C86.8561 13.0515 86.863 13.1664 86.8849 13.2794C87.0817 14.3129 87.0827 14.3178 86.0142 14.3954C85.385 14.4416 84.7559 14.4209 84.1396 14.2736C82.3595 13.8492 81.4431 12.628 81.4143 10.6278C81.3984 9.53243 81.3974 8.43703 81.4192 7.34163C81.4262 6.99091 81.3099 6.89463 80.97 6.91035C80.4253 6.93589 79.8776 6.9074 79.332 6.92116C79.0636 6.92803 78.9384 6.8573 78.9493 6.5665C78.9682 6.07627 78.9682 5.58506 78.9493 5.09582C78.9384 4.80797 79.0566 4.73036 79.329 4.73822C79.8747 4.75295 80.4223 4.72446 80.967 4.74903C81.3029 4.76376 81.4361 4.67633 81.4192 4.32069C81.3904 3.71748 81.4212 3.11133 81.4073 2.50616C81.4013 2.24877 81.452 2.11712 81.7552 2.12695C82.4002 2.1466 83.0463 2.14168 83.6914 2.12891C83.9319 2.124 84.0054 2.21045 84.0005 2.44034C83.9886 3.07793 84.0094 3.71552 83.9905 4.35311C83.9816 4.64882 84.073 4.75492 84.3812 4.74804C85.1584 4.73036 85.9377 4.75688 86.7149 4.73527C87.0469 4.72643 87.193 4.79716 87.1672 5.15968C87.1353 5.61552 87.1423 6.07529 87.1652 6.53212C87.1811 6.82979 87.0936 6.93295 86.7805 6.9241C86.053 6.90249 85.3224 6.94473 84.5958 6.9074C84.1337 6.88382 83.9359 6.98796 83.9846 7.48703C84.0333 7.98905 83.9955 8.49991 83.9955 9.00683H83.9985Z" fill="#365F93"/>
<path d="M29.7008 7.13434C29.6481 8.86537 29.7634 10.5984 29.6342 12.3284C29.5527 13.4238 28.4156 14.3365 27.3551 14.1685C26.8462 14.0879 26.4824 13.8197 26.3691 13.3285C26.2498 12.8137 26.2886 12.2852 26.8015 11.9767C27.1056 11.794 27.1762 11.5759 27.1752 11.2595C27.1682 8.46454 27.1692 5.66955 27.1752 2.87457C27.1752 2.60735 27.1096 2.42953 26.8671 2.26743C26.3413 1.91769 26.1763 1.36754 26.3701 0.809524C26.5629 0.255439 27.0281 -0.027498 27.697 0.00295698C28.7049 0.0491307 29.5706 0.897941 29.6382 1.89215C29.7564 3.63889 29.6491 5.3876 29.7008 7.13532V7.13434Z" fill="#5290FE"/>
<path d="M77.5796 7.35438C77.5796 9.47935 77.5667 11.6043 77.5906 13.7293C77.5955 14.1498 77.4663 14.2559 77.0628 14.2313C76.5022 14.1969 75.9376 14.2087 75.3751 14.2284C75.0709 14.2392 74.9437 14.1793 74.9447 13.8344C74.9566 9.47051 74.9556 5.10562 74.9467 0.741712C74.9467 0.434214 75.0461 0.350709 75.3433 0.359551C75.9545 0.379199 76.5688 0.387058 77.1801 0.356603C77.5339 0.33892 77.5866 0.484318 77.5856 0.782973C77.5766 2.97279 77.5806 5.16358 77.5806 7.3534L77.5796 7.35438Z" fill="#365F93"/>
<path d="M23.4082 14.1567C22.3188 14.1341 21.3885 13.243 21.3826 12.1358C21.3647 8.75042 21.3667 5.365 21.3826 1.98056C21.3875 0.921514 22.3188 0.0432307 23.4032 0.00491629C23.9986 -0.0166969 24.4727 0.280976 24.6476 0.787905C24.8454 1.36066 24.6934 1.93341 24.1805 2.25564C23.9111 2.42462 23.8555 2.61029 23.8565 2.89421C23.8644 5.70688 23.8634 8.51955 23.8565 11.3332C23.8565 11.5798 23.8992 11.7507 24.1377 11.9001C24.6834 12.241 24.8593 12.7734 24.6715 13.3393C24.4876 13.8924 24.0562 14.1724 23.4092 14.1586L23.4082 14.1567Z" fill="#4E8DFE"/>
<path d="M34.9954 14.1075C35.725 14.1449 36.4545 14.1557 37.1831 14.1036C37.2497 16.1598 36.216 17.5401 34.3593 18.2809C31.9281 19.2505 29.4473 19.2515 27.028 18.217C25.6604 17.6325 24.7897 16.5695 24.4885 15.1008C24.3136 14.247 24.8155 13.6006 25.6067 13.633C26.0758 13.6517 26.4307 13.8973 26.536 14.3178C26.9684 16.04 28.2208 16.6019 29.8419 16.7306C30.8249 16.8082 31.7949 16.7797 32.7471 16.5459C34.0323 16.2315 34.8006 15.421 34.9944 14.1085L34.9954 14.1075Z" fill="#345E92"/>
<path d="M34.9746 9.23964C34.9666 8.60795 35.4407 8.12755 36.0808 8.11969C36.7468 8.11084 37.2646 8.60009 37.2586 9.23179C37.2527 9.83303 36.7239 10.3498 36.1136 10.3498C35.4865 10.3498 34.9825 9.85955 34.9746 9.24063V9.23964Z" fill="#365F93"/>
</g>
<defs>
<clipPath id="clip0_1_36">
<rect width="98" height="19" fill="white"/>
</clipPath>
</defs>
</svg>
